<?xml version="1.0" encoding="utf-8"?><svg width="22" height="20" fill="none" xmlns="http://www.w3.org/2000/svg" viewBox="0 0 22 20"><path fill-rule="evenodd" clip-rule="evenodd" d="M21.541 3.418a2.12 2.12 0 00-1.62-.727H6.4c-.387 0-.755.106-1.074.296L4.635.647A.916.916 0 003.752 0H.696C.314 0 0 .3 0 .674v.07c0 .37.31.674.696.674h2.629l1.342 4.595 1.846 6.339c-1.05.255-1.828 1.176-1.828 2.268 0 1.238.996 2.256 2.256 2.335-.105.29-.155.612-.128.943.091 1.118 1.033 2.021 2.188 2.096 1.378.093 2.53-.969 2.53-2.281 0-.265-.046-.516-.133-.754h2.766c-.114.313-.16.661-.119 1.018.128 1.084 1.051 1.938 2.18 2.017 1.377.093 2.533-.964 2.533-2.281 0-1.274-1.092-2.291-2.402-2.291H7.118c-.45 0-.832-.34-.85-.77-.019-.459.359-.833.827-.833H18.116c.937 0 1.756-.622 1.983-1.503l1.838-7.162a1.922 1.922 0 00-.396-1.736zm-5.144 13.537c.428 0 .778.34.778.753 0 .414-.35.754-.778.754a.768.768 0 01-.778-.754c0-.414.346-.753.778-.753zm-6.449.753a.768.768 0 00-.778-.753.765.765 0 00-.777.753c0 .414.35.754.777.754.428 0 .778-.34.778-.754zM6.313 6.004l-.355-1.212a.413.413 0 01.077-.387.452.452 0 01.364-.176h1.483l.405 1.78H6.313v-.005zm2.319 1.533H6.758l.477 1.648h1.77l-.373-1.648zm-.15 4.74a.455.455 0 01-.441-.326l-.36-1.233h1.67l.355 1.555H8.482v.004zm2.844 0h1.114v-1.555h-1.47l.355 1.555zm1.118-3.092h-1.82l-.372-1.648h2.192v1.648zm-2.537-3.18h2.538v-1.78H9.502l.405 1.78zm5.375 6.272h-1.25v-1.555h1.587l-.337 1.555zm-1.25-3.092h1.923l.36-1.648H14.03v1.648zm0-3.18v-1.78h3.001l-.386 1.78H14.03zm4.09 6.276c.213 0 .395-.14.445-.339l.314-1.215h-1.637l-.342 1.554h1.22zm1.149-3.096h-1.697l.36-1.648h1.76l-.423 1.648zm.814-3.186l.314-1.224a.418.418 0 00-.087-.383.44.44 0 00-.359-.172h-1.3L18.265 6h1.819z" fill="#fff"/></svg>