<?xml version="1.0" encoding="utf-8"?><svg width="18" height="18" xmlns="http://www.w3.org/2000/svg" viewBox="0 0 18 18"><path fill-rule="evenodd" clip-rule="evenodd" d="M1.233 13.32L0 17.677l4.515-1.157a8.807 8.807 0 004.296 1.116c4.847 0 8.789-3.926 8.789-8.751C17.6 4.06 13.657.134 8.811.134S.023 4.06.023 8.886c0 1.567.417 3.092 1.21 4.433zm3.781 1.772l-.269-.163-2.608.668.71-2.51-.181-.28a7.218 7.218 0 01-1.153-3.922c0-4.006 3.274-7.266 7.298-7.266s7.298 3.26 7.298 7.266c0 4.007-3.274 7.267-7.298 7.267a7.307 7.307 0 01-3.797-1.06z" class="akpink-icon"/><path d="M6.23 5.18l-.589-.031a.726.726 0 00-.506.168c-.286.24-.743.706-.883 1.313-.209.904.114 2.012.95 3.119.837 1.107 2.396 2.88 5.153 3.636.888.244 1.587.08 2.126-.255.427-.265.722-.691.828-1.172l.094-.427a.294.294 0 00-.171-.33l-1.99-.892a.311.311 0 00-.37.088l-.782.984a.228.228 0 01-.251.073c-.535-.183-2.328-.912-3.312-2.752a.214.214 0 01.029-.244l.746-.84a.29.29 0 00.05-.31L6.494 5.36a.305.305 0 00-.264-.18z"/></svg>