<?xml version="1.0" encoding="utf-8"?><svg width="18" height="19" xmlns="http://www.w3.org/2000/svg" viewBox="0 0 18 19"><path fill-rule="evenodd" clip-rule="evenodd" d="M17.201 4.577l.005.021a17.465 17.465 0 010 7.375l-.005.021c-.425 1.752-2.339 3.632-4.097 4.023l-.02.005a22.392 22.392 0 01-5.548.377l-1.94 2.06c-.482.51-1.327.163-1.327-.545v-1.956C2.577 15.465.805 13.671.4 11.994l-.005-.021a17.464 17.464 0 010-7.375l.004-.021C.824 2.825 2.738.945 4.495.554l.02-.004a22.313 22.313 0 018.57 0l.02.004c1.757.391 3.671 2.271 4.096 4.023zm-4.423 9.867c1.155-.262 2.609-1.683 2.892-2.826a15.833 15.833 0 000-6.665c-.283-1.143-1.736-2.564-2.892-2.827a20.782 20.782 0 00-7.957 0C3.666 2.39 2.214 3.81 1.93 4.953a15.848 15.848 0 000 6.665c.284 1.143 1.736 2.564 2.891 2.826h.001c.052.01.09.056.09.11v3.24c0 .161.193.241.303.124l1.508-1.58 1.417-1.485a.107.107 0 01.08-.033 20.806 20.806 0 004.558-.376z"/><path d="M11.313 13.113c-.178-.055-.347-.092-.504-.158-1.629-.69-3.127-1.58-4.314-2.943-.675-.775-1.203-1.65-1.65-2.577-.212-.44-.39-.896-.572-1.35-.166-.413.078-.84.336-1.152.241-.293.552-.516.888-.681.263-.13.522-.055.713.172a9.39 9.39 0 011.104 1.577c.19.35.138.778-.206 1.016-.083.058-.16.126-.237.192a.788.788 0 00-.18.193.538.538 0 00-.034.464c.424 1.188 1.138 2.113 2.31 2.61.188.08.376.173.592.147.362-.043.48-.448.733-.66.248-.207.565-.21.832-.037.267.172.526.358.783.545.252.184.504.363.737.573.224.201.301.465.175.739-.23.5-.567.917-1.052 1.182-.137.075-.3.1-.454.148.154-.048-.178-.055 0 0z"/><path d="M8.804 3.68c2.13.06 3.879 1.503 4.254 3.652.063.366.086.74.115 1.112.012.156-.075.305-.24.307-.171.002-.248-.144-.259-.3-.022-.31-.037-.62-.079-.927-.22-1.619-1.485-2.958-3.065-3.246-.237-.043-.48-.054-.721-.08-.152-.016-.352-.026-.385-.219-.029-.162.105-.29.256-.299.041-.002.083 0 .124 0-.041 0 2.13.06 0 0z" fill="#9E839E"/><path d="M12.04 7.962c-.003.027-.004.09-.02.15-.057.22-.38.246-.455.026a.672.672 0 01-.026-.21c0-.46-.099-.92-.326-1.32a2.429 2.429 0 00-1.01-.968 2.863 2.863 0 00-.805-.252c-.122-.02-.244-.033-.366-.05-.148-.021-.227-.117-.22-.266.006-.14.106-.24.255-.23.489.027.96.135 1.395.37.884.478 1.389 1.231 1.536 2.238.007.046.017.09.02.137.01.113.014.226.023.375-.009-.15-.004.027 0 0z"/><path d="M10.716 7.91c-.178.003-.274-.098-.292-.265-.013-.116-.023-.234-.05-.347a.98.98 0 00-.353-.566.914.914 0 00-.288-.142c-.13-.038-.266-.028-.397-.06-.141-.036-.22-.153-.197-.288a.257.257 0 01.27-.21c.825.06 1.415.496 1.5 1.489.005.07.012.144-.003.21-.026.115-.109.173-.19.178.081-.005-.178.004 0 0z" fill="#9E839E"/></svg>