<?xml version="1.0" encoding="utf-8"?><svg width="22" height="19" fill="none" xmlns="http://www.w3.org/2000/svg" viewBox="0 0 22 19"><path d="M20.167 2.75h-4.584v-.916A1.835 1.835 0 0013.75 0h-5.5a1.835 1.835 0 00-1.833 1.834v.916H1.833A1.835 1.835 0 000 4.584v2.75c0 1.011.822 1.833 1.833 1.833h7.334V8.71c0-.254.205-.459.458-.459h2.75c.253 0 .458.205.458.459v.458h7.334A1.835 1.835 0 0022 7.334v-2.75a1.835 1.835 0 00-1.833-1.833zm-6.417 0h-5.5v-.916h5.5v.917zM21.746 9.662a.459.459 0 00-.481.045 1.81 1.81 0 01-1.098.377h-7.334v1.375a.458.458 0 01-.458.459h-2.75a.458.458 0 01-.458-.459v-1.375H1.833a1.81 1.81 0 01-1.098-.377.458.458 0 00-.735.365v6.429c0 1.011.822 1.833 1.833 1.833h18.334A1.835 1.835 0 0022 16.501v-6.428a.458.458 0 00-.254-.41z" fill="#A96D8E"/></svg>