<?xml version="1.0" encoding="utf-8"?><svg width="50" height="51" fill="none" xmlns="http://www.w3.org/2000/svg" viewBox="0 0 50 51"><path d="M25 .007c-13.785 0-25 11.215-25 25s11.215 25 25 25 25-11.215 25-25-11.215-25-25-25zm11.499 43.19l-1.326-2.29-1.495.86 1.33 2.303a21.387 21.387 0 01-9.146 2.438v-2.644h-1.727v2.644a21.39 21.39 0 01-9.143-2.438l1.326-2.303-1.498-.86-1.322 2.286a21.685 21.685 0 01-6.687-6.687l2.29-1.322-.864-1.498-2.3 1.329A21.4 21.4 0 013.5 25.869h2.644v-1.727H3.5A21.34 21.34 0 015.937 15l2.3 1.326.864-1.495-2.29-1.322a21.636 21.636 0 016.69-6.69l1.322 2.29 1.495-.864-1.326-2.3a21.386 21.386 0 019.142-2.438v2.64h1.728V3.51c3.291.131 6.394.99 9.145 2.438l-1.329 2.3 1.495.864 1.326-2.29a21.659 21.659 0 016.686 6.69l-2.29 1.323.864 1.494L44.063 15a21.414 21.414 0 012.438 9.146h-2.644v1.727H46.5a21.36 21.36 0 01-2.442 9.146l-2.3-1.33-.864 1.499 2.29 1.322a21.69 21.69 0 01-6.686 6.687z" fill="#3E0B3D"/><path d="M29.219 25.007c0-1.873-1.23-3.442-2.92-3.994V9.315h-2.593v11.703c-1.69.548-2.919 2.117-2.919 3.99a4.216 4.216 0 004.215 4.22 4.19 4.19 0 001.911-.477l7.774 7.775 1.832-1.832-7.774-7.778c.29-.576.474-1.216.474-1.909z" fill="#3E0B3D"/></svg>