<?xml version="1.0" encoding="utf-8"?><svg width="15" height="15" fill="none" xmlns="http://www.w3.org/2000/svg" viewBox="0 0 15 15"><path fill-rule="evenodd" clip-rule="evenodd" d="M0 7.436C0 3.336 3.336 0 7.436 0s7.435 3.336 7.435 7.436-3.335 7.435-7.435 7.435S0 11.536 0 7.436zm1.582 0a5.86 5.86 0 005.854 5.853 5.86 5.86 0 005.853-5.853 5.86 5.86 0 00-5.853-5.854 5.86 5.86 0 00-5.854 5.854z" fill="#9E839E"/><path d="M11.31 7.206H7.97V3.188a.612.612 0 00-1.225 0v4.63c0 .339.274.613.612.613h3.954a.612.612 0 000-1.225z" fill="#9E839E"/></svg>