<?xml version="1.0" encoding="utf-8"?><svg width="18" height="16" fill="none" xmlns="http://www.w3.org/2000/svg" viewBox="0 0 18 16"><path fill-rule="evenodd" clip-rule="evenodd" d="M10.617 3.965V9.24H9.492V.8H0v12.66h2.11c0 1.164.946 2.11 2.109 2.11s2.11-.946 2.11-2.11h5.343c0 1.164.946 2.11 2.11 2.11 1.162 0 2.109-.946 2.109-2.11H18V6.478l-1.256-2.513h-6.127zm2.11 1.056v2.11h-1.055V5.02h1.055zM8.44 2.34l-2.483 2.68H8.44v-2.68zm-.99 3.735L5.272 8.423V6.076H7.45zM1.737 5.02h2.484v-2.68l-2.484 2.68zm-.683 1.055H3.23L1.055 8.423V6.076zM4.222 9.24v-2.68l-2.484 2.68h2.484zm4.218-2.68v2.68H5.957l2.483-2.68zM5.273 4.204L7.45 1.855H5.273v2.348zM3.231 1.855L1.055 4.203V1.855H3.23zm-.067 11.606a1.056 1.056 0 101.055-1.055c-.582 0-1.055.473-1.055 1.055zm2.88-1.055A2.11 2.11 0 004.22 11.35c-.78 0-1.46.425-1.826 1.055H1.055v-2.11h9.562v2.11H6.044zm6.683 1.055c0 .582.473 1.055 1.054 1.055a1.056 1.056 0 000-2.11c-.581 0-1.054.473-1.054 1.055zm2.88-1.055a2.11 2.11 0 00-1.826-1.055 2.11 2.11 0 00-1.825 1.055h-.284v-4.22h1.363l1.055 1.055h2.855v1.055h-1.054v1.055h1.054v1.055h-1.338zm-1.08-4.22h2.418V6.728l-.853-1.707h-2.31v2.418l.745.747z" fill="#3E0B3D"/></svg>