<?xml version="1.0" encoding="utf-8"?><svg width="20" height="18" fill="none" xmlns="http://www.w3.org/2000/svg" viewBox="0 0 20 18"><path d="M18.506 1.802A5.195 5.195 0 0014.542 0c-1.72 0-3.21.828-4.31 2.394-.082.117-.16.234-.232.35a7.43 7.43 0 00-.232-.35C8.668.828 7.178 0 5.458 0 3.918 0 2.51.64 1.494 1.802.531 2.904 0 4.378 0 5.952c0 1.71.652 3.288 2.051 4.966 1.222 1.465 2.973 2.97 5.001 4.712.75.644 1.525 1.31 2.348 2.037a.904.904 0 001.2 0c.823-.727 1.598-1.392 2.347-2.036 1.303-1.12 2.428-2.086 3.404-3.024C18.246 10.787 20 8.721 20 5.952c0-1.574-.53-3.048-1.494-4.15z" fill="#A96D8E"/></svg>