<?xml version="1.0" encoding="utf-8"?><svg width="21" height="18" fill="none" xmlns="http://www.w3.org/2000/svg" viewBox="0 0 21 18"><path d="M19.114 1.802A5.195 5.195 0 0015.15 0c-1.72 0-3.21.828-4.31 2.394-.083.117-.16.234-.232.35a7.4 7.4 0 00-.232-.35C9.276.828 7.786 0 6.066 0c-1.54 0-2.948.64-3.964 1.802C1.14 2.904.608 4.378.608 5.952c0 1.71.652 3.288 2.051 4.966 1.221 1.465 2.973 2.97 5.001 4.712.75.644 1.525 1.31 2.348 2.037a.904.904 0 001.2 0c.823-.727 1.598-1.392 2.347-2.036 1.303-1.12 2.428-2.086 3.404-3.024 1.895-1.82 3.649-3.886 3.649-6.655 0-1.574-.53-3.048-1.494-4.15zm-3.412 9.45c-.939.902-2.046 1.853-3.328 2.954-.57.49-1.155.993-1.766 1.526-.612-.533-1.197-1.036-1.767-1.526C4.85 10.776 2.44 8.705 2.44 5.952c0-2.33 1.559-4.088 3.627-4.088 1.104 0 2.044.53 2.792 1.574.614.856.866 1.745.868 1.75.11.404.47.684.882.684.411 0 .772-.28.882-.683.01-.034.936-3.325 3.66-3.325 2.068 0 3.627 1.757 3.627 4.088 0 1.688-.862 3.174-3.075 5.3z" fill="#3E0B3D"/></svg>