<?xml version="1.0" encoding="utf-8"?><svg width="14" height="16" fill="none" xmlns="http://www.w3.org/2000/svg" viewBox="0 0 14 16"><path d="M9.862 5.672L8.687 5.63l-.255 6.953 1.175.042.255-6.952zM7.587 5.649H6.41V12.6h1.177V5.649zM5.57 12.582l-.256-6.953-1.175.043.255 6.953 1.175-.043z" fill="#A96D8E"/><path d="M0 2.75v1.176h1.226l.972 11.038a.588.588 0 00.586.536h8.412c.305 0 .56-.233.586-.536l.972-11.038H14V2.75H0zm10.657 11.575H3.323l-.916-10.4h9.166l-.916 10.4z" fill="#A96D8E"/><path d="M8.923.5H5.08a.98.98 0 00-.98.98v1.86h1.176V1.675h3.451V3.34h1.177V1.48a.98.98 0 00-.98-.98z" fill="#A96D8E"/></svg>