<?xml version="1.0" encoding="utf-8"?><svg width="478" height="613" fill="none" xmlns="http://www.w3.org/2000/svg" viewBox="0 0 478 613"><g opacity=".5" fill="#3E0B3D"><g opacity=".4"><path d="M-19.44 92.886c1.966-2.68 4.03-5.307 5.9-8.057 3.578-5.271 7.325-10.403 11.62-15.112 6.132-6.706 13.65-11.19 22.319-13.72 3.787-1.106 7.688-1.935 11.566-2.725 10.9-2.202 21.813-4.32 32.35-7.967 10.006-3.456 19.454-8.233 29.011-12.694 1.157-.536 2.336-1.09 3.493-1.626.085.172.192.326.276.498-5.32 3.543-10.502 7.324-15.98 10.607-11.655 7.023-23.64 13.463-36.74 17.421-8.404 2.557-16.942 4.61-25.391 6.999-4.183 1.188-8.336 2.482-12.427 3.965C.665 72.613-4.185 76.347-8.309 80.97c-3.616 4.043-6.894 8.385-10.565 12.361-3.234 3.51-5.82 7.453-8.558 11.298-1.832 2.57-3.914 4.972-6.031 7.329 1.834-3.182 3.611-6.411 5.522-9.544 6.25-10.287 11.123-21.082 13.037-33.095 1.42-8.96 4.627-17.413 9-25.298 3.028-5.49 6.83-10.575 10.36-15.77 4.369-6.436 8.812-12.804 13.18-19.22 1.369-2.025 2.587-4.167 4.097-6.178l-1.88 4.035c-2.91 6.34-5.7 12.711-8.727 18.998a118.818 118.818 0 01-5.794 10.62C2.69 40.81-.182 44.968-2.996 49.153c-5.406 8.005-9.067 16.717-10.87 26.231-.889 4.727-1.977 9.414-4.114 13.77-.568 1.167-1.216 2.326-1.824 3.49.153.097.248.168.363.24zM91.127 34.96c-.07-.11-.141-.218-.21-.348-.143.006-.32-.053-.45.016-.641.282-1.264.586-1.887.89-14.5 7.491-29.587 13.33-45.66 16.415-6.102 1.178-12.189 2.418-18.248 3.784-5.786 1.29-11.27 3.429-16.345 6.568-5.403 3.351-9.832 7.76-13.762 12.69-1.523 1.927-2.915 3.97-4.48 6.118.36-.126.526-.15.595-.225 5.33-5.849 11.636-10.251 19.288-12.435a732.514 732.514 0 0122.924-6.208c20.427-5.154 38.863-14.614 56.463-25.893.615-.428 1.196-.92 1.772-1.372zM-25.186 99.203c2.903-3.054 4.733-6.808 6.6-10.517 2.147-4.253 3.13-8.91 4.009-13.536 1.8-9.494 5.442-18.209 10.828-26.215C-.84 44.616 2.01 40.27 4.862 35.906a41.926 41.926 0 002.205-3.818 1336.19 1336.19 0 006.059-12.021c1.204-2.41 2.327-4.827 3.493-7.26a1.865 1.865 0 00-1.123.804C9.594 22.282 3.712 30.951-2.209 39.6c-5.084 7.445-8.353 15.708-10.64 24.356-1.453 5.466-2.488 11.036-3.92 16.484-1.162 4.414-2.761 8.702-5.123 12.667-1.182 1.983-2.21 4.063-3.294 6.097zM101.08 137.976c2.721-1.459 5.355-3.07 8.158-4.337 8.219-3.739 16.141-7.978 23.739-12.841 2.861-1.833 5.887-3.486 8.923-5.035 10.806-5.498 22.205-7.179 34.186-5.351a1027.87 1027.87 0 0023.513 3.262c3.546.462 7.121.641 10.67.878 7.197.485 13.655 3.039 19.991 6.376 7.054 3.716 12.811 8.934 18.51 14.33 4.581 4.343 9.49 8.271 15.215 10.995a990.093 990.093 0 0017.681 8.223c1.523.686 3.202 1.04 4.775 1.832-.469-.007-.944.047-1.404-.04-5.157-.891-10.079-2.472-14.681-5.001-3.887-2.129-7.801-4.2-11.493-6.636-4.21-2.775-8.202-5.874-12.244-8.897-4.249-3.187-8.851-5.716-13.568-8.113-5.551-2.829-11.332-5.007-17.246-6.873-7.062-2.227-14.276-2.959-21.634-2.072-9.427 1.167-18.882 1.596-28.378 1.225-9.536-.375-18.48 1.861-27.009 6.038-2.449 1.201-4.881 2.424-7.408 3.393-2.463.934-5.001 1.799-7.576 2.232-6.006 1.044-11.779 2.806-17.404 5.134-1.641.671-3.333 1.255-4.989 1.883-.121-.217-.224-.411-.327-.605zm13.964-5.83c.065.169.127.36.212.531 5.286-1.403 10.571-2.785 15.858-4.188.672-.177 1.297-.502 1.94-.804 2.101-.991 4.223-1.98 6.326-2.992 7.895-3.772 16.181-5.953 24.976-5.714 10.199.28 20.339-.06 30.468-1.298 4.96-.599 9.95-.481 14.845.567 11.085 2.41 21.405 6.723 31.125 12.527 1.386.834 2.7 1.764 4.038 2.655.095-.134.191-.267.306-.398-1.778-1.589-3.392-3.386-5.34-4.706-4.109-2.764-8.334-5.377-12.611-7.893-4.739-2.788-9.957-4.276-15.439-4.771-3.015-.265-6.046-.368-9.049-.755a1793.47 1793.47 0 01-27.447-3.723c-10.765-1.541-21.086-.22-30.891 4.461-3.905 1.87-7.645 4.124-11.434 6.25a2679.86 2679.86 0 00-16.594 9.422c-.455.26-.872.544-1.289.829zM305.771 341.072c1.211 1.94 2.51 3.827 3.634 5.819a680.605 680.605 0 017.773 14.323c2.346 4.443 3.636 9.228 4.273 14.212.228 1.779.478 3.54.622 5.33.568 6.876 2.185 13.47 4.909 19.809 5.073 11.763 5.238 23.803 2.036 36.033-1.398 5.329-2.635 10.674-4.034 16.003-2.199 8.391-3.108 16.934-3.087 25.571.005.756-.05 1.506-.424 2.366-.135-.279-.332-.544-.403-.857-.991-4.714-1.962-9.426-2.955-14.12-1.402-6.695-2.889-13.358-4.209-20.065-1.159-5.874-.851-11.722.316-17.585.964-4.863 1.848-9.754 2.45-14.674.878-7.239.261-14.426-1.553-21.489-.601-2.327-1.18-4.672-1.823-6.983-1.865-6.762-3.231-13.617-3.353-20.651-.147-7.201-1.229-14.231-3.915-20.954-.243-.617-.38-1.284-.559-1.935a1.65 1.65 0 01.302-.153zm5.225 11.268c.16.628.218 1.063.383 1.447 2.217 5.308 2.954 10.915 3.275 16.602.449 7.843 2.135 15.363 5.641 22.455 1.66 3.353 2.875 6.865 3.583 10.55 1.549 8.057 1.206 16.065-.565 24.051-1.003 4.451-2.008 8.921-2.733 13.441-1.411 8.675-.762 17.356.217 26.008.032.289.209.552.322.85.424-.754.514-1.438.622-2.101.681-3.891 1.202-7.819 2.063-11.672 1.62-7.102 3.558-14.132 5.158-21.237 2.307-10.259 1.803-20.374-2.139-30.205-.601-1.51-1.159-3.057-1.761-4.567-1.876-4.641-2.999-9.47-3.535-14.444-.217-2.084-.557-4.16-.711-6.258-.676-9.03-4.598-16.838-9.114-24.44-.086-.152-.323-.237-.706-.48zm8.623 115.701c.166-.024.334-.069.499-.093-.071-.905-.122-1.808-.214-2.716-.775-7.04-1.247-14.049-.608-21.149.514-5.664 1.887-11.138 3.142-16.665 2.784-12.333 2.188-24.356-3.587-35.843-1.97-3.915-3.176-8.12-3.8-12.429-.638-4.372-.965-8.794-1.437-13.19-.448-4.231-1.42-8.33-3.378-12.162.022 2.39.291 4.765.356 7.14.256 8.742 1.716 17.28 4.128 25.69 1.431 5.004 2.57 10.08 3 15.288.68 8.377-.539 16.562-2.305 24.712-1.191 5.493-1.772 11.007-.976 16.64 1.146 8.016 2.69 15.93 4.776 23.735.106.358.277.682.404 1.042zM184.442 170.05c.294-.072.575-.227.862-.239 8.769-.111 17.208-2.399 25.769-3.878 6.358-1.09 12.659-2.431 19.136-2.693 11.767-.48 23.031 1.581 33.718 6.503 6.727 3.111 12.822 7.22 18.528 11.943 7.836 6.47 14.867 13.818 22.223 20.79 5.699 5.395 11.607 10.547 18.387 14.542 3.737 2.195 7.645 4.123 11.479 6.165 1.781.957 3.565 1.893 5.323 2.867 3.73 2.073 7.437 4.164 11.165 6.257.173.099.276.293.791.856-2.218-.675-3.986-1.16-5.707-1.702-8.054-2.511-16.101-5.083-23.761-8.657a244.346 244.346 0 01-12.452-6.244c-3.271-1.76-6.411-3.814-9.631-5.672-7.368-4.238-14.167-9.255-20.869-14.426-6.701-5.171-13.193-10.606-20.131-15.453-10.466-7.309-22.061-11.73-35.016-11.411-7.369.191-14.736.771-22.095 1.27-5.904.442-11.785.254-17.719-.818zm161.223 60.222c-.361-.261-.696-.581-1.102-.806a1720.118 1720.118 0 00-10.262-5.491c-3.488-1.844-7.07-3.554-10.483-5.534-7.555-4.4-14.196-9.972-20.504-16.002-7.555-7.217-14.789-14.789-23.03-21.279-6.502-5.13-13.454-9.449-21.218-12.4-12.815-4.872-25.997-5.74-39.421-3.407-7.731 1.339-15.455 2.822-23.173 4.243-.417.081-.819.224-1.237.324 1.804.326 3.58.322 5.326.214 5.735-.378 11.485-.713 17.213-1.235 15.703-1.449 29.811 2.759 42.572 11.79 4.057 2.861 8.016 5.896 11.863 9.021 6.392 5.201 12.928 10.192 19.772 14.765 8.773 5.891 17.642 11.628 27.23 16.112 8.498 3.965 17.248 7.261 26.454 9.685zM362.704 399.8c-.46-.7-1.007-1.348-1.381-2.08-6.639-13.023-9.185-26.959-9.366-41.45-.058-5.661-.278-11.337-.457-17.01-.045-1.168-.213-2.328-.3-3.48-.537-7.179-3.342-13.323-8.328-18.503-2.163-2.22-4.215-4.531-6.4-6.732-4.077-4.088-7.333-8.807-10.478-13.617-.458-.721-.958-1.425-1.373-2.161-3.69-6.682-9.742-10.215-16.668-12.571-1.677-.578-3.428-1.021-5.166-1.402a3619.892 3619.892 0 00-20.983-4.251c-.359-.077-.729-.053-1.207.225 1.198.468 2.369.995 3.591 1.426 4.67 1.657 9.397 3.157 14.008 4.993 3.08 1.231 5.994 2.894 8.942 4.418 1.919 1.011 3.881 1.986 5.654 3.227 10.966 7.808 20.161 17.171 26.037 29.464 2.49 5.234 4.009 10.777 5.025 16.453 1.7 9.399 3.439 18.803 4.765 28.266 1.495 10.604 4.689 20.563 10.119 29.81.347.607.651 1.229.976 1.854-.402-.469-.87-.884-1.185-1.406-5.019-8.062-8.468-16.72-9.981-26.141-1.69-10.501-3.523-20.996-5.253-31.501-2.495-15.236-9.771-27.814-21.159-38.094-2.993-2.692-6-5.447-9.327-7.662-3.729-2.481-7.711-4.681-11.817-6.465-5.593-2.425-11.45-4.244-17.146-6.455-4.694-1.824-9.086-4.208-12.668-7.94.471.191 1.013.287 1.412.572 3.644 2.717 7.921 3.825 12.26 4.714 6.302 1.272 12.597 2.605 18.919 3.879 5.002.997 9.588 3.075 13.917 5.678 2.213 1.326 4.005 3.182 5.507 5.274.68.947 1.36 1.893 1.972 2.894 4.387 7.263 9.639 13.839 15.667 19.819 2.355 2.341 4.414 4.979 6.475 7.597 1.933 2.483 3.09 5.356 3.799 8.428 1.142 5.036 1.441 10.129 1.573 15.266.152 6.14.284 12.277.519 18.405.467 11.887 3.593 23.125 8.584 33.879.308.786.594 1.591.922 2.38zM387.111 310.435c-5.035-2.491-9.808-5.343-14.093-8.983-3.364-2.852-6.867-5.555-10.278-8.35-4.355-3.545-7.74-8.012-11.217-12.365-4.145-5.218-8.09-10.599-12.235-15.817-3.673-4.639-7.862-8.82-12.774-12.115-9.998-6.689-21.11-10.041-33.155-9.834-5.03.082-10.069.653-15.104.979-4.192.269-8.388.782-12.559.645-3.927-.133-7.828-.916-11.726-1.536-.984-.161-1.896-.825-2.758-1.586.287-.012.578-.064.837.003 7.85 2.102 15.401.317 22.948-1.633 2.327-.601 4.598-1.452 6.927-2.073 11.393-3.03 22.885-3.211 34.39-.921 6.922 1.396 12.472 5.245 17.282 10.347 4.701 4.967 8.957 10.298 12.552 16.113 6.068 9.802 13.202 18.752 21.069 27.124 5.932 6.317 12.068 12.431 18.134 18.639.542.484 1.174.895 1.76 1.363zm-6.01-4.141c.069-.075.139-.17.188-.247-2.982-2.997-6.009-5.957-8.925-9.009-9.34-9.746-18.415-19.689-25.572-31.234-4.054-6.515-8.745-12.584-13.989-18.24-5.944-6.4-13.206-9.872-21.789-10.784a93.28 93.28 0 00-5.816-.426c-8.989-.34-17.826.437-26.46 3.236-4.411 1.43-9.045 2.226-13.563 3.299-.524.13-1.052.301-1.575.432.917.42 1.745.504 2.566.464 4.107-.236 8.216-.493 12.325-.75 4.952-.314 9.908-.873 14.875-.941 12.042-.166 23.14 3.123 33.204 9.758 5.146 3.4 9.505 7.721 13.323 12.538 4.724 5.95 9.272 12.025 13.953 17.991 3.488 4.457 7.246 8.655 11.77 12.156 3.066 2.372 5.899 5.028 8.966 7.401 2.063 1.597 4.338 2.91 6.519 4.356zM209.966 200.953c.447.617.982 1.181 1.325 1.828 3.824 7.37 7.606 14.755 10.508 22.562 2.47 6.64 3.165 13.467 2.522 20.404a68.999 68.999 0 00.447 16.703c1.386 9.469-.697 18.321-5.556 26.566-2.217 3.735-4.454 7.468-6.495 11.283-3.405 6.391-5.113 13.362-5.532 20.505-.555 9.681-.602 19.393-.851 29.085-.043 1.425-.023 2.835-.413 4.265-.262-3.456-.586-6.897-.787-10.347-.472-8.214-.985-16.431-1.291-24.668-.375-9.776.498-19.384 4.087-28.593 1.991-5.127 4.078-10.202 6.03-15.352 2.322-6.175 4.146-12.481 5.638-18.923 2.39-10.271 1.785-20.396-1.12-30.387-1.998-6.858-4.459-13.579-6.795-20.327-.519-1.523-1.378-2.916-2.087-4.376.087-.053.238-.14.37-.228zm7.831 17.37c-.168.044-.356.086-.524.13.549 1.832 1.118 3.666 1.647 5.495 2.856 10.068 4.033 20.19 1.933 30.613-2.148 10.703-5.796 20.887-9.958 30.916-2.866 6.916-5.171 13.929-5.853 21.453-.696 7.85-.366 15.661.166 23.493.012.083.167.16.409.388.074-.727.154-1.311.193-1.899.26-3.566.318-7.153.778-10.679.989-7.922 3.102-15.465 7.51-22.285a105.087 105.087 0 006.09-10.712c3.444-6.979 4.894-14.426 3.72-22.159-.872-5.886-1.057-11.702-.416-17.618 1.005-9.289-1.188-18.044-5.22-26.394-.114-.277-.316-.501-.475-.742zM81.366 253.905c-.597-.958-1.234-1.921-1.809-2.898-5.574-9.833-12.365-18.749-20.376-26.706-4.266-4.23-9.281-7.515-14.085-11.064-3.382-2.486-6.86-4.819-10.102-7.475-8.574-7.035-15.439-15.427-19.911-25.659-2.969-6.752-5.893-13.54-8.884-20.273-3.075-6.906-6.63-13.513-11.842-19.084-3.387-3.63-7.028-6.98-11.035-9.938-2.81-2.081-5.48-4.332-8.199-6.506a3.327 3.327 0 01-1.127-1.564c1.149.749 2.32 1.48 3.422 2.286 2.265 1.618 4.503 3.295 6.789 4.915 4.302 3.069 8.725 5.947 12.887 9.186 7.814 6.08 14.22 13.364 18.314 22.496 2.83 6.309 5.64 12.616 8.449 18.923 2.677 6.008 6.051 11.576 10.903 16.069 3.584 3.303 7.397 6.364 11.256 9.369 3.234 2.532 6.725 4.744 9.958 7.277 5.164 4.034 9.76 8.624 12.967 14.441 2.015 3.674 3.901 7.418 5.744 11.177 2.148 4.382 4.209 8.817 6.312 13.235.254.516.483 1.07.717 1.584-.132.088-.239.139-.348.209zm-6.461-11.76c-.066-.762-.021-1.002-.104-1.194-2.882-6.192-5.7-12.418-9.923-17.869-4.333-5.583-10.024-9.651-15.577-13.869-3.827-2.919-7.705-5.742-11.486-8.718-5.767-4.524-10.216-10.161-13.34-16.785-2.488-5.254-4.782-10.61-7.138-15.953-2.359-5.322-4.824-10.594-8.24-15.35-4.975-6.894-11.6-12.016-18.274-17.061-.113-.093-.321-.053-.604-.082 1.993 2.08 3.902 3.989 5.698 6.008 4.656 5.208 7.94 11.277 10.769 17.586 3.01 6.736 5.872 13.538 8.903 20.276 3.265 7.251 7.335 14.013 13.05 19.655 4.136 4.094 8.461 7.942 13.244 11.305 5.2 3.671 10.443 7.326 15.295 11.411 6.3 5.314 11.423 11.754 16.125 18.518.387.611.862 1.169 1.602 2.122zM86.671 124.675c.923-.642 1.81-1.327 2.75-1.946 6.524-4.34 13.01-8.704 18.869-13.928 2.582-2.31 4.817-5.023 7.347-7.42 3.319-3.133 6.822-6.065 10.162-9.196 4.74-4.46 9.366-9.012 14.05-13.518 9.929-9.526 21.913-14.149 35.527-14.728 2.071-.096 4.195.1 6.268.391 8.573 1.217 16.712 3.9 24.683 7.22 8.364 3.481 16.808 6.767 25.888 8.014 1.752.24 3.482.7 5.281 1.271-.535.048-1.073.116-1.607.143-9.343.543-18.119-1.899-26.814-4.924-6.745-2.338-13.524-4.536-20.565-5.76-13.199-2.299-25.193.22-36.103 8.34-7.575 5.642-15.584 10.73-23.445 15.974-5.191 3.475-9.803 7.478-13.752 12.385-3.154 3.926-6.973 7.356-11.478 9.695-5.56 2.886-11.25 5.453-16.895 8.167-.057-.047-.111-.114-.166-.18zm143.233-44.263c.013-.121.045-.24.059-.382-.193-.101-.363-.24-.563-.281-7.635-1.204-14.781-4.01-21.878-6.894-7.039-2.858-14.104-5.657-21.604-6.989-3.269-.576-6.615-1.202-9.909-1.127-13.549.34-25.5 4.844-35.439 14.267-5.491 5.22-10.538 10.893-16.493 15.658-4.666 3.732-8.648 8.166-12.872 12.371-3.769 3.742-8.222 6.781-12.38 10.135-.534.436-1.065.832-1.597 1.247 7.279-2.12 12.898-6.592 17.569-12.181 3.671-4.384 7.66-8.286 12.41-11.438 7.374-4.866 14.73-9.754 22.088-14.662 3.087-2.055 6.057-4.367 9.265-6.205 9.471-5.409 19.716-6.186 30.253-4.403 6.501 1.108 12.735 3.251 19.025 5.237 5.516 1.764 11.114 3.332 16.716 4.86 1.701.54 3.556.564 5.35.787zM242.68 242.873c.27.558.584 1.08.791 1.652 2.614 7.226 5.396 14.408 7.758 21.711.963 2.976 1.389 6.224 1.538 9.383.419 8.738-.175 17.395-3.383 25.664-1.6 4.104-3.498 8.116-5 12.251-2.687 7.362-4.661 14.939-6.118 22.651-.921 4.846-1.088 9.708-.38 14.598.43 3.003.839 6.005.98 9.04.554 10.427-1.941 20.319-5.87 29.862-.899 2.215-2.246 4.222-3.518 6.298 4.802-12.108 4.605-24.642 3.398-37.278-.827-8.739-1.348-17.488-.415-26.273.956-8.804 3.374-17.132 7.165-25.117a131.76 131.76 0 007.285-19.062c1.365-4.598 1.517-9.318 1.509-14.055-.043-10.232-2.253-20.03-5.606-29.637-.173-.508-.346-1.015-.498-1.521a1.92 1.92 0 01.364-.167zm-10.473 146.14c.283-.176.388-.206.412-.244a67.26 67.26 0 001.102-2.807c3.96-11.255 5.575-22.727 3.39-34.584-.964-5.181-.663-10.356.311-15.524 1.428-7.633 3.414-15.127 6.075-22.431 1.504-4.154 3.379-8.149 5.021-12.249 3.268-8.262 3.677-16.917 3.503-25.651-.09-4.745-1.415-9.187-2.926-13.607-.076-.252-.278-.477-.419-.695-.276.911-.195 1.715-.135 2.538.263 3.639.629 7.269.747 10.935.122 4.422-.105 8.87-1.356 13.152a131.496 131.496 0 01-7.64 19.945c-3.473 7.262-5.774 14.847-6.811 22.846-1.16 9.007-.763 17.968.078 26.974.741 7.975 1.359 15.958.08 23.933-.428 2.406-.939 4.824-1.432 7.469zM116.585 154.165c1.142 1.014 2.327 2.012 3.445 3.064 5.148 4.789 10.971 8.564 17.115 11.984 3.98 2.22 8.314 3.966 11.496 7.412 1.784 1.937 3.632 3.839 5.063 6.026 3.503 5.315 7.317 10.377 11.727 14.989 7.012 7.345 10.286 16.312 11.006 26.306.224 3.024.284 6.051.16 9.08-.661 15.958 2.919 31.162 8.038 46.093.265.802.403 1.653.586 2.468-.172.085-.346.189-.518.274-.357-.302-.844-.535-1.09-.927-6.968-11.587-12.969-23.464-14.489-37.234-1.176-10.735-2.724-21.425-5.206-31.965-1.182-5.04-3.008-9.777-5.681-14.213-3.496-5.784-6.817-11.674-11.66-16.452-2.857-2.821-5.939-5.44-9.005-8.017-5.68-4.781-12.078-8.717-17.221-14.158-1.385-1.447-2.726-2.91-4.088-4.375.093-.113.206-.224.322-.355zm15.034 12.977l-.2.163c.607.45 1.257.883 1.841 1.371 4.012 3.305 8.167 6.421 11.973 9.951 7.166 6.627 11.906 15.028 16.368 23.564a24.104 24.104 0 012.077 5.682c1.288 5.601 2.597 11.205 3.555 16.854 1.368 8.039 2.424 16.128 3.647 24.193.794 5.245 2.217 10.33 4.57 15.1 2.573 5.222 5.275 10.375 7.955 15.546.204.408.601.714.892 1.07.112-.703-.063-1.19-.216-1.696-1.675-5.416-3.478-10.784-4.965-16.242-2.62-9.575-3.731-19.343-3.394-29.291a87.458 87.458 0 00-.174-9.551c-.684-9.745-3.898-18.502-10.722-25.686-4.445-4.676-8.36-9.748-11.807-15.201-2.46-3.924-5.727-7.134-9.777-9.463-3.82-2.184-7.736-4.235-11.623-6.364zM25.305 113.817c1.621-2.694 3.747-4.928 6.163-6.806 3.415-2.675 6.976-5.171 10.569-7.583 5.478-3.69 10.716-7.63 15.654-12.028 2.828-2.51 5.812-4.963 9.083-6.816 5.069-2.874 9.472-6.429 13.373-10.667 7.781-8.478 17.413-13.87 28.372-17.046 3.069-.872 6.11-1.87 9.231-2.452 11.984-2.214 22.986-7.018 33.818-12.37 1.398-.695 2.759-1.435 4.154-2.11.646-.322 1.343-.557 2.153-.496-.323.172-.629.365-.952.536-10.178 5.133-19.429 11.605-27.897 19.197-6.603 5.924-14.275 10.106-22.092 14.11-8.119 4.158-16.626 7.316-25.282 10.133-9.734 3.177-18.982 7.404-26.864 14.055-5.492 4.628-11.349 8.627-17.81 11.748-4.015 1.941-7.477 4.672-10.615 7.824-.315.295-.706.521-1.058.771zm117.53-70.387c-.05-.107-.123-.196-.173-.303-.746.312-1.509.582-2.259.934-6.383 2.946-13.013 5.11-19.876 6.558-2.44.508-4.832 1.143-7.26 1.734-13.36 3.299-25.044 9.401-34.328 19.81-2.189 2.452-4.769 4.742-7.572 6.417-5.61 3.371-10.852 7.147-15.67 11.578-4.93 4.521-10.526 8.159-16.104 11.819-.831.548-1.626 1.141-2.44 1.712 4.6-1.473 9.903-4.834 14.897-8.982 1.493-1.236 2.986-2.473 4.532-3.623 7.784-5.886 16.585-9.729 25.787-12.694 8.885-2.855 17.541-6.284 25.84-10.607 6.337-3.297 12.583-6.706 18.131-11.287 5.193-4.291 10.567-8.36 15.848-12.519.202-.183.425-.365.647-.547zM60.889 138.533c1.132 1.116 2.416 2.144 3.392 3.386 3.642 4.738 7.066 9.617 10.776 14.301 3.42 4.307 6.906 8.58 10.712 12.518 3.047 3.167 6.518 5.969 10.023 8.651 5.68 4.373 10.112 9.783 13.957 15.746 3.669 5.68 5.986 11.814 7.412 18.471 4.332 20.261 12.663 38.743 25.475 55.108.363.445.659.945 1.119 1.645-17.666-13.796-29.719-31.002-35.527-52.413-.936-3.443-1.956-6.873-2.745-10.363-2.629-11.698-7.746-22.015-16.045-30.757-9.663-10.187-17.9-21.556-26.803-32.38-.873-1.048-1.569-2.241-2.331-3.38.204-.204.405-.367.585-.533zm77.776 125.063l.484-.339c-.962-1.383-1.968-2.73-2.908-4.132-9.785-14.813-16.543-30.89-20.206-48.286-.678-3.172-1.474-6.397-2.787-9.347-4.618-10.41-11.626-19-20.776-25.787-.495-.356-1.06-.618-1.601-.918-.005.449.12.625.245.801.345.423.67.844 1.037 1.248 6.617 7.204 10.691 15.742 13.126 25.134.998 3.837 1.997 7.674 3.018 11.493 4.499 16.603 11.852 31.639 24.115 43.967 2.096 2.07 4.175 4.118 6.253 6.166zM265.492 433.747c.031-.507.022-1.018.113-1.519 1.384-7.393 1.302-14.832.59-22.293-.417-4.33-.896-8.665-1.273-12.99-.974-10.918 1.063-21.326 5.525-31.285 3.271-7.282 6.736-14.464 9.89-21.799 3.097-7.177 5.101-14.65 5.026-22.557-.059-5.048-.201-10.084-.3-15.137-.036-1.453-.032-2.902.366-4.413.2 1.654.482 3.295.601 4.94.819 11.637.575 23.289-.26 34.922-.593 8.452-3.234 16.37-6.593 24.113a162.378 162.378 0 00-4.975 13.009c-2.164 6.435-3.187 13.089-3.145 19.911.047 7.782-.331 15.522-1.844 23.187-.825 4.101-1.884 8.096-3.721 11.911zm1.699-7.891c.219-.141.409-.203.442-.323.191-.674.359-1.331.51-2.01 1.716-8.256 2.054-16.612 2.069-25 .006-4.675.433-9.286 1.448-13.857 1.641-7.305 4.402-14.19 7.379-20.992 4.06-9.224 6.039-18.862 6.261-28.883-.002-.388-.126-.768-.196-1.286-.251.261-.425.365-.458.485-2.429 9.45-7.151 17.953-11.069 26.782-2.225 5.021-4.276 10.141-5.909 15.364-2.64 8.51-2.49 17.283-1.505 26.079.865 7.559 1.668 15.132.894 22.75-.006.264.087.56.134.891z"/><path d="M87.076 184.609c-3.3-1.478-6.723-3.152-10.233-4.569-6.588-2.669-11.893-6.922-15.849-12.795-2.89-4.314-5.493-8.824-8.383-13.139-1.897-2.826-4.082-5.436-6.155-8.136-.216-.288-.586-.468-1.111-.521.26.455.457.924.762 1.343a129.567 129.567 0 0113.36 21.217c3.141 6.259 7.363 11.73 12.802 16.058 4.175 3.322 8.89 5.944 13.414 8.832 2.072 1.312 4.236 2.512 6.283 3.862-6.442-3.103-12.732-6.497-18.463-10.773-6.11-4.559-10.915-10.313-14.369-17.114-4.541-8.953-10.044-17.289-16.29-25.128-3.296-4.132-6.866-7.984-11.141-11.113a6.097 6.097 0 01-.838-.799c-.147-.158-.225-.39-.142-.811 1.853 1.454 3.824 2.756 5.519 4.357 4.343 4.074 8.84 8.041 12.733 12.519 3.036 3.472 5.244 7.656 7.876 11.496 2.666 3.904 5.155 7.933 8.155 11.564 3.726 4.522 8.843 7.205 14.24 9.345 1.294.519 2.611 1.02 3.808 1.693 1.468.822 2.855 1.841 4.022 2.612zM319.356 202.678c1.289.376 2.626.675 3.887 1.13 4.591 1.629 9.2 3.28 13.763 4.988 6.271 2.372 12.917 3.27 19.396 4.805 5.721 1.356 11.426 2.874 17.119 4.309.319.073.63.227.886.722-.815-.021-1.653-.004-2.462-.086-7.593-.811-15.192-.561-22.805-.578-5.103-.007-10.213-.546-15.324-.881-.729-.053-1.438-.309-2.135-.482.02-.202.059-.381.079-.584 2.849.289 5.67.657 8.53.845 3.023.184 6.058.247 9.075.288 2.957.034 5.908-.075 8.844-.042 2.936.032 5.883.168 8.85.101-8.022-2.426-16.338-3.555-24.431-5.683-6.479-1.739-22.253-7.625-23.272-8.852zM239.618 205.879c10.532-.585 20.611-3.339 30.694-6.134.168-.044.414.144.717.583-1.852.547-3.686 1.117-5.536 1.643-1.871.525-3.743 1.07-5.627 1.532-1.949.497-3.91.91-5.88 1.813.758-.026 1.532-.008 2.294-.074 6.031-.49 12.067-1.021 18.118-1.51.886-.073 1.795.019 2.678.17-2.815 1.388-31.897 2.909-37.458 1.977zM144.716 230.548c-1.265-2.211-2.424-4.472-3.779-6.61-4.296-6.743-9.549-12.706-15.117-18.394a14.985 14.985 0 01-1.038-1.229c-.107-.153-.17-.343.059-.79 2.25 2.372 4.542 4.727 6.747 7.135 5.202 5.672 9.525 11.949 13.187 18.71.258.475.411.981.606 1.47-.236-.085-.451-.189-.665-.292z"/><path d="M144.716 230.548c.214.103.429.207.665.292.913 1.664 1.844 3.351 2.757 5.015-.152.087-.304.174-.437.283-1.257-1.7-2.493-3.397-3.751-5.076-3.988-5.365-8.904-9.824-14.142-13.927-.169-.14-.317-.298-.369-.589 1.955.852 3.505 2.274 5.146 3.604 3.454 2.78 6.413 5.999 9.098 9.517.25.352.676.579 1.033.881z"/><path d="M99.133 30.117c-.663.893-1.232 1.876-2.025 2.653-2.154 2.109-4.328 4.215-6.63 6.186-7.087 6.059-14.172 12.097-22.106 17.049-12.574 7.829-26.155 13.31-40.328 17.384-5.237 1.51-10.395 3.253-15.67 4.535-11.22 2.74-20.594 8.404-28.489 16.79-5.49 5.811-11.222 11.395-16.84 17.071-.272.259-.45.608-.967 1.27 6.002.405 11.67.674 17.314 1.185 5.725.519 11.443 1.099 17.137 1.922 5.674.82 11.314 1.964 17.172 2.987 1.188-1.452 2.498-2.891 3.616-4.451 6.392-8.865 14.519-15.92 23.164-22.453 5.152-3.887 10.43-7.618 14.83-12.357 3.005-3.247 5.765-6.703 8.676-10.04 3.861-4.447 7.577-9.072 11.698-13.267 5.234-5.308 11.734-8.608 18.852-10.744 8.212-2.474 16.702-3.655 25.134-5.065 7.061-1.182 14.144-2.179 21.187-3.383 3.76-.64 7.445-1.552 11.177-2.316.855-.179 1.741-.252 2.61-.368.066.15.113.297.179.446-.342.353-.686.727-1.048 1.078-5.637 5.45-11.476 10.676-16.85 16.357-13.512 14.246-29.689 24.383-47.832 31.566-16.548 6.548-33.077 13.119-49.625 19.667-8.275 3.284-15.523 8.122-21.925 14.27-.429.406-.765.902-1.44 1.712 17.912 3.94 35.467 7.782 53.28 11.691 2.441-1.528 5.044-3.04 7.525-4.748 2.921-2.031 5.846-4.102 8.55-6.4 1.451-1.221 2.299-3.135 3.679-4.465 2.672-2.587 5.418-5.105 8.31-7.445 2.403-1.961 4.971-3.721 7.572-5.417 4.682-3.077 8.432-7.045 11.764-11.504 3.947-5.295 7.876-10.613 12.067-15.699 5.333-6.481 11.949-11.322 19.942-14.043 11.904-4.039 23.985-5.406 36.153-1.395 5.589 1.853 10.973 4.318 16.366 6.702 9.789 4.32 19.413 9.053 29.657 12.317 2.096.661 4.274 1.127 6.407 2.038-2.105.42-4.197.921-6.309 1.217-5.798.8-11.632.76-17.458.23-5.037-.45-10.049-.958-15.08-1.468-9.012-.914-18.008-.786-26.97.428-13.164 1.768-24.992 6.672-35.461 14.878a4051.468 4051.468 0 01-14.858 11.619c-6.252 4.877-13.185 8.42-20.59 11.18-6.916 2.565-13.735 5.384-20.54 8.266-2.602 1.104-5.044 2.632-8.066 4.245 1.202.428 1.826.716 2.462.882 5.869 1.514 11.737 3.028 17.614 4.461.917.215 2.071.312 2.902-.032 6.455-2.653 12.247-6.413 17.198-11.341 2.909-2.91 5.5-6.117 8.241-9.187 7.161-7.99 16.352-11.855 26.748-13.312 6.669-.936 13.368-.971 19.971.352 10.103 2.025 20.294 2.793 30.574 2.877 7.549.051 14.818 1.441 21.731 4.531 5.077 2.271 9.741 5.193 14.018 8.71 6.404 5.283 12.621 10.813 19.072 16.04 7.018 5.672 14.461 10.775 22.368 15.129 2.165 1.2 4.326 2.439 6.486 3.679.559.322 1.349.586.901 1.786-.687-.07-1.437-.125-2.16-.24-7.987-1.157-15.544-3.74-22.788-7.19-7.498-3.557-14.816-7.484-22.235-11.217-10.834-5.488-21.883-10.466-34.102-11.971-14.699-1.797-29.162-1.101-43.18 4.255-2.103.807-4.273 1.465-6.374 2.252-6.3 2.341-12.795 3.173-19.478 2.638-6.763-.543-13.527-.474-20.238.478-2.527.357-5.008 1.064-7.499 1.669-1.716.418-3.386.983-5.087 1.852.63.227 1.234.513 1.87.68 15.264 4.079 30.015 9.597 44.346 16.235 6.551 3.033 12.871 6.532 19.323 9.738a23.062 23.062 0 004.787 1.71c10.455 2.592 20.602 1.171 30.74-1.965 7.42-2.309 14.932-4.507 22.559-5.836 17.852-3.109 35.123-.908 51.546 7.045 8.405 4.078 15.57 9.908 22.337 16.249 2.498 2.336 4.883 4.782 7.383 7.098.709.664 1.632 1.227 2.545 1.483 15.199 4.113 29.538 10.467 43.875 16.841 4.181 1.853 8.126 4.213 12.225 6.262 2.292 1.151 4.641 2.144 6.962 3.217.741.34 1.456.739 2.619 1.347-12.007 2.641-23.567 4.101-35.379 4.026 3.881 4.395 9.098 6.904 13.232 11.018-.648-.045-1.281-.048-1.921-.174-4.595-.793-9.161-1.664-13.762-2.396-8.797-1.423-17.137-4.331-25.268-7.891-4.124-1.807-8.144-3.827-12.218-5.731-.838-.391-1.694-.804-2.587-1.058-9.375-2.768-18.748-5.556-28.153-8.225-5.954-1.685-12.07-2.163-18.235-1.767-1.869.116-3.735.192-5.59.372-8.083.792-16.149.607-24.143-.877-.603-.102-1.213-.123-2.082-.212.395.735.645 1.291.984 1.774 6.411 9.837 13.422 19.203 20.894 28.249 1.236 1.493 2.71 2.459 4.499 3.13 5.765 2.136 11.614 1.832 17.445.504 7.836-1.777 15.265-4.78 22.773-7.55 8.23-3.043 16.64-3.64 25.239-2.074 6.795 1.241 12.896 4.085 18.387 8.112 13.095 9.555 23.758 21.354 31.798 35.458 5.512 9.643 11.415 19.061 18.327 27.785 2.152 2.729 4.592 5.242 6.878 7.862.494.561.986 1.141 1.332 2.156-.766-.098-1.61-.02-2.295-.314-4.399-1.916-8.893-3.699-13.115-5.944-3.679-1.965-7.154-4.339-10.561-6.766-4.702-3.356-8.598-7.609-12.409-11.895-5.847-6.553-11.713-13.109-18.704-18.452-4.622-3.531-9.551-6.664-14.51-9.699-3.036-1.859-6.342-3.276-9.606-4.71-4.888-2.128-10.041-3.243-15.319-3.738-3.943-.379-7.893-.678-11.844-.976-11.037-.875-21.927-2.388-32.531-6.526.302.439.538.933.887 1.315 6.339 7.339 12.9 14.496 18.907 22.087 3.148 3.973 6.938 6.052 11.648 6.917a49.83 49.83 0 006.482.699c4.187.179 8.397.137 12.586.296 8.459.328 16.186 2.847 22.978 7.924 4.024 3.001 7.383 6.71 9.927 11.01 3.69 6.274 8.296 11.783 13.138 17.173 10.838 12.082 16.341 26.236 16.219 42.514-.039 4.813-.081 9.647.105 14.443.297 7.134.736 14.262 1.257 21.398.41 5.615 1.715 11.054 3.501 16.38.127.36.232.738.316 1.114.028.125-.069.279-.134.517-1.173.289-1.616-.776-2.124-1.4a251.053 251.053 0 01-6.876-9.087c-8.818-12.265-13.971-26.056-17.093-40.744-1.713-8.053-3.738-16.057-5.893-23.992-2.317-8.543-5.916-16.522-11.54-23.462a48.794 48.794 0 00-9.466-8.901c-6.281-4.495-12.986-8.217-19.913-11.573-5.739-2.787-11.302-5.903-16.023-10.281-.28-.253-.63-.431-1.318-.889.362.854.495 1.357.761 1.751 11.128 17.072 18.772 35.873 26.995 54.405 1.861 4.19 3.763 8.384 6.059 12.312 3.9 6.621 7.972 13.159 12.267 19.514 6.989 10.385 11.696 21.723 14.843 33.759 1.892 7.296 2.115 14.749 1.233 22.233a184.082 184.082 0 01-7.637 34.99c-2.473 7.67-4.355 15.542-6.551 23.301-.512 1.826-1.204 3.614-1.817 5.429-.162-.016-.342-.055-.503-.071-.155-.485-.373-.956-.467-1.435-.759-4.385-2.129-8.586-3.792-12.715-4.113-10.154-8.162-20.343-10.92-30.973-2.733-10.483-4.927-21.035-4.51-31.976.329-8.867 1.648-17.633 3.025-26.373.594-3.839 1.269-7.67 1.823-11.512 1.797-12.27.665-24.245-4.363-35.636-5.327-12.074-10.994-24.019-16.515-35.99a3.426 3.426 0 00-1.374-1.548c.545 2.076 1.028 4.146 1.615 6.206 2.198 7.511 3.401 15.165 2.972 23.002-.41 7.654.252 15.213 2.15 22.652 2.266 8.844 1.998 17.718.139 26.572-1.973 9.374-4.44 18.596-8.586 27.259-2.075 4.342-4.383 8.578-6.631 12.821-3.563 6.743-6.48 13.755-9.025 20.927-.376 1.085-.828 2.121-1.608 3.164-.116-.461-.273-.926-.307-1.398-.101-1.011-.203-2.022-.203-3.022.129-8.908-1.208-17.658-2.482-26.422-.924-6.381-1.556-12.814-1.821-19.251-.425-10.495 2.087-20.549 5.984-30.176 3.461-8.55 7.432-16.904 11.091-25.393 1.787-4.126 3.538-8.296 4.931-12.564 1.744-5.315 2.181-10.823 1.171-16.355-.924-4.973-1.996-9.899-3.128-14.832-.281-1.253-.999-2.428-1.66-3.557-6.809-11.754-15.568-21.992-24.746-31.926-3.255-3.535-6.487-7.088-9.739-10.643-.46-.496-.94-.994-1.677-1.374.116.46.168.956.371 1.364 1.987 3.958 3.711 8.093 6.09 11.804 9.786 15.201 10.283 31.215 4.615 47.828-1.397 4.104-3.111 8.115-4.685 12.161-1.691 4.381-2.11 8.911-1.189 13.515.571 2.814 1.141 5.648 1.923 8.402 3.218 11.329 1.504 22.178-3.298 32.674-1.576 3.453-3.561 6.722-5.448 10.022-3.043 5.243-6.2 10.394-9.225 15.66-.892 1.543-1.454 3.262-2.19 4.881-.209.449-.555.842-1.102 1.195.076-.748.15-1.475.246-2.22 1.356-10.335 2.672-20.674 1.629-31.109-.661-6.558-1.753-13.099-2.577-19.654-.585-4.693-1.209-9.411-1.525-14.138-.703-10.156 1.397-19.782 5.855-28.904 2.498-5.095 5.207-10.066 7.802-15.111 3.922-7.665 6.194-15.763 6.05-24.393-.062-3.007-.338-6.117-1.15-8.976-1.84-6.412-4.037-12.719-6.234-19.025-.521-1.502-1.503-2.888-2.431-4.206-5.796-8.06-11.701-16.048-17.475-24.126-2.575-3.588-5.197-7.12-8.63-10.102.161.425.254.924.502 1.296 2.02 3.022 3.816 6.246 6.148 9.014 5.757 6.83 9.545 14.359 10.671 23.374 1.046 8.394 2.587 16.736 4.151 25.06 1.708 9.114.69 17.932-2.155 26.645-2.94 9.052-6.897 17.653-11.533 25.919-5.237 9.349-8.69 19.226-9.613 29.931-.414 4.878-.787 9.76-1.201 14.638-.056.749-.213 1.489-.697 2.236-.281-1.254-.564-2.487-.823-3.758-1.538-7.77-3.157-15.549-4.612-23.331-3.506-18.748-2.006-37.132 4.212-55.139 2.667-7.772 5.514-15.506 8.143-23.302 5.561-16.563 3.579-32.626-3.339-48.331a124.6 124.6 0 00-3.989-8.162c-.566-1.058-1.403-2.061-2.344-2.851-7.512-6.437-15.575-12.072-24.233-16.87-5.644-3.124-11.215-6.363-16.942-9.271-10.85-5.531-21.931-10.594-33.467-14.602-5.718-1.989-11.495-3.799-17.246-5.669a5.145 5.145 0 00-2.469-.209c.813.837 1.626 1.675 2.441 2.493 6.585 6.526 14.324 11.333 22.658 15.301 4.186 1.997 8.259 4.308 12.192 6.79 2.207 1.387 4.334 3.154 5.901 5.212 3.966 5.179 8.892 9.332 13.914 13.353 7.136 5.725 11.955 12.95 14.75 21.603 3.4 10.552 4.585 21.389 4.692 32.403.073 6.519.063 13.051.133 19.59.106 7.809 1.1 15.504 2.695 23.116.329 1.585.575 3.182.518 4.952-1.481-1.702-2.986-3.365-4.422-5.103-6.1-7.273-11.674-14.902-16.65-23-4.713-7.664-7.627-15.962-8.825-24.861-.942-7.016-1.699-14.033-2.743-21.039-.682-4.54-1.635-9.025-2.59-13.491-2.187-10.224-7.368-18.711-15.067-25.718-4.487-4.068-9.135-7.949-13.506-12.148-4.518-4.357-8.783-8.995-13.164-13.502-1.794-1.835-3.543-3.707-5.386-5.466-1.953-1.872-4.421-2.898-6.989-3.546-13.99-3.563-28.007-7.046-42.021-10.57-.578-.141-1.182-.222-2.245-.412.524.666.708 1.072 1.013 1.287 4.923 3.378 8.843 7.797 12.765 12.196 5.314 5.969 10.537 12.031 15.896 17.963 4.808 5.326 10.537 9.622 16.148 14.07 3.042 2.411 5.92 5.03 8.986 7.403 1.593 1.203 3.396 2.141 5.205 3.018 6.194 2.935 11.118 7.313 15.111 12.822 5.73 7.909 10.23 16.47 14.098 25.416 1.885 4.355 3.944 8.606 5.914 12.929.401.878.716 1.788 1.053 2.7l-.456.26c-2.923-2.971-5.776-6.037-8.791-8.915-3.072-2.924-6.396-5.568-10.553-8.051 1.404 8.287 2.713 16.095 5.26 23.58 2.531 7.442 5.61 14.716 8.615 22.512-.957-.423-1.646-.677-2.243-1.023-3.936-2.257-7.405-5.079-10.683-8.188-5.321-5.092-10.869-9.962-16.055-15.183-3.223-3.246-6.036-6.9-8.878-10.474-5.594-7.039-9.271-15.047-11.576-23.711-.589-2.244-1.28-4.478-1.956-6.874-1.213-.715-2.461-1.495-3.76-2.178-12.976-6.705-23.746-15.84-31.28-28.485-3.698-6.214-7.265-12.495-10.812-18.775-4.725-8.359-10.092-16.211-16.915-23.007-4.024-4.001-8.819-6.835-13.73-9.538-.735-.401-1.59-.63-2.43-.797-14.847-3.16-29.878-4.909-45.036-5.61-.447-.025-.904.052-1.785.085.676.579 1.088.947 1.522 1.297 4.9 3.804 10.633 6.06 16.136 8.761 7.524 3.703 14.868 7.775 21.625 12.809 3.32 2.48 6.072 5.535 8.508 8.885 5.411 7.429 10.017 15.347 14.058 23.595 2.18 4.468 4.38 8.937 6.799 13.265 4.006 7.183 9.634 12.878 16.363 17.582 3.813 2.653 7.616 5.407 11.126 8.437 6.291 5.394 10.454 12.247 12.64 20.266 1.729 6.3 3.374 12.611 5.125 18.892.553 1.996 1.316 3.931 1.662 6.15-.499-.52-1.041-1.004-1.518-1.542-4.557-5.178-8.932-10.541-13.714-15.517-7.197-7.528-15.079-14.349-23.829-20.054-5.017-3.265-9.985-6.607-14.978-9.91-9.85-6.531-17.74-14.884-22.883-25.551-4.148-8.607-7.974-17.365-11.738-26.136-2.756-6.424-5.408-12.879-8.806-19.021-5.055-9.127-12.285-16.127-20.989-21.685-.805-.51-1.88-.783-2.834-.839-2.865-.127-5.757-.196-8.627-.079-14.449.556-28.876 1.297-43.33 1.709-12.04.351-24.075.457-36.12.46-17.824.029-35.56 1.19-53.157 4.202a85.3 85.3 0 01-4.615.614c-.433.038-.905-.132-1.307-.194-1.309-1.99-1.176-3.099.806-3.919 1.705-.705 3.563-1.108 5.388-1.393 13.378-2.072 26.823-3.199 40.39-3.109 13.443.098 26.889-.028 40.322-.237 8.71-.138 17.402-.685 26.1-.905 10.95-.277 21.906-.411 32.868-.606.471-.014.924-.049 1.273-.075 1.907-2.889 3.778-5.639 5.573-8.437 5.707-8.954 8.515-18.917 9.92-29.329.496-3.685.995-7.39 1.393-11.106 1.101-10.442 4.695-19.897 11.02-28.298 2.996-3.983 6.722-7.3 10.39-10.643C8.591 18.28 15.502 10.734 20.945 1.957c.438-.69.973-1.33 1.449-1.997.18.04.38.08.56.118.002.776.124 1.585.008 2.329-2.064 12.283-4.803 24.376-10.887 35.435C8.698 43.971 5.36 50.103 2.001 56.234c-.174.309-.292.664-.183 1.206.532-.415 1.084-.829 1.596-1.246 6.577-5.458 14.046-9.048 22.417-10.873 7.226-1.594 14.547-2.73 21.924-3.002 14.756-.565 28.666-4.462 42.29-9.755a179.71 179.71 0 016.571-2.396c.76-.25 1.583-.308 2.374-.453-.07.075.036.249.143.402zm89.423 140.636c.026.146.034.269.06.415 2.639.145 5.25.369 7.897.433 3.644.104 7.3.087 10.95.131 7.544.091 14.772 1.682 21.805 4.396 6.167 2.401 12.071 5.368 17.802 8.644 7.949 4.542 15.868 9.183 23.666 14.016 10.697 6.637 21.493 13.101 32.763 18.715 8.415 4.181 16.929 8.188 26.054 10.604 6.897 1.843 13.908 3.166 20.876 4.71.078.028.196-.123.325-.192-.593-.386-1.189-.753-1.74-1.156-2.856-2.025-5.81-3.896-8.527-6.091-6.772-5.484-12.791-11.749-18.717-18.127-8.758-9.442-17.446-18.978-27.226-27.401-5.67-4.882-11.712-9.312-18.57-12.335-17.413-7.645-35.419-9.451-53.997-5.028-2.866.689-5.721 1.461-8.574 2.213-8.097 2.138-16.012 5.092-24.454 5.807-.164.004-.282.155-.393.246zm119.265 175.059c-.107.05-.237.119-.344.169-.002.224-.047.465.013.675 1.879 8.642 1.368 17.286-.021 25.944a1238.924 1238.924 0 00-3.194 21.192c-1.651 11.631-1.563 23.235 1.046 34.727.765 3.323 1.528 6.667 2.356 9.976 2.657 10.415 6.65 20.353 10.427 30.392 1.174 3.12 1.945 6.383 2.886 9.581.136.463.273.926.561 1.915.352-1.455.565-2.352.799-3.247 2.157-8.171 4.057-16.429 6.551-24.505a181.672 181.672 0 006.92-32.756c.788-6.759.659-13.529-.913-20.159-2.942-12.241-7.546-23.792-14.644-34.311-3.458-5.148-6.762-10.402-10.111-15.621-.829-1.288-1.568-2.649-2.332-3.972zm-25.723-190.761c.031-.099.061-.198.09-.277-.709-.459-1.371-.976-2.106-1.377-2.456-1.351-4.966-2.565-7.373-3.993-9.618-5.794-18.296-12.818-26.803-20.111-4.713-4.051-9.519-7.988-14.539-11.621-8.083-5.841-17.243-8.914-27.21-9.068-11.984-.194-23.87-1.155-35.675-3.312-7.716-1.415-15.498-.776-23.126 1.166-5.637 1.428-10.929 3.688-15.322 7.55-2.556 2.251-5.026 4.655-7.228 7.248-3.922 4.645-7.987 9.091-13.18 12.381-.524.335-.961.822-1.433 1.243 2.63-.162 5.042-.795 7.482-1.099 6.328-.807 12.707-1.099 19.064-.577 7.491.617 14.731-.322 21.726-3.063 1.381-.533 2.76-1.047 4.19-1.453 4.69-1.361 9.335-3.074 14.136-3.914 22.423-3.891 43.53.149 63.454 11.009a560.745 560.745 0 0023.378 12.027c5.856 2.839 11.922 5.23 18.273 6.814.758.178 1.481.293 2.202.427zM80.852 251.935c.06-.403.138-.558.09-.685-2.053-6.925-4.021-13.881-6.159-20.773-2.202-7.062-6.186-13.06-11.827-17.817-3.779-3.2-7.857-6.063-11.91-8.965-5.425-3.877-10.276-8.371-13.695-14.106-3.108-5.174-5.93-10.564-8.605-15.979-4.098-8.296-8.628-16.349-14.073-23.842-2.47-3.415-5.233-6.573-8.7-9.007-2.783-1.956-5.605-3.916-8.602-5.568-5.7-3.17-11.506-6.107-17.283-9.122-.252-.128-.63-.023-1.303-.03 7.152 7.36 11.458 16.023 15.349 24.951.96 2.2 1.77 4.486 2.75 6.689 3.859 8.638 7.586 17.365 11.722 25.889 4.976 10.303 12.654 18.329 22.134 24.68 5.104 3.416 10.259 6.735 15.336 10.21 3.208 2.183 6.412 4.407 9.385 6.893 8.868 7.35 17.01 15.423 23.82 24.769.471.578.988 1.121 1.57 1.813zM27.149 109.941c.147.158.296.295.444.453.39-.225.817-.407 1.19-.675 4.974-3.537 10.406-6.171 16.062-8.394 14.82-5.825 29.559-11.842 44.442-17.478 20.126-7.614 37.998-18.56 52.737-34.436 4.217-4.533 8.623-8.924 13.651-12.599.044-.036-.016-.246-.02-.206-4.755.987-9.522 2.096-14.327 2.976-5.887 1.077-11.807 1.885-17.678 3.005-8.161 1.56-16.338 3.078-24.4 5.077-7.77 1.927-14.492 6.002-19.966 11.857-3.549 3.784-6.913 7.77-10.143 11.831-5.92 7.443-12.449 14.231-20.186 19.857-4.518 3.277-8.894 6.773-13.142 10.404-3.037 2.571-5.788 5.537-8.664 8.328zm335.4 292.191c.131-.089.263-.178.396-.287-.744-3.321-1.655-6.618-2.191-9.98a149.68 149.68 0 01-1.879-23.911c.011-6.143.023-12.287-.172-18.41-.362-11.713-3.761-22.469-10.692-32.011-1.918-2.624-3.963-5.199-6.148-7.605-4.332-4.788-8.488-9.7-11.626-15.387-.828-1.493-1.875-2.844-2.919-4.216-3.891-5.11-8.741-9.011-14.697-11.473-5.153-2.135-10.545-3.111-16.131-3.187-6.36-.094-12.759.196-19.027-1.195-.12-.033-.294.072-.567.146.295.316.513.583.773.834 3.986 3.773 8.615 6.631 13.492 9.064 7.442 3.715 14.808 7.565 21.632 12.34 4.821 3.388 9.01 7.365 12.469 12.105 4.983 6.813 8.231 14.43 10.369 22.526 2.313 8.788 4.518 17.626 6.392 26.513 3.056 14.538 9.026 27.718 17.406 39.877.974 1.467 2.059 2.843 3.12 4.257zM90.054 122.731c.689-.154.98-.206 1.255-.301 4.815-1.777 9.609-3.557 14.424-5.335 6.169-2.252 11.893-5.346 17.115-9.328 4.672-3.588 9.383-7.152 13.93-10.917 13.167-10.85 28.294-16.482 45.25-17.6 8.096-.525 16.127-.2 24.177.738 8.717 1.007 17.428 2.074 26.232 1.62.984-.043 1.952-.129 2.918-.194-.294-.52-.647-.658-1.001-.796-5.744-2.134-11.547-4.09-17.188-6.438-8.307-3.435-16.419-7.381-24.777-10.72-22.29-8.874-47.278-1.63-61.579 17.577-3.192 4.29-6.404 8.577-9.636 12.863-3.019 4.001-6.515 7.464-10.698 10.265-3.043 2.018-5.94 4.215-8.931 6.32-4.55 3.193-8.095 7.345-11.491 12.246zm166.169 119.862c.009.307.039.617.049.924 3.558.748 7.068 1.758 10.657 2.203 7.943.99 15.89 1.735 23.858 2.482 6.066.574 11.994 1.706 17.602 4.173a129.296 129.296 0 019.39 4.627c6.309 3.416 12.212 7.404 17.611 12.136 6.129 5.378 11.756 11.277 17.046 17.489 8.68 10.209 19.459 17.447 31.633 22.805.527.237 1.133.299 1.95.504-1.806-1.918-3.479-3.537-4.974-5.302-7.044-8.226-13.12-17.151-18.41-26.567-6.829-12.165-15.264-22.983-25.759-32.213-4.46-3.922-9.113-7.558-14.464-10.143-10.938-5.273-22.254-5.809-33.765-2.016-3.844 1.264-7.559 2.867-11.385 4.153-6.486 2.159-12.913 4.528-19.859 4.783-.41.02-.794-.019-1.18-.038zm-113.645 25.299c.176-.125.354-.27.53-.395-.353-.751-.685-1.499-1.08-2.233-3.224-6.043-5.933-12.34-7.626-18.982-1.487-5.867-2.721-11.81-4.062-17.703-1.015-4.471-1.885-8.969-3.089-13.398-2.47-9.049-6.793-17.142-13.172-24.077-4.376-4.751-9.234-8.979-14.372-12.869-7.184-5.444-14.046-11.243-19.896-18.165-4.356-5.157-8.867-10.188-13.313-15.252-.293-.336-.699-.561-1.056-.862-.009.489.128.748.286 1.008 4.733 7.666 9.535 15.257 14.161 22.973 4.836 8.064 9.237 16.39 12.291 25.314 2.362 6.895 4.342 13.934 6.45 20.925 1.65 5.455 3.815 10.676 6.899 15.48 3.845 5.962 8.222 11.51 13.204 16.527 5.666 5.718 11.626 11.161 17.541 16.64 1.955 1.852 4.186 3.405 6.304 5.069zm-21.791-109.871c-.071.094-.16.167-.231.262 2.424 2.267 4.823 4.572 7.271 6.8 4.521 4.133 9.177 8.137 13.582 12.401 5.243 5.064 9.449 10.88 11.84 17.899 1.967 5.752 3.411 11.635 4.271 17.642 1.106 7.604 2.044 15.252 3.004 22.882 1.222 9.882 4.411 19.085 9.942 27.342 4.93 7.339 10.123 14.5 15.204 21.752.305.419.699.765 1.397 1.53-.174-1.1-.236-1.698-.383-2.264-1.814-7.268-2.758-14.651-2.896-22.136-.115-6.912-.106-13.831-.241-20.745-.192-10.369-1.399-20.596-4.595-30.535-2.748-8.526-7.567-15.547-14.549-21.175-4.283-3.455-8.722-6.784-11.999-11.301-2.652-3.637-5.974-6.506-9.873-8.718-2.837-1.615-5.754-3.053-8.639-4.591a2717.699 2717.699 0 00-13.105-7.045zm-138.544-64.23c1.172-1.085 2.073-1.912 2.955-2.762 6.17-6.07 13.147-10.853 21.598-13.262 7.317-2.096 14.59-4.359 21.89-6.476 13.483-3.92 26.369-9.186 38.405-16.539 9.315-5.69 17.404-12.973 25.943-19.66 1.042-.813 2.224-1.795 2.814-3.593-1.063.423-1.785.697-2.487.973-3.153 1.292-6.295 2.688-9.498 3.874-8.76 3.235-17.64 6.05-27.01 6.855-4.943.417-9.905.832-14.855 1.33-6.971.702-13.92 1.59-20.61 3.728-14.096 4.53-24.48 13.5-30.935 26.809-2.897 6.014-5.364 12.214-8.21 18.723zm248.31 298.443c.117.052.236.085.353.138.316-.499.671-.973.967-1.474 1.991-3.33 4.042-6.633 5.936-10.013 2.44-4.325 5.018-8.596 7.068-13.103 4.526-9.993 5.906-20.366 2.812-31.111-.768-2.691-1.305-5.44-1.885-8.173-1.043-5.005-.587-9.899 1.263-14.651 1.354-3.476 2.784-6.903 4.079-10.406 3.987-10.721 5.301-21.651 2.754-32.954-1.349-6.016-4.313-11.195-7.679-16.252-.13.477-.112.907-.01 1.305 2.416 10.187 1.325 20.12-2.725 29.65-2.361 5.558-5.195 10.946-8.063 16.269-6.333 11.707-8.939 24.1-7.221 37.338.871 6.703 1.721 13.403 2.736 20.1 1.558 10.385 1.362 20.755-.18 31.112-.073.727-.129 1.477-.205 2.225zm-25.283-43.127c.166-.024.33-.027.516-.049.043-.833.107-1.663.151-2.496.374-7.699 1.109-15.34 3.473-22.735 1.945-6.09 4.927-11.728 7.946-17.342 3.951-7.336 7.273-14.919 9.894-22.839 2.743-8.316 3.744-16.768 2.159-25.482-1.597-8.797-3.134-17.588-4.337-26.447-1.063-7.824-4.26-14.538-9.311-20.48-.309-.378-.706-.684-1.082-1.008-.17.064-.34.129-.489.195.207.572.477 1.131.642 1.719 4.002 14.063 4.219 28.007-.926 41.876-2.67 7.201-5.262 14.43-7.658 21.74-4.197 12.782-6.753 25.893-5.655 39.396.641 7.965 1.92 15.872 3.013 23.801.405 3.451 1.087 6.786 1.664 10.151zm81.031-36.833l-.552.005c-.093.113-.267.218-.279.339-.768 7.557-3.785 14.355-6.846 21.169-3.664 8.141-7.328 16.281-10.698 24.534-5.165 12.663-7.137 25.854-5.337 39.489.749 5.69 1.496 11.4 2.328 17.078.724 4.931 1.161 9.875.899 14.87-.03.691.024 1.37.07 2.518 1.802-4.471 3.211-8.493 5.011-12.352 2.474-5.261 5.182-10.416 7.872-15.594 4.289-8.261 6.998-17.05 9.239-26.049 2.747-10.969 3.201-21.865.386-32.949-1.139-4.464-1.392-9.205-1.698-13.829-.243-3.638.168-7.291.111-10.951-.048-2.74-.339-5.505-.506-8.278zM179.653 171.381c4.839 3.206 9.717 6.232 14.399 9.585 3.845 2.738 7.521 5.744 11.13 8.805 4.565 3.892 8.564 8.34 12.229 13.06.631.819 1.35 1.178 2.366 1.219 5.661.146 11.345.457 16.998.479 4.612.019 9.14-.747 13.532-2.179 4.054-1.324 8.114-2.709 12.152-4.075.635-.221 1.237-.528 2.241-.957-.937-.626-1.547-1.055-2.181-1.446-2.924-1.766-5.847-3.532-8.795-5.26-6.976-4.076-14.003-8.055-21.409-11.317-8.187-3.607-16.674-5.876-25.704-5.812-2.96.006-5.897-.027-8.853-.061-5.611-.039-11.178-.501-16.636-1.831-.519-.114-1.067-.149-1.469-.21zM21.329 4.017c-.198-.061-.375-.12-.575-.16-1.759 2.638-3.347 5.416-5.295 7.913-5.022 6.432-10.7 12.286-16.842 17.685-4.954 4.356-8.89 9.55-11.895 15.41-3.267 6.446-4.907 13.343-5.779 20.522-.81 6.776-1.866 13.549-3.218 20.23-.743 3.7-2.15 7.294-3.567 10.804-1.206 3.021-2.845 5.897-4.436 9.104.552-.414.898-.603 1.17-.862 6.215-6.33 11.357-13.341 14.339-21.796 2.003-5.656 4.496-11.098 7.725-16.16C-2.38 59.362 2.668 52.28 6.508 44.423c2.216-4.532 4.822-8.881 6.9-13.468 3.06-6.814 5.076-13.999 6.636-21.312.419-1.917.872-3.77 1.285-5.626zM92.71 202.103l.34-.332c-.257-.884-.451-1.781-.794-2.633-2.057-5.271-4.048-10.597-6.277-15.783-2.231-5.167-2.365-5.058-7.454-7.615-7.906-3.966-14.348-9.478-18.062-17.735-.598-1.346-1.388-2.61-2.009-3.939-3.728-8.115-9.907-14.008-17.244-18.754-2.548-1.646-5.21-3.182-8.51-4.251.347.606.44.901.645 1.086 6.889 6.945 12.236 15 17.009 23.486a881.994 881.994 0 0010.223 17.735c7.218 12.143 17.459 21.062 29.882 27.588.737.381 1.494.764 2.251 1.147zm219.586-7.898c.304.419.585.876.934 1.258 1.561 1.71 3.121 3.44 4.725 5.134 5.962 6.219 11.951 12.378 17.891 18.615 1.586 1.672 3.331 2.379 5.716 2.417 10.44.12 20.765-1.037 31.086-2.358.166-.024.307-.214.417-.285-19.789-9.376-39.463-18.884-60.769-24.781zm-287.292-69.58c-.057.158-.134.313-.19.471 1.413.756 2.772 1.649 4.242 2.247 6.485 2.679 12.731 5.701 18.262 10.14 4.531 3.624 8.529 7.684 11.27 12.861 1.523 2.89 3.026 5.778 4.529 8.666 3.97 7.547 10.34 12.357 18.387 15.95-.452-.985-.673-1.62-1.002-2.204-4.247-7.229-8.34-14.564-12.828-21.633-4.328-6.829-9.053-13.371-15.363-18.584-1.618-1.348-3.18-2.649-5.359-3.115-6.673-1.432-13.333-2.986-19.978-4.497-.64-.126-1.307-.194-1.97-.302zm91.384 65.448c.01.511-.049.689.023.778.414.552.847 1.106 1.303 1.643 3.771 4.485 6.885 9.394 8.876 14.924 1.463 4.088 2.693 8.255 3.861 12.436.406 1.429 1.021 2.41 2.234 3.329 3.504 2.683 6.891 5.517 10.278 8.351 1.241 1.044 2.343 2.258 3.493 3.396l.356-.291c-2.995-6.285-5.902-12.643-9.049-18.841-3.063-6.026-6.58-11.793-10.909-17.009-2.893-3.478-6.203-6.467-10.466-8.716zm173.231 22.593c.054-.138.107-.255.162-.392-7.679-4.596-15.357-9.193-22.901-13.714-7.202 2.372-14.174 4.687-21.144 6.98 1.195.101 2.361.076 3.515-.031 8.453-.817 16.729.105 24.854 2.521 2.456.739 4.917 1.438 7.355 2.155 2.713.826 5.446 1.654 8.159 2.481z"/></g><g opacity=".4"><path d="M-26.16 98.053c3.05-1.32 6.159-2.546 9.163-3.974 5.749-2.743 11.574-5.28 17.66-7.176 8.679-2.692 17.433-2.765 26.192-.572 3.827.958 7.613 2.213 11.36 3.488 10.52 3.605 21.008 7.286 31.944 9.46 10.383 2.07 20.95 2.717 31.452 3.693 1.269.122 2.566.239 3.836.361-.014.191 0 .377-.013.569-6.382.371-12.764 1.019-19.15 1.085-13.607.177-27.202-.316-40.508-3.515-8.546-2.037-16.952-4.577-25.45-6.781-4.212-1.087-8.45-2.068-12.73-2.853-6.165-1.13-12.236-.357-18.13 1.552-5.163 1.663-10.185 3.755-15.36 5.334-4.565 1.396-8.788 3.494-13.093 5.43-2.88 1.293-5.89 2.315-8.907 3.28 3.19-1.82 6.354-3.71 9.586-5.449 10.59-5.723 20.246-12.58 27.965-21.982 5.75-7.017 12.786-12.694 20.543-17.291 5.386-3.21 11.236-5.679 16.905-8.38 7.021-3.35 14.072-6.602 21.081-9.934 2.205-1.056 4.338-2.29 6.657-3.263l-3.66 2.533c-5.713 4.003-11.339 8.093-17.126 11.99a118.838 118.838 0 01-10.364 6.24c-4.454 2.382-9.033 4.521-13.575 6.713-8.709 4.18-16.268 9.85-22.629 17.152-3.154 3.631-6.46 7.127-10.504 9.808-1.08.72-2.224 1.394-3.337 2.09.084.162.13.27.192.392zm124.687 5.837c-.006-.13-.011-.26-.005-.406-.127-.068-.25-.208-.397-.214-.696-.081-1.387-.133-2.078-.185-16.298-.856-32.27-3.435-47.7-8.889-5.861-2.064-11.742-4.068-17.66-5.948-5.647-1.808-11.46-2.732-17.426-2.585-6.356.164-12.405 1.733-18.287 4.003-2.287.895-4.52 1.956-6.956 3.02.375.072.53.135.627.105 7.554-2.357 15.22-2.972 22.928-.993a732.755 732.755 0 0122.92 6.218c20.236 5.866 40.925 7.011 61.812 6.163.746-.059 1.496-.19 2.222-.289zm-132.835-3.286c4.047-1.17 7.523-3.485 11.008-5.744 4-2.587 7.2-6.11 10.294-9.66C-6.657 77.916.886 72.232 9.578 68.041c4.692-2.258 9.346-4.57 14.012-6.896a41.94 41.94 0 003.831-2.183c3.78-2.421 7.542-4.855 11.3-7.316 2.256-1.472 4.447-2.99 6.682-4.503a1.865 1.865 0 00-1.376.128c-9.472 4.502-18.928 9.016-28.405 13.49C7.474 64.62.481 70.1-5.86 76.41c-4.015 3.984-7.721 8.269-11.708 12.249-3.232 3.222-6.778 6.116-10.82 8.346-2.02 1.114-3.958 2.39-5.92 3.598zM55.097 197.832c3.085.114 6.172.054 9.23.376 8.983.923 17.962 1.265 26.976.904 3.394-.137 6.84-.036 10.244.159 12.103.712 22.791 5.017 32.209 12.645a1033.943 1033.943 0 0018.648 14.69c2.827 2.189 5.822 4.149 8.765 6.145 5.968 4.054 10.252 9.519 14.036 15.599 4.212 6.769 6.547 14.181 8.741 21.716 1.761 6.062 4.014 11.93 7.58 17.173a986.752 986.752 0 0011.109 16.026c.968 1.361 2.238 2.514 3.196 3.992-.401-.242-.839-.436-1.192-.744-4.001-3.372-7.451-7.223-10.146-11.729-2.28-3.801-4.612-7.564-6.569-11.532-2.232-4.52-4.113-9.212-6.075-13.862-2.059-4.896-4.754-9.403-7.615-13.854-3.363-5.245-7.252-10.044-11.415-14.641-4.971-5.489-10.828-9.763-17.626-12.713-8.727-3.753-17.104-8.157-25.113-13.273-8.041-5.14-16.891-7.726-26.362-8.427-2.72-.2-5.436-.372-8.107-.813-2.598-.437-5.225-.972-7.666-1.899-5.711-2.131-11.584-3.525-17.615-4.357-1.755-.249-3.51-.6-5.257-.894.005-.248.015-.467.024-.687zm14.997 2.019c-.03.179-.073.375-.086.566 5.272 1.459 10.531 2.934 15.803 4.393.669.186 1.372.221 2.08.285 2.314.206 4.645.423 6.971.612 8.72.732 16.972 3.033 24.443 7.681 8.662 5.391 17.585 10.219 26.953 14.264 4.584 1.988 8.831 4.61 12.528 7.986 8.35 7.678 15.081 16.613 20.54 26.53.774 1.42 1.439 2.886 2.144 4.331.149-.067.299-.134.465-.189-.733-2.269-1.218-4.635-2.233-6.759-2.15-4.46-4.478-8.849-6.899-13.181-2.683-4.798-6.435-8.718-10.917-11.914-2.468-1.751-5.032-3.371-7.429-5.22a1798.917 1798.917 0 01-21.81-17.074c-8.514-6.766-18.09-10.838-28.916-11.749-4.315-.358-8.682-.301-13.026-.379-6.355-.112-12.718-.18-19.08-.248-.525-.005-1.028.03-1.531.065zM129.214 476.495c.066 2.286.234 4.57.199 6.858a677.048 677.048 0 01-.524 16.287c-.219 5.02-1.522 9.801-3.489 14.425-.701 1.65-1.375 3.296-2.154 4.915-2.982 6.221-4.917 12.729-5.766 19.577-1.561 12.714-7.499 23.19-16.438 32.129-3.898 3.893-7.665 7.882-11.563 11.775-6.136 6.133-11.234 13.047-15.577 20.513-.378.655-.804 1.274-1.561 1.828.024-.309-.012-.638.085-.944 1.525-4.569 3.067-9.126 4.58-13.679 2.17-6.487 4.25-12.989 6.499-19.444 1.966-5.656 5.184-10.548 9.152-15.019 3.288-3.71 6.52-7.485 9.525-11.428 4.413-5.805 7.51-12.32 9.511-19.333.656-2.312 1.341-4.628 1.953-6.947 1.805-6.779 4.087-13.385 7.534-19.519 3.509-6.289 6.125-12.903 7.202-20.062.101-.656.32-1.3.495-1.952.129-.006.247.005.337.02zm-1.18 12.363c-.179.624-.348 1.029-.4 1.444-.766 5.701-2.961 10.912-5.556 15.983-3.574 6.996-5.916 14.339-6.471 22.23-.261 3.733-.985 7.377-2.235 10.915-2.731 7.738-7.072 14.476-12.633 20.475-3.113 3.335-6.238 6.686-9.145 10.221-5.6 6.775-9.423 14.595-12.947 22.558-.119.266-.098.582-.15.896.745-.436 1.168-.982 1.597-1.5 2.552-3.014 4.986-6.141 7.674-9.032 4.985-5.313 10.208-10.401 15.176-15.726 7.172-7.689 11.845-16.674 13.407-27.15.243-1.608.543-3.225.786-4.832.724-4.953 2.194-9.688 4.243-14.252.865-1.908 1.62-3.872 2.546-5.761 3.977-8.135 4.534-16.855 4.476-25.697.001-.175-.159-.368-.368-.772zM77.051 593.079c.156.063.323.109.478.172.396-.817.808-1.623 1.187-2.452 2.886-6.468 6.017-12.756 10.155-18.562 3.303-4.629 7.252-8.661 11.127-12.798 8.631-9.239 14.188-19.918 15.004-32.748.276-4.374 1.358-8.613 2.996-12.647 1.657-4.096 3.608-8.078 5.42-12.111 1.75-3.877 2.981-7.907 3.226-12.203-1.188 2.074-2.155 4.26-3.298 6.343-4.194 7.675-7.245 15.781-9.41 24.259-1.291 5.041-2.872 9.997-5.131 14.71-3.643 7.574-8.828 14.023-14.468 20.165-3.802 4.14-7.087 8.606-9.245 13.87-3.06 7.498-5.723 15.108-7.864 22.899-.089.362-.104.728-.177 1.103zM110.853 267.612c.29.086.611.094.864.228 7.625 4.333 16.064 6.62 24.201 9.666 6.038 2.27 12.154 4.294 17.877 7.339 10.399 5.528 19.08 12.995 25.819 22.64 4.235 6.082 7.421 12.707 9.961 19.664 3.496 9.541 5.855 19.434 8.684 29.167 2.194 7.535 4.691 14.964 8.526 21.836 2.117 3.783 4.517 7.419 6.795 11.119 1.055 1.725 2.121 3.433 3.147 5.162 2.172 3.672 4.317 7.349 6.477 11.038.1.173.09.393.25 1.138-1.574-1.702-2.854-3.013-4.066-4.35-5.683-6.235-11.331-12.518-16.138-19.471a245.666 245.666 0 01-7.594-11.677c-1.934-3.172-3.607-6.53-5.449-9.759-4.219-7.379-7.554-15.143-10.727-22.99-3.174-7.847-6.032-15.816-9.573-23.505-5.342-11.592-13.118-21.264-24.461-27.531-6.457-3.555-13.109-6.775-19.712-10.061-5.319-2.6-10.3-5.732-14.881-9.653zm108.746 133.393c-.18-.408-.307-.853-.544-1.252a1652.003 1652.003 0 00-6.085-9.922c-2.079-3.353-4.307-6.638-6.253-10.07-4.3-7.613-7.217-15.776-9.617-24.166-2.877-10.044-5.297-20.233-9.133-29.997-3.021-7.711-6.841-14.948-12.052-21.416-8.601-10.677-19.54-18.082-32.306-22.848-7.348-2.748-14.764-5.369-22.144-8.039-.4-.141-.819-.221-1.231-.346 1.393 1.193 2.928 2.087 4.49 2.875 5.14 2.569 10.272 5.184 15.48 7.626 14.285 6.679 24.338 17.435 30.791 31.674 2.058 4.518 3.942 9.137 5.684 13.777 2.892 7.717 6.013 15.325 9.611 22.728 4.597 9.515 9.355 18.946 15.367 27.658 5.333 7.713 11.221 14.977 17.942 21.718zM148.699 555.934c-.043-.836-.188-1.671-.142-2.492.846-14.594 5.686-27.907 12.847-40.507 2.809-4.915 5.486-9.926 8.196-14.913.551-1.03.992-2.117 1.498-3.155 3.162-6.467 3.843-13.187 2.155-20.176-.746-3.008-1.35-6.039-2.124-9.043-1.454-5.586-1.882-11.304-2.168-17.044-.031-.853-.108-1.713-.094-2.558.189-7.631-3.25-13.736-8.039-19.267-1.155-1.346-2.443-2.613-3.75-3.819a3611.124 3611.124 0 00-15.965-14.265c-.271-.248-.602-.415-1.155-.416.797 1.01 1.542 2.056 2.38 3.044 3.193 3.789 6.516 7.471 9.569 11.384 2.037 2.618 3.712 5.525 5.487 8.329 1.145 1.841 2.347 3.674 3.25 5.64 5.522 12.277 8.731 25.002 7.595 38.58-.494 5.775-1.981 11.326-3.971 16.739-3.279 8.971-6.526 17.965-10.161 26.803-4.064 9.907-6.336 20.116-6.318 30.84-.008.699-.06 1.39-.095 2.093-.11-.608-.304-1.203-.312-1.812-.262-9.493 1.134-18.708 4.585-27.604 3.844-9.917 7.562-19.901 11.373-29.841 5.541-14.411 5.612-28.942.973-43.566-1.224-3.835-2.428-7.731-4.181-11.323-1.966-4.025-4.292-7.935-6.935-11.548-3.602-4.917-7.74-9.445-11.54-14.229-3.13-3.945-5.717-8.221-6.924-13.25.31.402.729.758.93 1.206 1.773 4.186 4.905 7.301 8.202 10.26 4.796 4.28 9.557 8.609 14.37 12.901 3.814 3.387 6.724 7.497 9.146 11.929 1.24 2.263 1.849 4.769 2.09 7.333.108 1.161.217 2.321.24 3.495.119 8.484 1.332 16.811 3.515 25.017.85 3.21 1.295 6.527 1.752 9.827.415 3.119-.037 6.183-.977 9.193-1.557 4.923-3.87 9.47-6.351 13.971-2.969 5.376-5.954 10.74-8.845 16.148-5.6 10.496-8.578 21.774-9.7 33.577-.131.834-.291 1.673-.406 2.519zM214.893 491.125c-3.088-4.692-5.768-9.564-7.628-14.869-1.464-4.161-3.122-8.263-4.655-12.398-1.969-5.259-2.635-10.824-3.438-16.337-.943-6.597-1.63-13.234-2.573-19.83-.828-5.859-2.333-11.583-4.908-16.908-5.252-10.822-13.15-19.326-23.652-25.23-4.383-2.47-9.02-4.522-13.531-6.783-3.754-1.884-7.635-3.56-11.166-5.785-3.322-2.097-6.293-4.744-9.344-7.247-.768-.636-1.221-1.67-1.58-2.762.253.135.531.237.72.425 5.714 5.779 13.134 8.051 20.632 10.18 2.312.656 4.702 1.068 7.026 1.708 11.364 3.138 21.374 8.784 30.149 16.571 5.269 4.7 8.115 10.825 9.691 17.657 1.549 6.662 2.531 13.413 2.697 20.247.288 11.524 1.926 22.852 4.489 34.051 1.93 8.448 4.139 16.824 6.239 25.245.225.692.562 1.366.832 2.065zm-3.097-6.609a1.87 1.87 0 00.287-.118c-1.061-4.093-2.178-8.177-3.154-12.283-3.14-13.128-5.952-26.293-6.299-39.872-.21-7.67-1.194-15.278-2.864-22.808-1.899-8.526-6.414-15.19-13.362-20.311a93.706 93.706 0 00-4.804-3.305c-7.587-4.832-15.607-8.624-24.473-10.568-4.53-.993-8.931-2.646-13.373-4.002-.518-.151-1.059-.27-1.577-.422.579.825 1.252 1.316 1.98 1.697 3.664 1.869 7.341 3.723 11.017 5.576 4.433 2.229 8.993 4.249 13.315 6.7 10.477 5.936 18.395 14.38 23.732 25.188 2.724 5.534 4.305 11.464 5.168 17.55 1.073 7.521 1.93 15.061 2.958 22.575.76 5.608 1.884 11.13 4.021 16.436 1.448 3.596 2.553 7.319 4.001 10.915.974 2.42 2.275 4.703 3.427 7.052zM117.278 307.174c.075.758.251 1.516.22 2.247-.42 8.292-.885 16.577-2.322 24.78-1.222 6.979-4.07 13.222-8.128 18.885A69.035 69.035 0 0099 367.728c-3.586 8.874-9.854 15.463-18.21 20.125-3.8 2.105-7.616 4.197-11.304 6.459-6.167 3.797-11.161 8.952-15.13 14.906-5.368 8.076-10.313 16.434-15.422 24.674-.756 1.208-1.451 2.436-2.51 3.473 1.52-3.115 2.978-6.25 4.547-9.329 3.74-7.328 7.446-14.679 11.341-21.944 4.613-8.627 10.219-16.478 17.967-22.615 4.307-3.42 8.672-6.746 12.957-10.206 5.122-4.157 9.881-8.679 14.422-13.487 7.249-7.657 11.84-16.702 14.378-26.793 1.738-6.928 3.007-13.972 4.399-20.977.321-1.576.283-3.212.409-4.831.101-.001.276.001.434-.009zm-2.012 18.947c-.167-.047-.351-.105-.518-.152-.451 1.858-.886 3.728-1.354 5.575-2.618 10.132-6.714 19.463-13.79 27.399-7.259 8.153-15.55 15.101-24.207 21.656-5.966 4.522-11.496 9.411-15.885 15.561-4.564 6.425-8.224 13.333-11.72 20.361-.031.078.064.223.157.542.432-.59.795-1.054 1.126-1.542 2.025-2.947 3.887-6.013 6.064-8.824 4.854-6.339 10.487-11.782 17.736-15.443 3.665-1.851 7.254-3.908 10.665-6.171 6.497-4.284 11.51-9.979 14.401-17.247 2.219-5.521 4.997-10.635 8.538-15.417 5.558-7.51 8.086-16.175 8.823-25.417.04-.297-.02-.593-.036-.881zM-20.46 287.939c-.032-1.128-.095-2.281-.098-3.414a122.914 122.914 0 00-4.102-33.341c-1.546-5.805-4.216-11.173-6.57-16.662-1.663-3.854-3.488-7.624-4.945-11.553-3.848-10.402-5.535-21.112-4.229-32.202.847-7.327 1.751-14.662 2.57-21.985.833-7.513 1.1-15.011-.584-22.451-1.091-4.844-2.542-9.574-4.507-14.15-1.374-3.216-2.542-6.507-3.791-9.757a3.325 3.325 0 01-.184-1.919c.614 1.227 1.255 2.45 1.8 3.702 1.138 2.54 2.223 5.117 3.378 7.67 2.163 4.821 4.528 9.539 6.485 14.437 3.674 9.193 5.524 18.715 4.447 28.665a8127.617 8127.617 0 01-2.263 20.599c-.724 6.537-.623 13.048 1.296 19.376 1.426 4.66 3.17 9.228 4.985 13.77 1.512 3.819 3.408 7.491 4.92 11.31 2.42 6.09 4.07 12.373 3.9 19.012-.116 4.19-.379 8.373-.686 12.549-.36 4.866-.82 9.735-1.236 14.61-.041.574-.123 1.168-.18 1.729-.159.01-.277 0-.407.005zm.361-13.413c.328-.691.488-.876.514-1.083.639-6.8 1.35-13.597.458-20.434-.92-7.007-3.778-13.392-6.442-19.836-1.829-4.453-3.75-8.848-5.511-13.325-2.693-6.818-3.687-13.93-3.039-21.226.506-5.79 1.231-11.572 1.895-17.373.652-5.785 1.186-11.58.64-17.41-.814-8.463-3.945-16.229-7.158-23.954-.05-.138-.25-.208-.48-.376.67 2.802 1.354 5.413 1.884 8.063 1.39 6.847 1.158 13.743.415 20.618-.803 7.334-1.768 14.65-2.554 21.996-.844 7.908-.745 15.799 1.338 23.555 1.503 5.622 3.293 11.128 5.723 16.446 2.634 5.794 5.314 11.597 7.44 17.573 2.753 7.767 3.924 15.912 4.566 24.126.026.722.153 1.444.311 2.64zM49.377 179.075c1.12-.088 2.231-.232 3.356-.291 7.822-.451 15.624-.943 23.319-2.493 3.395-.69 6.695-1.903 10.089-2.694 4.447-1.029 8.95-1.79 13.414-2.807 6.343-1.455 12.636-3.048 18.954-4.572 13.381-3.209 26.058-1.147 38.101 5.228 1.837.963 3.572 2.204 5.213 3.502 6.786 5.38 12.455 11.805 17.66 18.696 5.46 7.228 11.09 14.329 18.297 19.991 1.392 1.091 2.651 2.362 3.917 3.763-.487-.229-.985-.442-1.459-.688-8.339-4.25-14.681-10.788-20.658-17.791-4.641-5.423-9.382-10.744-14.841-15.356-10.233-8.649-21.857-12.532-35.374-11.032-9.387 1.044-18.869 1.391-28.303 1.948-6.235.378-12.237 1.504-18.123 3.745-4.706 1.796-9.734 2.828-14.803 2.573-6.257-.317-12.465-.975-18.707-1.483a1.32 1.32 0 01-.052-.239zm145.981 34.124c.071-.098.16-.185.243-.299-.116-.186-.192-.392-.344-.528-5.982-4.894-10.733-10.926-15.402-16.998-4.633-6.021-9.318-12.004-15.118-16.942-2.531-2.148-5.103-4.377-7.984-5.977-11.866-6.548-24.455-8.695-37.793-5.581-7.375 1.733-14.596 4.081-22.142 5.187-5.912.865-11.589 2.681-17.358 4.178-5.142 1.326-10.52 1.7-15.804 2.496-.68.106-1.338.18-2.007.27 7.353 1.846 14.461.823 21.315-1.642 5.382-1.93 10.796-3.284 16.488-3.606 8.822-.476 17.639-.981 26.468-1.502 3.702-.215 7.433-.71 11.131-.677 10.905.114 20.141 4.617 28.335 11.477 5.052 4.24 9.35 9.237 13.777 14.127 3.871 4.308 7.911 8.488 11.974 12.636 1.196 1.325 2.784 2.283 4.221 3.381zM124.346 359.876c-.049.618-.041 1.227-.151 1.826-1.393 7.557-2.618 15.161-4.268 22.657-.671 3.055-1.944 6.073-3.41 8.875-4.052 7.754-8.935 14.926-15.879 20.443-3.454 2.734-7.119 5.239-10.503 8.05-6.037 4.997-11.567 10.541-16.719 16.461-3.242 3.718-5.841 7.83-7.7 12.408-1.145 2.81-2.307 5.607-3.718 8.298-4.787 9.279-11.936 16.558-20.146 22.811-1.895 1.458-4.071 2.51-6.217 3.659 10.259-8.026 16.418-18.943 21.757-30.46 3.699-7.96 7.668-15.775 12.91-22.886 5.27-7.116 11.562-13.084 18.867-18.062a131.78 131.78 0 0015.913-12.774c3.5-3.279 6.016-7.277 8.4-11.37 5.13-8.852 8.17-18.426 10.128-28.411.107-.525.214-1.051.337-1.564.13-.006.265.017.399.039zM41.51 480.726c.333-.008.439.019.479-.002a67.18 67.18 0 002.369-1.867c9.101-7.714 16.287-16.801 20.39-28.139 1.783-4.958 4.656-9.273 8.107-13.242 5.087-5.866 10.585-11.332 16.57-16.293 3.396-2.826 7.032-5.327 10.52-8.037 6.993-5.481 11.717-12.745 15.976-20.372 2.319-4.14 3.418-8.643 4.346-13.221.062-.257.001-.553-.01-.812-.699.646-1.035 1.382-1.399 2.122-1.611 3.275-3.128 6.593-4.877 9.816-2.127 3.879-4.569 7.603-7.812 10.667a131.505 131.505 0 01-16.666 13.358c-6.664 4.514-12.481 9.898-17.415 16.279-5.55 7.189-9.733 15.124-13.554 23.322-3.388 7.258-6.885 14.461-12.017 20.698-1.584 1.86-3.246 3.69-5.007 5.723zM60.304 219.634c.474 1.453.993 2.912 1.426 4.385 2.026 6.733 5.145 12.932 8.722 18.986 2.314 3.927 5.173 7.623 6.18 12.204.56 2.572 1.196 5.147 1.327 7.757.339 6.357 1.075 12.652 2.553 18.859 2.342 9.881.64 19.274-3.785 28.264a79.098 79.098 0 01-4.447 7.918c-8.629 13.44-13.216 28.371-16.338 43.843-.176.827-.486 1.631-.74 2.426-.191-.013-.395-.011-.586-.024-.156-.441-.458-.888-.472-1.351-.164-13.52.655-26.802 6.296-39.455 4.405-9.859 8.468-19.868 11.648-30.219 1.524-4.947 2.34-9.958 2.273-15.136-.096-6.758.011-13.518-1.756-20.088-1.042-3.878-2.38-7.695-3.724-11.468-2.488-6.995-6.023-13.623-7.715-20.916-.464-1.948-.883-3.888-1.319-5.841.138-.05.292-.089.457-.144zm6.424 18.793l-.255.04c.297.695.64 1.397.896 2.113 1.794 4.879 3.807 9.667 5.31 14.635 2.839 9.339 2.688 18.984 2.228 28.605a24.087 24.087 0 01-1.076 5.952c-1.716 5.486-3.416 10.984-5.443 16.344-2.879 7.629-6.051 15.144-9.069 22.723-1.963 4.928-3.302 10.035-3.68 15.341-.416 5.806-.686 11.618-.984 17.435-.03.455.158.92.23 1.374.451-.55.546-1.059.67-1.573 1.289-5.521 2.444-11.064 3.916-16.526 2.573-9.588 6.547-18.58 11.861-26.996a87.652 87.652 0 004.674-8.331c4.33-8.758 5.978-17.939 3.716-27.585-1.475-6.281-2.293-12.636-2.515-19.083-.142-4.629-1.34-9.049-3.66-13.106-2.195-3.814-4.54-7.561-6.819-11.362zM1.893 138.715c2.759-1.507 5.721-2.362 8.755-2.762 4.299-.584 8.633-.941 12.952-1.209 6.592-.419 13.103-1.173 19.586-2.476 3.708-.739 7.523-1.349 11.281-1.297 5.827.079 11.422-.765 16.93-2.454 10.997-3.388 22.034-3.178 33.096-.385 3.09.796 6.219 1.471 9.206 2.545 11.462 4.14 23.383 5.549 35.436 6.4 1.557.105 3.106.154 4.651.276.72.048 1.441.197 2.109.659-.366-.015-.727-.002-1.093-.018-11.376-.709-22.63.205-33.772 2.482-8.691 1.779-17.425 1.515-26.195 1.023-9.106-.511-18.044-2.08-26.938-4.02-10.006-2.173-20.123-3.195-30.285-1.434-7.077 1.221-14.152 1.715-21.305 1.146-4.445-.352-8.812.257-13.112 1.393-.421.095-.872.093-1.302.131zm136.987-1.403c.011-.118-.007-.232.004-.35-.802-.107-1.596-.259-2.422-.334-6.996-.681-13.812-2.16-20.467-4.377-2.363-.794-4.748-1.453-7.142-2.169-13.197-3.899-26.364-4.532-39.633-.237-3.127 1.012-6.51 1.686-9.777 1.716-6.544.077-12.975.688-19.371 2.08-6.54 1.413-13.206 1.727-19.868 2.07-.995.053-1.98.163-2.97.245 4.714 1.052 10.987.828 17.392-.23 1.914-.313 3.827-.626 5.742-.838 9.69-1.15 19.228-.023 28.668 2.064 9.11 2.023 18.314 3.434 27.66 3.894 7.134.354 14.246.566 21.349-.587 6.649-1.081 13.341-1.879 20-2.802.267-.057.551-.101.835-.145zM20.125 178.018c.414 1.534 1.002 3.07 1.218 4.635.751 5.929 1.243 11.869 2.08 17.785.777 5.445 1.628 10.893 2.924 16.214 1.03 4.272 2.612 8.443 4.282 12.528 2.695 6.643 3.788 13.551 4.096 20.639.299 6.755-.8 13.22-2.93 19.686-6.491 19.676-8.634 39.835-5.84 60.43.09.567.093 1.148.136 1.984-8.282-20.828-9.997-41.766-4.198-63.179.93-3.444 1.783-6.92 2.864-10.33 3.638-11.425 4.431-22.915 1.683-34.651-3.197-13.672-4.565-27.644-6.784-41.482-.225-1.346-.222-2.727-.305-4.095.28-.073.535-.113.774-.164zm3.978 147.221l.588-.049c-.131-1.68-.32-3.351-.423-5.035-.966-17.726 1.32-35.016 6.943-51.881 1.016-3.08 1.958-6.265 2.314-9.474 1.271-11.318-.44-22.271-4.91-32.75-.248-.557-.604-1.068-.92-1.6-.23.384-.21.6-.192.815.084.539.152 1.066.265 1.601 2.074 9.559 1.279 18.985-1.363 28.322-1.075 3.816-2.151 7.632-3.198 11.443-4.501 16.603-5.747 33.294-1.388 50.127.764 2.846 1.524 5.663 2.284 8.481zM47.65 536.146c.283-.422.533-.868.865-1.254 4.927-5.682 8.613-12.144 11.767-18.944 1.825-3.948 3.601-7.932 5.46-11.855 4.673-9.915 11.687-17.871 20.566-24.213 6.501-4.634 13.118-9.083 19.545-13.822 6.297-4.631 11.8-10.068 15.729-16.931 2.498-4.387 4.919-8.806 7.384-13.217.703-1.272 1.438-2.521 2.545-3.624-.662 1.528-1.247 3.087-1.976 4.567-5.169 10.458-11.264 20.392-17.858 30.011-4.781 6.996-11.059 12.497-17.868 17.484a162.28 162.28 0 00-10.864 8.716c-5.117 4.462-9.36 9.688-12.768 15.598-3.89 6.74-8.124 13.23-13.3 19.081-2.784 3.124-5.716 6.038-9.227 8.403zm5.451-5.953c.26-.011.456.031.544-.056.506-.486.983-.967 1.455-1.477 5.651-6.26 10.163-13.301 14.411-20.534 2.365-4.032 5.063-7.796 8.248-11.229 5.104-5.477 10.964-10.025 16.969-14.393 8.162-5.911 14.737-13.231 19.989-21.768.195-.336.279-.727.48-1.209-.348.098-.551.101-.64.187-6.869 6.93-15.238 11.885-23.079 17.527-4.455 3.21-8.81 6.594-12.858 10.278-6.576 6.012-10.877 13.66-14.468 21.749-3.07 6.962-6.202 13.904-10.716 20.088-.14.225-.209.527-.335.837z"/><path d="M19.46 231.011c-2.101-2.942-4.21-6.115-6.524-9.112-4.34-5.63-6.77-11.98-7.22-19.046-.315-5.183-.285-10.391-.6-15.574-.21-3.397-.778-6.753-1.204-10.131-.041-.357-.27-.7-.696-1.011-.005.524-.072 1.029-.02 1.544a129.573 129.573 0 01.817 25.06c-.45 6.989.432 13.842 2.942 20.325 1.925 4.975 4.67 9.619 7.117 14.397 1.126 2.178 2.388 4.307 3.473 6.506-3.993-5.931-7.709-12.037-10.496-18.622-2.971-7.021-4.213-14.414-3.76-22.028.601-10.02.061-19.994-1.372-29.915-.759-5.23-1.894-10.358-4.004-15.217a6.138 6.138 0 01-.32-1.113c-.047-.211.003-.451.287-.771.865 2.19 1.909 4.309 2.563 6.547 1.691 5.709 3.57 11.404 4.669 17.235.867 4.53.66 9.257.993 13.9.33 4.715.444 9.45 1.2 14.1.932 5.784 3.993 10.684 7.571 15.256.855 1.102 1.739 2.199 2.433 3.384.851 1.451 1.534 3.031 2.152 4.286zM210.825 363.902c.923.976 1.926 1.909 2.785 2.938 3.14 3.724 6.284 7.477 9.36 11.256 4.216 5.213 9.498 9.345 14.315 13.941 4.253 4.06 8.411 8.251 12.6 12.364.239.224.429.514.4 1.071-.692-.43-1.425-.838-2.081-1.317-6.144-4.535-12.83-8.157-19.392-12.016-4.401-2.583-8.54-5.628-12.782-8.498-.602-.414-1.085-.993-1.6-1.494.12-.164.244-.3.364-.464 2.313 1.688 4.562 3.43 6.935 5.036 2.517 1.686 5.105 3.273 7.689 4.832 2.534 1.522 5.136 2.918 7.654 4.429 2.518 1.511 4.993 3.116 7.587 4.557-5.698-6.145-12.306-11.32-18.217-17.242-4.714-4.773-15.357-17.82-15.617-19.393zM140.384 326.4c9.387 4.813 19.477 7.525 29.591 10.205.167.046.284.333.324.865-1.875-.463-3.745-.898-5.608-1.377-1.879-.492-3.771-.967-5.63-1.52-1.933-.555-3.835-1.189-5.991-1.404.667.361 1.327.766 2.018 1.095 5.453 2.622 10.931 5.211 16.401 7.845.801.384 1.539.923 2.225 1.499-3.131-.223-29.001-13.596-33.33-17.208zM46.014 299.769c.024-2.547.166-5.084.076-7.613-.303-7.99-1.826-15.79-3.759-23.511a14.973 14.973 0 01-.277-1.585c-.014-.186.028-.382.451-.651.744 3.183 1.533 6.373 2.22 9.565 1.626 7.522 2.188 15.123 1.935 22.808-.018.54-.141 1.054-.22 1.575-.16-.193-.293-.391-.426-.588z"/><path d="M46.014 299.769c.133.197.265.395.426.588-.052 1.897-.1 3.823-.153 5.721-.175-.002-.35-.004-.52.023-.226-2.101-.436-4.19-.674-6.275-.733-6.644-2.724-12.975-5.173-19.163-.076-.206-.123-.416-.022-.694 1.258 1.722 1.877 3.733 2.622 5.71 1.577 4.143 2.506 8.416 3.047 12.808.038.43.291.841.447 1.282z"/><path d="M107.881 103.752c-1.022.436-2.01.997-3.087 1.267-2.923.733-5.864 1.453-8.847 1.992-9.176 1.65-18.34 3.285-27.689 3.552-14.806.408-29.297-1.719-43.587-5.36-5.283-1.34-10.615-2.441-15.815-3.998-11.069-3.3-22.02-3.146-33.068.105-7.673 2.244-15.44 4.169-23.157 6.231-.364.086-.694.298-1.474.609 4.975 3.38 9.732 6.474 14.345 9.765 4.68 3.339 9.322 6.727 13.821 10.313 4.483 3.573 8.774 7.408 13.313 11.249 1.759-.653 3.616-1.233 5.37-2.016 9.992-4.423 20.57-6.409 31.331-7.682 6.41-.754 12.85-1.308 19.04-3.176 4.233-1.286 8.36-2.875 12.56-4.286 5.577-1.889 11.12-4.004 16.795-5.544 7.198-1.938 14.475-1.504 21.697.246 8.338 2.012 16.262 5.28 24.252 8.32 6.692 2.546 13.308 5.262 19.996 7.779 3.568 1.347 7.21 2.421 10.817 3.645.828.278 1.629.662 2.438 1-.018.163-.053.314-.071.477-.473.132-.959.28-1.449.4-7.617 1.858-15.296 3.42-22.803 5.61-18.857 5.473-37.939 6.054-57.226 3.092-17.59-2.704-35.174-5.38-52.764-8.084-8.8-1.344-17.5-.829-26.13 1.245-.575.134-1.116.393-2.107.751 13.47 12.445 26.682 24.626 40.083 36.996 2.879-.087 5.89-.077 8.893-.299 3.547-.278 7.118-.588 10.612-1.206 1.869-.321 3.567-1.545 5.43-1.996 3.612-.884 7.254-1.671 10.932-2.23 3.065-.479 6.17-.702 9.272-.852 5.594-.292 10.835-1.822 15.962-3.989 6.081-2.577 12.157-5.183 18.343-7.457 7.876-2.901 16.031-3.738 24.304-2.05 12.314 2.525 23.432 7.445 31.91 17.052 3.888 4.421 7.291 9.268 10.741 14.049 6.268 8.672 12.185 17.617 19.378 25.606 1.476 1.63 3.121 3.132 4.502 4.995-2.028-.701-4.088-1.324-6.061-2.135-5.408-2.237-10.423-5.218-15.184-8.617-4.121-2.932-8.19-5.901-12.275-8.883-7.317-5.339-15.146-9.771-23.495-13.249-12.255-5.121-24.94-6.862-38.12-5.065a4182.8 4182.8 0 01-18.692 2.525c-7.86 1.053-15.633.61-23.418-.747-7.264-1.279-14.573-2.289-21.902-3.237-2.804-.362-5.684-.276-9.106-.41.821.977 1.215 1.54 1.68 2.005 4.3 4.27 8.601 8.541 12.95 12.745.683.649 1.63 1.315 2.521 1.438 6.911.97 13.81.649 20.571-1.104 3.98-1.043 7.837-2.503 11.753-3.768 10.215-3.281 20.1-1.976 29.809 2.017 6.228 2.559 12.029 5.912 17.059 10.388 7.699 6.85 16.106 12.659 24.938 17.922 6.489 3.856 12.061 8.727 16.468 14.885 3.236 4.523 5.785 9.401 7.701 14.596 2.86 7.795 5.433 15.706 8.362 23.476 3.193 8.44 7.041 16.603 11.667 24.354a485.458 485.458 0 013.74 6.451c.32.56.869 1.187-.124 1.996-.558-.407-1.177-.834-1.743-1.298-6.31-5.032-11.528-11.077-16.038-17.713-4.676-6.857-9.009-13.941-13.528-20.91-6.58-10.208-13.603-20.085-23.389-27.553-11.78-8.975-24.616-15.677-39.419-18.133-2.223-.365-4.428-.893-6.639-1.274-6.62-1.161-12.646-3.723-18.144-7.559-5.563-3.884-11.437-7.24-17.71-9.807-2.361-.969-4.86-1.611-7.315-2.346-1.693-.506-3.42-.862-5.326-.971.429.514.806 1.066 1.27 1.531 11.116 11.229 21.061 23.44 30.078 36.407 4.123 5.926 7.812 12.137 11.762 18.163a23.063 23.063 0 003.268 3.893c7.715 7.516 17.191 11.415 27.525 13.827 7.571 1.754 15.164 3.65 22.418 6.354 16.979 6.331 30.775 16.953 40.934 32.11 5.195 7.764 8.436 16.415 11.074 25.305.977 3.278 1.8 6.594 2.789 9.855.277.93.789 1.882 1.447 2.564 11.042 11.227 20.21 23.951 29.366 36.693 2.673 3.71 4.887 7.739 7.391 11.578 1.397 2.151 2.922 4.195 4.384 6.292.467.668.883 1.374 1.58 2.486-11.697-3.784-22.412-8.361-32.57-14.391 1.131 5.753 4.366 10.553 5.857 16.192-.537-.367-1.081-.688-1.57-1.121-3.565-3.004-7.067-6.062-10.668-9.017-6.874-5.671-12.605-12.392-17.825-19.571-2.647-3.641-5.097-7.416-7.652-11.115-.526-.761-1.056-1.551-1.699-2.221-6.694-7.123-13.376-14.262-20.147-21.315-4.287-4.461-9.325-7.962-14.846-10.734-1.672-.843-3.321-1.72-5.013-2.502-7.377-3.397-14.245-7.63-20.396-12.949-.468-.392-.984-.718-1.69-1.233-.029.833-.095 1.439-.046 2.028.566 11.728 1.888 23.352 3.769 34.933.313 1.913 1.097 3.491 2.303 4.974 3.897 4.755 9.099 7.446 14.802 9.244 7.661 2.423 15.59 3.583 23.47 4.984 8.64 1.528 16.2 5.261 22.831 10.955 5.239 4.501 9.069 10.037 11.774 16.286 6.478 14.86 9.723 30.428 9.541 46.662-.112 11.107.227 22.216 1.789 33.237.479 3.442 1.315 6.843 1.965 10.259.144.734.275 1.483.062 2.534-.612-.471-1.38-.831-1.823-1.43-2.829-3.875-5.808-7.683-8.318-11.753-2.183-3.555-3.984-7.358-5.699-11.174-2.364-5.27-3.579-10.909-4.704-16.532-1.737-8.609-3.491-17.231-6.826-25.372-2.207-5.382-4.879-10.575-7.627-15.698-1.682-3.139-3.82-6.032-5.913-8.917-3.143-4.305-7.029-7.87-11.335-10.962-3.211-2.318-6.47-4.571-9.729-6.824-9.085-6.328-17.721-13.133-24.784-22.059.039.531-.006 1.076.102 1.583 1.765 9.535 3.814 19.025 5.166 28.61.711 5.02 2.933 8.728 6.56 11.853a49.795 49.795 0 005.243 3.876c3.523 2.27 7.178 4.359 10.713 6.612 7.137 4.554 12.534 10.63 15.832 18.443 1.958 4.622 2.984 9.519 3.009 14.515.017 7.279 1.21 14.36 2.667 21.458 3.254 15.901.857 30.897-7.468 44.885-2.465 4.134-4.942 8.286-7.203 12.519-3.346 6.307-6.566 12.682-9.721 19.104-2.481 5.053-4.102 10.408-5.249 15.906a9.816 9.816 0 01-.29 1.121c-.039.123-.2.206-.377.379-1.158-.343-1.002-1.486-1.127-2.281a251.659 251.659 0 01-1.345-11.315c-1.419-15.04 1.099-29.545 5.821-43.799 2.588-7.817 4.881-15.747 7.029-23.684 2.314-8.544 3.237-17.249 1.887-26.078a48.863 48.863 0 00-3.676-12.464c-3.151-7.051-7.06-13.65-11.344-20.045-3.546-5.303-6.774-10.802-8.638-16.964-.114-.36-.326-.69-.689-1.433-.118.919-.258 1.421-.227 1.896.984 20.354-1.912 40.442-4.172 60.59-.51 4.556-.987 9.136-.988 13.686.022 7.685.236 15.384.734 23.038.788 12.493-.874 24.656-4.236 36.634-2.051 7.253-5.622 13.799-10.163 19.813a184.132 184.132 0 01-24.26 26.345c-6.008 5.37-11.608 11.215-17.422 16.803-1.364 1.318-2.864 2.511-4.31 3.769-.13-.096-.267-.22-.398-.316.111-.497.162-1.013.322-1.474 1.559-4.168 2.498-8.486 3.148-12.89 1.577-10.841 3.228-21.68 6.215-32.248 2.935-10.428 6.37-20.644 12.254-29.877 4.761-7.487 10.326-14.388 15.929-21.236 2.451-3.013 4.968-5.979 7.386-9.016 7.748-9.683 12.818-20.591 14.229-32.962 1.5-13.111 2.641-26.283 3.92-39.403a3.422 3.422 0 00-.404-2.03c-.578 2.067-1.206 4.098-1.74 6.172-1.896 7.592-4.723 14.807-9.05 21.354-4.219 6.4-7.465 13.258-9.583 20.638-2.51 8.778-7.222 16.301-13.298 23.006-6.436 7.094-13.223 13.808-21.177 19.192-3.982 2.7-8.114 5.191-12.197 7.718-6.48 4.02-12.538 8.6-18.357 13.505-.872.747-1.786 1.412-2.986 1.919.132-.456.232-.937.442-1.362.422-.923.845-1.847 1.35-2.711 4.61-7.623 7.874-15.85 11.2-24.058 2.425-5.975 5.127-11.847 8.15-17.537 4.932-9.272 12.177-16.682 20.402-23.024 7.305-5.632 14.952-10.837 22.396-16.316 3.626-2.659 7.243-5.375 10.601-8.355 4.189-3.707 7.347-8.24 9.269-13.526 1.714-4.758 3.276-9.551 4.79-14.381.39-1.223.364-2.6.363-3.908.059-13.584-2.331-26.844-5.237-40.052-1.024-4.695-2.019-9.394-3.031-14.105-.147-.66-.31-1.332-.754-2.033-.132.456-.337.91-.368 1.365-.284 4.419-.884 8.859-.705 13.264.771 18.062-6.887 32.135-20.168 43.612-3.278 2.837-6.783 5.434-10.185 8.13-3.671 2.928-6.32 6.626-7.851 11.066-.928 2.717-1.867 5.451-2.583 8.222-2.943 11.404-9.901 19.903-19.346 26.537-3.104 2.185-6.468 4.004-9.763 5.899-5.275 2.99-10.6 5.841-15.87 8.859-1.55.881-2.903 2.081-4.356 3.107-.407.282-.904.446-1.554.475.443-.607.874-1.197 1.334-1.792 6.389-8.236 12.745-16.495 17.114-26.029 2.742-5.994 5.103-12.191 7.7-18.265 1.866-4.347 3.71-8.733 5.824-12.973 4.521-9.121 11.195-16.369 19.65-21.991 4.728-3.137 9.577-6.059 14.364-9.103 7.256-4.636 13.307-10.479 17.54-18 1.465-2.626 2.797-5.451 3.54-8.328 1.65-6.464 2.938-13.016 4.226-19.569.309-1.56.161-3.252.026-4.859-.933-9.882-1.995-19.76-2.9-29.647-.411-4.398-.89-8.771-2.348-13.078-.075.448-.247.926-.221 1.372.217 3.629.139 7.318.755 10.885 1.52 8.803.987 17.214-2.593 25.563-3.336 7.774-6.218 15.752-9.072 23.727-3.128 8.729-8.46 15.826-15.315 21.91-7.109 6.328-14.867 11.754-23.043 16.548-9.241 5.425-17.209 12.207-23.412 20.98-2.82 4.001-5.608 8.026-8.428 12.028-.427.618-.935 1.178-1.73 1.578.39-1.224.768-2.431 1.187-3.659 2.596-7.484 5.127-15.015 7.8-22.467 6.442-17.953 17.02-33.063 31.48-45.465 6.226-5.362 12.59-10.599 18.796-16.001 13.163-11.488 19.564-26.353 21.524-43.403.342-3.018.555-6.031.678-9.059.045-1.199-.171-2.488-.584-3.644-3.233-9.349-7.347-18.285-12.398-26.798-3.293-5.547-6.466-11.156-9.94-16.558-6.573-10.252-13.58-20.219-21.514-29.503-3.931-4.604-8.003-9.084-12.023-13.602a5.142 5.142 0 00-2.026-1.428c.28 1.134.558 2.268.849 3.385 2.387 8.958 6.64 17.015 11.83 24.649 2.605 3.837 4.953 7.889 7.095 12.017 1.204 2.312 2.148 4.911 2.461 7.478.808 6.473 2.963 12.546 5.267 18.552 3.268 8.545 3.779 17.215 1.822 26.095-2.394 10.824-6.843 20.777-12.313 30.337-3.23 5.664-6.536 11.296-9.777 16.977-3.853 6.793-6.88 13.937-9.347 21.313-.517 1.534-1.11 3.036-2.054 4.535-.419-2.216-.878-4.412-1.24-6.637-1.592-9.359-2.551-18.758-2.756-28.26-.198-8.995 1.477-17.629 4.936-25.915 2.73-6.531 5.62-12.97 8.257-19.544 1.704-4.263 3.146-8.616 4.577-12.953 3.275-9.929 3.089-19.871-.018-29.807-1.818-5.777-3.87-11.473-5.523-17.305-1.7-6.043-3.039-12.2-4.544-18.302-.622-2.49-1.186-4.989-1.889-7.437-.74-2.602-2.352-4.734-4.241-6.59-10.276-10.14-20.617-20.225-30.933-30.344-.428-.412-.908-.788-1.73-1.488.117.839.07 1.282.225 1.622 2.544 5.402 3.696 11.195 4.86 16.973 1.572 7.835 3.02 15.705 4.649 23.531 1.46 7.025 4.235 13.626 6.833 20.299 1.408 3.617 2.57 7.331 4.017 10.927.768 1.843 1.85 3.563 2.97 5.234 3.863 5.661 5.903 11.927 6.568 18.698.95 9.72.512 19.381-.667 29.056-.572 4.711-.941 9.42-1.424 14.146-.098.96-.284 1.905-.455 2.862l-.524-.006c-1.023-4.04-1.938-8.127-3.087-12.133-1.174-4.076-2.708-8.037-5.043-12.279-2.973 7.862-5.785 15.263-7.366 23.009-1.574 7.702-2.59 15.535-3.933 23.782-.612-.849-1.078-1.416-1.42-2.017-2.256-3.935-3.826-8.123-5.085-12.461-2.022-7.082-4.351-14.087-6.191-21.213-1.142-4.429-1.726-9.003-2.374-13.524-1.273-8.899-.404-17.668 1.982-26.311.625-2.234 1.156-4.512 1.783-6.92-.687-1.23-1.37-2.534-2.146-3.779C5.245 236.225.562 222.901.444 208.182c-.053-7.23.04-14.453.149-21.665.143-9.6-.524-19.088-2.981-28.399-1.453-5.485-4.161-10.353-7.035-15.166-.432-.717-1.053-1.347-1.695-1.915-11.22-10.225-23.31-19.325-36.04-27.584-.373-.247-.805-.412-1.583-.828.292.841.46 1.367.659 1.888 2.309 5.758 6.117 10.6 9.503 15.71 4.625 6.996 8.907 14.219 12.197 21.976 1.614 3.817 2.446 7.844 2.858 11.966.919 9.144.896 18.304.219 27.464-.375 4.957-.733 9.925-.83 14.882-.17 8.224 1.812 15.981 5.244 23.439 1.952 4.215 3.844 8.513 5.343 12.901 2.707 7.833 2.84 15.849.677 23.876-1.69 6.31-3.456 12.588-5.117 18.894-.53 2.001-.85 4.056-1.671 6.147-.168-.701-.392-1.392-.531-2.097-1.32-6.771-2.387-13.61-4.002-20.319-2.41-10.132-5.769-20-10.44-29.343-2.682-5.351-5.283-10.744-7.925-16.116-5.204-10.612-7.795-21.806-6.848-33.61.766-9.523 1.886-19.014 3.067-28.486.864-6.937 1.835-13.847 2.004-20.864.246-10.431-2.46-20.124-7.166-29.316-.438-.848-1.228-1.626-2.023-2.155-2.409-1.557-4.87-3.077-7.406-4.425-12.752-6.817-25.579-13.462-38.263-20.406-10.569-5.777-21.01-11.763-31.408-17.842-15.4-8.976-31.295-16.93-48.004-23.216a86.112 86.112 0 01-4.294-1.8c-.392-.187-.714-.572-1.03-.828-.124-2.379.551-3.27 2.675-2.976 1.827.253 3.635.843 5.354 1.519 12.593 4.966 24.767 10.783 36.432 17.712 11.554 6.873 23.223 13.553 34.924 20.156 7.587 4.28 15.365 8.197 22.984 12.4 9.592 5.29 19.116 10.706 28.675 16.074.414.226.823.424 1.137.578 3.105-1.531 6.109-2.959 9.07-4.468 9.448-4.847 16.903-12.028 23.373-20.305 2.29-2.93 4.591-5.877 6.811-8.883 6.224-8.457 14.1-14.803 23.801-18.861 4.598-1.924 9.489-2.906 14.342-3.94 10.06-2.137 19.836-5.16 28.967-9.987.726-.375 1.51-.657 2.258-.992.135.124.287.26.423.384-.39.672-.692 1.431-1.168 2.014-7.985 9.56-16.455 18.615-27.291 25.089-6.01 3.583-11.989 7.19-17.983 10.786-.306.18-.588.426-.768.949.67-.09 1.355-.168 2.008-.27 8.432-1.39 16.692-.717 24.84 1.935 7.04 2.273 13.934 4.99 20.438 8.48 13.022 6.964 26.996 10.625 41.428 12.935 2.296.369 4.601.794 6.882 1.251.782.169 1.522.533 2.277.808-.097.029-.094.232-.08.419zm6.168 166.544c-.051.139-.107.249-.158.388 2.205 1.458 4.345 2.97 6.598 4.362 3.092 1.93 6.256 3.762 9.384 5.642 6.466 3.889 11.902 8.912 16.602 14.806 4.109 5.186 7.708 10.729 11 16.45 4.568 7.935 9.059 15.94 13.349 24.049 5.881 11.13 11.936 22.161 18.829 32.698 5.152 7.858 10.477 15.616 17.133 22.309 5.022 5.073 10.405 9.756 15.64 14.607.054.064.231-.007.378-.001-.317-.634-.646-1.251-.918-1.877-1.443-3.19-3.048-6.297-4.285-9.563-3.076-8.153-5.107-16.6-7.001-25.098-2.792-12.572-5.475-25.19-9.664-37.399-2.428-7.077-5.405-13.952-9.799-20.024-11.169-15.392-25.799-26.044-44.067-31.607-2.822-.853-5.676-1.628-8.518-2.42-8.069-2.243-16.392-3.69-24.04-7.336-.144-.079-.321-.008-.463.014zm14.541 211.325c-.118-.011-.264-.017-.382-.028-.115.193-.275.378-.33.59-2.742 8.407-7.548 15.611-13.119 22.381a1259.485 1259.485 0 00-13.458 16.679c-7.298 9.206-13.082 19.266-16.633 30.503-1.018 3.255-2.048 6.526-3.005 9.8-2.965 10.332-4.538 20.926-6.346 31.499-.563 3.285-1.545 6.49-2.348 9.726-.116.469-.232.937-.483 1.936 1.038-1.078 1.676-1.744 2.33-2.399 5.987-5.963 11.798-12.132 18.029-17.843a181.592 181.592 0 0022.513-24.779c4.093-5.435 7.401-11.343 9.392-17.86 3.642-12.051 5.501-24.347 4.686-37.01-.385-6.189-.583-12.393-.839-18.589-.064-1.53-.015-3.079-.007-4.606zm74.127-177.642c.077-.07.153-.14.217-.193-.379-.755-.69-1.535-1.122-2.252-1.437-2.407-2.99-4.722-4.347-7.17-5.377-9.858-9.319-20.303-12.979-30.894-2.022-5.876-4.182-11.701-6.681-17.372-4.027-9.123-10.382-16.401-18.908-21.567-10.245-6.22-20.019-13.051-29.119-20.874-5.945-5.118-12.985-8.495-20.549-10.672-5.587-1.613-11.296-2.335-17.038-1.22-3.343.653-6.688 1.48-9.9 2.606-5.73 2.029-11.483 3.814-17.627 4.032-.621.024-1.245.223-1.864.349 2.351 1.188 4.753 1.859 7.012 2.829 5.87 2.499 11.523 5.468 16.746 9.129 6.154 4.315 12.878 7.161 20.3 8.328 1.461.236 2.911.49 4.35.861 4.736 1.194 9.61 2.06 14.178 3.76 21.318 7.965 37.497 22.109 49.21 41.544a560.76 560.76 0 0014.105 22.187c3.621 5.408 7.649 10.534 12.331 15.108.564.537 1.131 1.001 1.685 1.481zm-222.626-18c.256-.316.4-.412.423-.546 1.725-7.013 3.54-14.011 5.175-21.04 1.665-7.207 1.255-14.395-1.212-21.35-1.646-4.67-3.72-9.201-5.753-13.752-2.724-6.087-4.643-12.415-4.697-19.092-.07-6.035.216-12.112.642-18.137.652-9.229.808-18.468-.108-27.685-.408-4.195-1.197-8.316-2.962-12.168-1.413-3.093-2.86-6.211-4.612-9.149-3.319-5.615-6.847-11.082-10.311-16.601-.154-.238-.533-.339-1.11-.685 2.457 9.965 1.799 19.617.649 29.287-.282 2.384-.738 4.766-1.004 7.162-1.031 9.405-2.221 18.82-2.955 28.266-.908 11.406 1.666 22.21 6.642 32.479 2.68 5.526 5.452 10.994 8.08 16.557 1.667 3.504 3.31 7.041 4.62 10.688 3.943 10.823 6.895 21.902 8.052 33.407.115.738.287 1.467.44 2.359zM5.44 136.301c.047.21.107.404.154.615.451.002.91.061 1.37.019 6.078-.542 12.097-.072 18.101.865 15.734 2.456 31.493 4.705 47.185 7.356 21.217 3.592 42.17 3.169 62.909-3.092 5.928-1.783 11.949-3.348 18.144-3.981.057-.009.111-.221.087-.188-4.602-1.549-9.277-2.999-13.869-4.666-5.625-2.043-11.143-4.336-16.775-6.334-7.832-2.774-15.657-5.593-23.626-7.939-7.679-2.26-15.538-2.137-23.22.152-4.973 1.474-9.89 3.216-14.729 5.09-8.869 3.434-17.931 5.997-27.45 6.946-5.554.547-11.097 1.354-16.597 2.344-3.92.685-7.793 1.856-11.684 2.813zm141.947 421.568c.158-.011.317-.021.487-.047 1.034-3.243 1.913-6.549 3.148-9.721a149.705 149.705 0 0110.452-21.587c3.113-5.297 6.225-10.594 9.149-15.978 5.602-10.292 8.1-21.292 6.936-33.029-.331-3.233-.796-6.489-1.467-9.669-1.321-6.319-2.427-12.658-2.264-19.151.039-1.707-.182-3.402-.391-5.113-.778-6.376-2.995-12.192-6.892-17.324-3.369-4.445-7.531-8.01-12.313-10.897-5.442-3.293-11.112-6.274-15.82-10.64-.087-.088-.29-.086-.563-.159.095.421.148.761.246 1.109 1.535 5.269 4.088 10.074 7.068 14.637 4.548 6.965 8.962 14.008 12.44 21.575 2.45 5.358 4.058 10.906 4.65 16.744.861 8.397-.182 16.612-2.425 24.68-2.442 8.753-5.001 17.495-7.871 26.111-4.704 14.092-6.207 28.483-5.114 43.209.1 1.758.342 3.493.544 5.25zm-94.11-378.763c.672.214.95.316 1.235.374 5.053.897 10.09 1.782 15.144 2.679 6.462 1.171 12.965 1.391 19.483.591 5.845-.738 11.71-1.436 17.536-2.389 16.844-2.717 32.745.062 47.944 7.659 7.254 3.635 14.022 7.971 20.496 12.846 7.016 5.271 13.995 10.591 21.824 14.644.871.46 1.75.875 2.617 1.307.008-.597-.227-.895-.463-1.192-3.88-4.743-7.901-9.362-11.584-14.238-5.436-7.159-10.445-14.662-15.973-21.763-14.757-18.916-39.983-25.283-62.027-15.925-4.921 2.09-9.858 4.169-14.812 6.236-4.627 1.929-9.392 3.153-14.418 3.458-3.645.206-7.255.638-10.9.946-5.54.458-10.696 2.251-16.103 4.767zm82.899 187.368c-.147.27-.277.552-.424.822 2.693 2.442 5.213 5.086 8.086 7.283 6.356 4.865 12.839 9.521 19.339 14.189 4.946 3.559 9.491 7.53 13.085 12.492a129.163 129.163 0 015.769 8.735c3.72 6.134 6.802 12.557 9.072 19.368 2.575 7.737 4.453 15.67 5.882 23.702 2.337 13.196 7.985 24.886 15.787 35.659.336.471.828.83 1.429 1.419-.59-2.568-1.217-4.81-1.616-7.087-1.926-10.658-2.663-21.43-2.475-32.229.25-13.948-1.568-27.544-5.966-40.811-1.869-5.638-4.049-11.126-7.363-16.059-6.777-10.075-16.275-16.251-28.126-18.791-3.956-.85-7.972-1.342-11.923-2.164-6.689-1.412-13.432-2.612-19.557-5.9-.364-.19-.676-.417-.999-.628zM25.311 330.922c.215-.019.442-.054.657-.073.074-.826.165-1.64.195-2.473.268-6.844 1.11-13.646 3.003-20.235 1.68-5.814 3.616-11.567 5.434-17.33 1.381-4.373 2.901-8.694 4.099-13.125 2.438-9.058 2.794-18.226.789-27.433-1.378-6.311-3.436-12.414-5.906-18.365-3.452-8.327-6.446-16.798-8-25.727-1.156-6.65-2.51-13.27-3.79-19.887-.083-.437-.32-.836-.475-1.277-.255.418-.267.71-.263 1.015.214 9.007.526 17.984.623 26.98.102 9.402-.304 18.811-2.175 28.056-1.442 7.144-3.288 14.219-5 21.318-1.33 5.541-2.097 11.141-1.86 16.845.307 7.088 1.283 14.086 3.05 20.932 2.003 7.798 4.398 15.505 6.737 23.221.753 2.585 1.894 5.052 2.882 7.558zm36.673-105.838c-.109.046-.223.064-.332.11.948 3.181 1.855 6.382 2.842 9.542 1.815 5.85 3.812 11.657 5.461 17.562 1.969 7.018 2.663 14.162 1.18 21.428-1.206 5.958-2.93 11.765-5.221 17.384-2.885 7.122-5.938 14.197-8.962 21.268-3.935 9.146-5.83 18.7-5.226 28.62.55 8.823 1.416 17.627 2.14 26.452.051.515.216 1.013.432 2.026.405-1.037.654-1.585.813-2.148 2.105-7.188 5.018-14.038 8.679-20.569 3.39-6.023 6.892-11.991 10.267-18.026 5.07-9.048 9.193-18.484 11.453-28.677 1.934-8.746 1.32-17.24-1.865-25.623-1.951-5.146-4.102-10.261-4.65-15.814-.452-4.479-1.87-8.632-4.12-12.511-1.632-2.826-3.423-5.54-5.137-8.325-2.566-4.236-5.16-8.467-7.754-12.699zM-25.163 99.685c1.56-.345 2.754-.604 3.945-.892 8.39-2.124 16.828-2.729 25.34-.54 7.373 1.886 14.793 3.605 22.163 5.463 13.617 3.426 27.398 5.388 41.5 5.119 10.913-.207 21.574-2.409 32.32-3.869 1.31-.175 2.826-.427 4.244-1.68-1.132-.172-1.893-.3-2.638-.416-3.374-.477-6.791-.859-10.155-1.453-9.194-1.63-18.28-3.686-26.775-7.723-4.476-2.135-8.969-4.282-13.493-6.352-6.371-2.915-12.818-5.658-19.671-7.19-14.456-3.208-27.947-.709-40.24 7.518-5.537 3.728-10.797 7.834-16.54 12.015zm63.619 382.986c.074.105.16.193.235.297.525-.27 1.07-.501 1.578-.784 3.4-1.868 6.839-3.683 10.18-5.644 4.291-2.501 8.672-4.886 12.718-7.741 8.952-6.34 15.382-14.596 18.137-25.433.696-2.71 1.62-5.354 2.5-8.006 1.627-4.847 4.492-8.841 8.49-12.008 2.923-2.317 5.888-4.553 8.774-6.922 8.855-7.24 15.51-16.011 19.018-27.053 1.874-5.873 1.93-11.841 1.579-17.905a2.488 2.488 0 00-.668 1.121c-3.058 10.012-9.016 18.035-17.324 24.216-4.845 3.605-10.011 6.824-15.174 9.97-11.38 6.908-19.886 16.288-25.089 28.582-2.632 6.225-5.282 12.438-7.788 18.73-3.899 9.751-9.305 18.603-15.865 26.764-.432.59-.858 1.209-1.301 1.816zm-.045-49.991c.155.063.298.143.47.217.458-.696.933-1.381 1.39-2.077 4.211-6.457 8.704-12.681 14.479-17.87 4.755-4.274 10.175-7.635 15.616-10.955 7.114-4.338 13.811-9.206 20.073-14.718 6.567-5.793 11.699-12.582 14.731-20.904 3.064-8.399 6.177-16.763 9.612-25.017 3.033-7.29 3.664-14.699 2.305-22.379-.076-.483-.264-.947-.425-1.417a9.735 9.735 0 00-.521-.078c-.11.599-.159 1.217-.314 1.808-3.647 14.158-10.501 26.304-21.945 35.677-5.94 4.867-11.829 9.797-17.588 14.897-10.077 8.913-18.904 18.939-24.775 31.149-3.469 7.198-6.358 14.669-9.418 22.065-1.393 3.183-2.488 6.406-3.69 9.602zm88.54 9.126l-.479-.274c-.137.05-.34.053-.412.152-4.478 6.135-10.516 10.478-16.598 14.814-7.274 5.176-14.547 10.353-21.623 15.774-10.852 8.322-19.216 18.712-24.548 31.39-2.227 5.289-4.465 10.594-6.614 15.915-1.866 4.623-3.985 9.11-6.734 13.289-.374.582-.67 1.195-1.21 2.21 3.813-2.95 7.06-5.71 10.563-8.132 4.791-3.291 9.732-6.374 14.668-9.484 7.874-4.965 14.65-11.183 21.13-17.819 7.909-8.081 13.803-17.256 16.971-28.245 1.271-4.427 3.446-8.648 5.517-12.794 1.627-3.262 3.827-6.207 5.626-9.395 1.342-2.39 2.488-4.923 3.743-7.401zm-20.904-175.464c2.558 5.211 5.24 10.286 7.588 15.544 1.937 4.305 3.591 8.756 5.16 13.22 1.975 5.666 3.181 11.524 3.961 17.448.131 1.026.57 1.699 1.427 2.248 4.812 2.984 9.561 6.123 14.429 8.997 3.971 2.345 8.266 3.971 12.78 4.952 4.168.904 8.372 1.759 12.547 2.619.66.13 1.335.17 2.417.306-.493-1.013-.802-1.692-1.152-2.349a760.344 760.344 0 00-4.935-8.982c-3.963-7.041-8.019-14.024-12.764-20.579-5.245-7.248-11.424-13.492-19.251-17.996a651.352 651.352 0 01-7.611-4.524c-4.823-2.866-9.394-6.077-13.434-9.981-.391-.36-.846-.667-1.162-.923zM53.907 41.935c-.14-.153-.264-.293-.416-.43-2.85 1.39-5.624 2.986-8.567 4.158-7.582 3.015-15.439 5.201-23.466 6.76-6.476 1.258-12.497 3.753-18.049 7.294-6.075 3.914-10.973 9.039-15.351 14.794-4.122 5.44-8.453 10.753-12.993 15.837-2.51 2.819-5.539 5.21-8.535 7.524-2.566 2-5.433 3.653-8.426 5.618.685-.078 1.08-.067 1.444-.153 8.562-2.325 16.54-5.78 23.384-11.572 4.585-3.87 9.484-7.31 14.828-10.048 7.736-3.983 15.668-7.547 22.95-12.39 4.201-2.793 8.647-5.231 12.757-8.14 6.082-4.336 11.45-9.52 16.489-15.045 1.33-1.443 2.657-2.813 3.95-4.207zM15.49 248.956l.461-.116c.224-.892.51-1.765.644-2.673.886-5.588 1.858-11.19 2.552-16.793.683-5.586.513-5.559-2.588-10.336-4.82-7.416-7.598-15.427-6.635-24.428.164-1.465.12-2.955.256-4.415.88-8.887-1.478-17.094-5.414-24.895-1.368-2.708-2.89-5.377-5.198-7.967-.008.699-.077 1 .008 1.263 2.439 9.474 2.987 19.126 2.82 28.861a882.743 882.743 0 00-.131 20.47c.098 14.126 4.434 26.995 11.86 38.902.444.701.905 1.414 1.365 2.127zm193.52 104.068c.052.515.063 1.051.171 1.557.484 2.265.957 4.545 1.486 6.817 2.006 8.379 4.065 16.72 6.042 25.102.525 2.244 1.674 3.736 3.713 4.973 8.951 5.375 18.447 9.59 28.023 13.662.155.063.373-.03.503-.035-12.346-18.086-24.526-36.228-39.938-52.076zM-3.826 147.892c-.128.107-.273.203-.402.31.839 1.366 1.56 2.823 2.527 4.082 4.245 5.587 8.11 11.35 10.642 17.974 2.082 5.416 3.482 10.939 3.233 16.791-.144 3.264-.305 6.516-.466 9.767-.385 8.519 2.685 15.889 7.815 23.052.108-1.078.238-1.737.25-2.408-.016-8.383.155-16.782-.149-25.15-.288-8.079-1.062-16.112-3.876-23.798-.716-1.981-1.408-3.893-3.052-5.395-5.037-4.606-10.001-9.31-14.974-13.969-.489-.433-1.03-.828-1.548-1.256zm45.828 102.637c-.25.446-.39.569-.373.683.078.685.173 1.383.295 2.076.99 5.775 1.2 11.585.124 17.363-.801 4.268-1.843 8.486-2.946 12.684-.372 1.439-.336 2.596.247 4.002 1.67 4.085 3.162 8.241 4.654 12.397.544 1.529.882 3.133 1.3 4.696l.454-.071c.589-6.938 1.29-13.893 1.704-20.832.4-6.748.275-13.502-.828-20.19-.74-4.463-2.087-8.714-4.63-12.808zm138.113 106.977c.116-.091.221-.165.338-.256-4.307-7.845-8.614-15.689-12.842-23.401-7.414-1.589-14.601-3.113-21.775-4.652.98.69 1.999 1.257 3.05 1.747 7.708 3.564 14.386 8.539 20.179 14.727 1.747 1.878 3.518 3.724 5.26 5.574l5.79 6.261z"/></g></g></svg>