<?xml version="1.0" encoding="utf-8"?><svg width="24" height="21" fill="none" xmlns="http://www.w3.org/2000/svg" viewBox="0 0 24 21"><path fill-rule="evenodd" clip-rule="evenodd" d="M8.91 10.596c-.162.465-.4.712-.589 1.105-.42 1.126.92 1.225 1.625 1.14-.12.124-.218.077-.577.448-.764.84.34 1.43.856 1.738.444.333.623.84 1.087 1.003 1.344.343 1.56-2.75 1.019-3.13-.043.34.11.776-.023 1.557-.055-.389-.024-1.46-.271-1.699-.048.098-.185.636-.398.956.162-.465.086-.683.06-.756-.388.056-.815.695-.974 1.403.04-.584.321-1.173.872-1.693-.533.106-.943.332-1.088.383a1.917 1.917 0 011.157-.652c-.367-.115-.585-.039-.948.089.265-.175.504-.422.816-.695-.145.051-.747.426-1.234.434.436-.153.944-.332 1.11-.553-.806-.206-1.024-.13-1.906-.552.806.205 1.002.3 1.804.262l-.64-.428c.244-.004.709.159.905.253.068-.269-.895-1.153-1.044-1.345.49.235 1.185 1.05 1.258 1.025.111-.61-1.278-2.241-2.269-1.811-.747.426-.496.908-.607 1.518zM16.305 9.136c-.926-.082-2.344.987-2.524 1.866.073-.025.645-.716 1.008-.844-.167.222-.55.52-.739.913.243-.004 1.455-.268 2.308-.16-.874.063-1.92.105-2.304.403l1.22.223c-.29.102-.776.11-1.289.046.2.337 1.229.71 1.352.829-.635-.184-1.053-.445-1.322-.513.051.145.2.337.298.384-.072.025-.414-.018-.46.08.268.069 1.224.467 1.322.514-.512-.065-1.054-.445-1.562-.266.051.145.422.504.742.717l-.883-.423c.179.508.772 1.034 1.07 1.418-.49-.235-.964-.884-1.287-1.341-.09.44.067 1.118.173 1.651-.226-.41-.366-1.502-.442-1.72-.235.49-.223 1.22-.143 1.681.396 1.819 1.143 1.392 2.125.476.359-.371 1.528-.293 1.563-1.12-.034-.56-.597-.77-.772-1.034.146-.051.44.09.657.013.389-.055.697-.57.714-.985.039-.584-.473-.649-.297-1.77.065-.513-.063-.876-.528-1.038zM12.386 10.514c-.05-.145-.4-.675-.43-.99.124.12.328.7.499.721.086-.682.005-1.143.334-1.83.026.073-.27 1.318-.044 1.728l.33-.687c.003.244-.134.781-.13 1.024.197.094.91-.89 1.124-1.21-.21.563-.808 1.18-.855 1.279.73-.012 1.61-1.219 1.721-1.829.01-.9-.357-1.016-1.185-1.05-.802.037-1.399-.732-2.026-.43-.628.303-.514 1.323-.335 1.831.205.58.503.965.997 1.443zM13.938 5.646c.63 1.327.725 1.131 1.266 1.511-.755-.06-1.254-.782-1.266-1.511zm1.2-.993c.738.474 1.296 1.827.429 2.377.231-.734.082-.926-.071-1.362.196.094.226.41.35.53.017-.414-.06-.632-.137-.85-.149-.192-.324-.456-.57-.696zm-.004-.244c-.912-.739-1.689-.628-1.545.707.14 1.093.701 2.689 2.03 2.059 1.327-.63.377-2.172-.485-2.766zM16.86 8.859C18.007 7.72 19.445 7.867 20 7.59c.919-.404-.156-.678-.596-.768-1.194-.15-2.441.94-2.545 2.037z" fill="#3E0B3D"/><path fill-rule="evenodd" clip-rule="evenodd" d="M12.51 12.02c-.443-.333.01-.9.5-.665.124.12.226.41.06.631a.406.406 0 01-.56.034zm-.737-.475c-.043.342.06.632.234.897.52.55 1.344.342 1.673-.344.307-.516-.093-1.19-.729-1.375-.537-.137-1.114.31-1.178.822zM17.36 3.79c-.457 1.71-.274 2.46-2.27 5.365.53-.35.845-.38 1.063-.456.872-1.693 1.185-3.352 1.208-4.91zM17.259 10.92c1.123-1.211 2.587-.992 3.142-1.27.917-.404-.183-.75-.597-.768-1.22-.223-2.467.868-2.545 2.037zM18.878 4.152c-1.182.579-.986.673-1.221 1.163-.06-.631.564-1.177 1.221-1.163zm.917.982c-.355.614-1.538 1.193-2.01.544.682.086.802-.037 1.139-.238-.094.197-.312.273-.431.397.315-.03.533-.106.725-.255.218-.077.384-.299.577-.448zm.217-.077c.522-.835.437-1.54-.775-1.276-.922.161-2.25.791-1.623 1.876.652 1.157 1.95.21 2.398-.6zM16.865 1.68c-.27 1.318-.078 1.169.126 1.75-.494-.479-.506-1.209-.126-1.75zm1.361-.071c.23.653-.066 1.898-.893 1.863.576-.447.525-.592.615-1.032.077.218-.09.44-.039.585.24-.247.333-.444.33-.687l-.013-.73zm.094-.197c-.358-1.015-.946-1.298-1.489-.291-.423.883-.813 2.325.48 2.522 1.293.198 1.315-1.36 1.009-2.23zM10.803 8.788c-1.258-1.026-2.688-.686-3.25-.895-.93-.325.06-.755.52-.836 1.115-.31 2.517.664 2.73 1.73zM7.392 13.006c-.342-.043-.49-.235-.785-.376-.857-.35-.914.647-.906 1.134-.025-.073-.05-.145-.298-.384-.618-.598-1.067.212-1.28.532-.214.32-.65.473-.693.814-.3 1.003 1.966 1.184 2.253.839-.27-.069-.56.033-1.17-.078.316-.03 1.072.03 1.264-.119-.124-.119-.465-.162-.712-.401.392.188.537.137.61.111-.102-.29-.546-.623-1.083-.76.439.09.831.278 1.228.71.017-.415-.255-.726-.209-.825.222.167.35.53.38.846.14-.295.09-.44.013-.657.076.217.298.384.447.576.047-.098-.276-.555-.233-.896.03.316.23.653.353.772.21-.563.086-.682.44-1.296-.136.537-.256.66-.197 1.292l.235-.49c.051.145-.064.512-.158.708.243-.004.888-.72 1.008-.844-.189.393-.74.913-.812.938.512.065 1.712-.928 1.384-1.628-.277-.555-.64-.428-1.079-.518zM8.336 18.463c.111-.61-.686-1.716-1.296-1.827.026.073.495.478.597.769-.15-.193-.324-.457-.618-.598-.022.17.212 1.067.1 1.677-.059-.632-.07-1.362-.343-1.673l-.18.878c-.052-.145-.034-.558.081-.925-.29.102-.593.861-.64.96.09-.44.303-.76.397-.956-.17-.022-.265.174-.337.2-.026-.073.068-.269-.03-.316-.094.196-.35.857-.397.956.043-.342.303-.76.176-1.123-.073.026-.385.299-.551.52.047-.098.307-.515.355-.613-.389.055-.795.524-1.034.77.188-.392.645-.715.957-.988-.269-.069-.802.037-1.165.165.337-.2 1.041-.285 1.212-.263-.32-.214-.904-.253-1.195-.151-1.31.216-1.033.771-.364 1.514.273.312.166 1.166.797 1.106.414.018.53-.349.794-.524-.021.17-.068.269-.064.512.102.29.422.504.665.5.512.064.53-.35 1.408-.17.341.044.56-.033.675-.4zM7.411 15.607c.145-.05.53-.349.7-.327-.047.098-.482.251-.53.349.513.065.901.01 1.392.245-.145.05-1.05-.202-1.315-.027l.49.235c-.144.05-.537-.137-.682-.086-.12.123.571.696.793.862-.392-.188-.861-.593-.887-.666.034.559.92 1.225 1.287 1.341.658.013.799-.28.812-.938-.034-.559.543-1.006.317-1.416-.179-.508-.883-.424-1.318-.27-.435.153-.7.327-1.059.698z" fill="#3E0B3D"/><path fill-rule="evenodd" clip-rule="evenodd" d="M6.294 15.675c.214-.32.657.013.443.333-.047.098-.264.175-.388.055-.098-.047-.175-.264-.055-.388zm.38-.542c-.268-.068-.486.009-.678.158-.359.37-.227.977.263 1.212.418.26.9.01.965-.503.116-.367-.208-.823-.55-.866z" fill="#3E0B3D"/></svg>