<?xml version="1.0" encoding="utf-8"?><svg width="176" height="159" fill="none" xmlns="http://www.w3.org/2000/svg" viewBox="0 0 176 159"><g opacity=".3"><path d="M72.845 167.21c-2.89-9.533-12.848-23.602 1.285-32.673m-.873 16.985c2.57 7.645 1.027 8.519-.412 15.688-11.23-13.054-9.508-25.491 1.58-33.123l-1.168 17.435z" stroke="#3E0B3D" stroke-width=".57" stroke-miterlimit="22.93"/><path d="M26.087 121.932c2.145 1.002 11.563 2.698 15.328 4.15 6.013 2.313 13.26 4.176 19.401 6.797m13.029.026c-9.38 4.574-17.693 8.094-18.181 8.351-11.063 5.821-22.46 8.043-51.664 9.637 18.553-26.751 48.4-14.07 65.296-16.472l4.549-1.516zm-2.352 1.105C53.184 137.569 28.515 138.982 4 150.867l67.493-16.857zm2.827.154c-5.975 4.625-8.017 6.501-8.634 14.955-.694 9.418-9.727 17.988-16.01 25.222.784-6.655-.398-15.045 2.095-21.765 3.469-9.315 13.247-15.945 22.742-19.954l-.193 1.542zm.424-.964c-18.926 8.853-22.446 35.192-25.068 41.115L74.745 133.2zm-7.542 1.452c-16.048-4.741-23.68-1.156-42.13-12.527 20.878-4.459 33.766 10.279 42.13 12.527z" stroke="#3E0B3D" stroke-width=".75" stroke-miterlimit="22.93"/><path fill-rule="evenodd" clip-rule="evenodd" d="M136.811 149.477a28.783 28.783 0 012.185-3.443c.976-1.041 2.094-2.39 1.529-3.778l-5.41-1.092c-.732 1.902.579.964-.321 2.467-2.801-.745-.321-2.929-3.238-2.775.154.63 2.133 3.045 2.763 4.099a51.343 51.343 0 002.492 4.522zm-5.948-7.118a6.07 6.07 0 00-2.48-3.405 6.302 6.302 0 002.48 3.405zm10.15-3.225a45.055 45.055 0 00-4.536-.437c.874.566 3.367 1.221 4.536.437zm-14.892-1.76l.656.321-.656-.321zm5.32-.321c.578 1.015 1.079.488 2.338.784 1.58.372.54.591 2.57.385a8.677 8.677 0 00-4.973-1.169h.065zm0 0c-.694-.861-.09-.437-1.054-.54l1.054.54zm-25.697-5.923l-.36.565.36-.565zm0 0l.347-.566-.347.566zm19.851-.63l.359.321-.359-.321zm-.36-.308l.36.308-.36-.308zm-54.298 11.242c0 .527-.064 1.118-.103 1.786.034 1.854.315 3.694.835 5.474.758 2.351 2.57 1.914 4.562 2.968.693-.848-.09-.219.925-.566.45.823.925 2.262 1.387 3.212 4.035 1.427 3.367 1.786 4.831 2.377 1.94.784 1.632-.064 3.007.167 1.375.232 1.143.913 3.11.296l10.638-4.291c2.441-1.427 4.869-5.911 5.602-8.301.565-1.837 2.3-9.341 1.208-11.229-.116 1.516.475 1.529-2.043 3.405 0-1.285.681-2.12.809-3.418-2.454 1.889-1.362 4.099-5.332 6.244.141-1.182 1.645-2.402 1.889-3.713-1.594.27-2.082 1.131-3.778 1.169 0-2.171 3.855-2.569 5.217-3.983-.45-2.313-.617.501-1.157-2.428a.297.297 0 000-.167l-3.854 2.955-1.58-.925 1.824-1.041a5.446 5.446 0 00-1.478-2.788c-1.169.475-1.079.064-2.081.655-1.722 1.002.373-.154-.707 1.581l-1.053-1.08a22.052 22.052 0 01-3.855 1.375c-5.666 2.03-6.912 4.022-8.506 4.227-.578.065-1.285.257-2.017.373.309-1.375 2.917-1.568 4.125-3.007a5.818 5.818 0 00-4.548 1.851c-1.209-1.285-2.262-1.285-4.33-1.285-2.57 3.083-3.213 4.06-3.483 6.681l-.115 1.465.051-.039zm44.019-10.613c1.131-.27.848-.282 1.683-1.053-.437-.27-1.105-1.028-1.734-.501-1.516 1.284.604.115 0 1.554h.051zm-13.889-1.876l.347-.308-.347.308zm25.196 27.458c3.225 0 8.57.231 8.994-4.754.128-1.375-1.092-3.701-1.709-5.05-.835-1.799-.565-2.993-2.737-4.24.463 1.555 1.696 3.033.822 4.42-.295-.205-4.972-7.041-5.679-8.03-1.516-2.094 0-1.773-2.775-3.559-1.221-.797-2.981-2.57-4.304-2.737l1.773 1.658c-.861.578-1.169.321-2.043.192-.501 2.737-.077.874 3.572 5.936 1.503 2.095 3.302 4.844 2.325 7.375-.758-.745-2.389-4.895-4.15-7.709-.912-1.452-1.156-.899-2.569-1.85l-.977-3.752 1.658-.565-2.082-1.144-1.387 1.028c-1.182-.758-.386-.334-1.144-1.285-.835 1.285-.36.81.398 1.594a3.745 3.745 0 011.041 1.644 11.845 11.845 0 011.131 4.292c-2.788-3.469-.977-2.454-2.403-4.639l-.077 3.367-2.171-4.022c-.527-1.362-1.517-2.865-.874-4.279l-1.825-.616c.579-.334.334-.668 3.071.103l1.285 2.248c1.593-2.017-.771-2.21-1.285-3.122-.077-.141.077 0-.231-.514a11.798 11.798 0 00-.54-.668c-2.094 2.094-3.996 0-4.278 3.777 1.169.154-.925.193.359 0 .656-.128-.308-.09.45-.09 1.709 1.529 5.332 7.645 3.855 9.431-.938-1.285-.309-1.143-.9-2.133-.244 2.416.399 4.896-.976 6.887-.912-1.285 1.079-5.743-.09-7.812-.424.553-.655 6.347-.642 7.439 0 3.02.256 4.215 2.569 6.322 3.623 3.302 2.493 2.274 6.155 2.762 1.811.232 3.019 2.313 6.861 2.493.899-1.503.449-3.765.629-5.615 1.786 1.285.72 3.598.758 5.281l.142-.064zm-24.888-27.766l.347-.321-.347.321zm19.042-4.998l.706.308-.706-.308zm0 0l-.656-.321.656.321zm14.506-1.285a34.172 34.172 0 01-5.281.951c-2.48.09-4.112-.463-6.424-.244a9.23 9.23 0 005.871 1.041c2.069-.309 4.574-.065 5.782-1.748h.052zm1.066-.308s-.103 0-.128.103c-.026.102.603.308.128-.103zm-41.552-1.285c-.373-.321-1.08.398-.398.154 0 0 .886.257.398-.154zm10.279-1.799l-.848 2.004c1.452.142 1.863.347 2.839-.295a2.314 2.314 0 00-1.991-1.709zm-2.75-1.901a1.76 1.76 0 00-.141 3.122 2.57 2.57 0 00.141-3.122zm-11.563 1.194c-.373-.308-1.08.412-.386.167 0 0 .874.257.386-.167zm30.656 5.615c1.606 1.285 5.294 1.671 5.692 3.726-1.426-.591-3.148-1.349-4.625-1.811-1.915-.604-3.649-1.825-5.333-1.003.746 1.529.771.245 3.495 2.018.835.552 2.403 1.811 3.277 2.492.629 0 .449-.655 2.261.18 5.782 2.66 3.135 1.478 9.919 1.94-.553 3.405-7.285-.115-9.893-.668l2.454 1.619.09.874a15.21 15.21 0 01-6.026-3.521 6.432 6.432 0 00-3.302-1.49c-2.262-.54-.913-1.503-3.611-1.542 1.144 1.914 9.328 7.581 11.564 8.107-.694-.886-.912-.552-.861-1.284a8.485 8.485 0 013.392 1.284c2.261 1.08 9.713 3.354 12.848 2.956 2.917-.36 4.318-2.21 6.913-3.547a4.355 4.355 0 002.57-2.377c.95-2.749-.656-.835 1.593-3.52-.874-2.634-.771-1.401.27-4.034.809-2.056.886-2.429 0-4.523h-.399a2.034 2.034 0 01-.565-.129c-.976-.308.553-.167-1.285-.385-3.983-.475-5.807 2.57-8.081 3.122.282-3.675 5.769-5.281 8.993-3.777v-1.452l-3.25-1.632c-.455.378-.941.717-1.452 1.015-3.058 1.285-3.071 3.315-4.715 2.75.218 1.349.642.462-.142 1.452-1.927-.27-.244-1.093-1.503-.63-1.555.578.591.501-1.285 1.567-1.837-.514 1.195-1.708-3.225 0 .103 1.157.321-.565.45 1.285-6.257 2.236-.823.835-7.491 1.799a24.869 24.869 0 01-4.818.129c-1.748-.103-2.313-.81-3.932-.938l.013-.052zm-12.643-4.111c1.002-1.285-.283-3.675-2.107-2.776.552 1.144.257.257 1.105 1.285.385.489.655 1.067 1.002 1.478v.013zm-4.24-3.739c-.283.462-.617-.077-.09.938.63-.771.707-.18.09-.938zm-43.685 1.49c-2.3.334-1.978-1.118-4.6.103.54 7.786 9.547 13.106 14.853 13.838 2.48.347 6.643 1.285 8.994 1.079l.296-1.105a23.534 23.534 0 008.994-2.441 8.171 8.171 0 002.261-.514c1.568-.681.655-.552 1.028-1.079.655-.951 2.8-1.092 3.855-1.722-.553-1.002.115-.244-1.362-.732.86-1.285.54-.501.23-1.285a7.266 7.266 0 01-.462-1.838l-1.465.694a14.43 14.43 0 01-3.995 2.968l-.707-.835c1.285-.784 2.069-.231 2.994-1.901-3.79-.412-5.268.873-8.005-.116-5.705-2.056-8.287-4.266-12.964-7.491-3.315-2.287-2.737-2.017-5.217-4.882-4.47-.373-9.43 3.854-9.238 5.383 1.53 1.067 3.855-.244 4.472 1.915l.038-.039zm59.579-3.623s-.103 0-.116.116c-.013.115.604.308.116-.116zm2.133 0a22.429 22.429 0 00-3.29 1.452 30.796 30.796 0 00-3.854 1.053c1.593 1.08 1.824.155 3.854-.436a4.616 4.616 0 003.277-2.069h.013zm2.12 0l.347-.308-.347.308zm.347-.308l.346-.309-.346.309zm-11.731-.938s-.103 0-.116.115c-.013.116.604.309.116-.115zm35.86.629c.899-.578.912-.334.411-1.22l-.411 1.22zm-38.725-1.927c-.296.462-.63-.077-.103.938.629-.771.719-.18.103-.938zm-12.772 1.285l-1.426-2.172c-1.49 1.105.462 2.056 1.426 2.172zm10.279-2.416s-.103 0-.129.103c-.025.103.617.308.129-.103zm-12.142-3.122l.514 2.159c.668-.733 0-1.517-.514-2.159zm-.732 1.825c-.116-.527 0-.617-.476-1.041-.475-.424.245-.553-1.284-.077.655.809.758.951 1.708 1.118h.052zm.732-1.825l-.18-1.054c-.86 0-.334-.256-1.195.54l1.375.514zm7.388-2.184s-.103 0-.116.115c-.012.116.604.309.116-.115zm-.745-1.555s-.103 0-.129.103c-.025.103.617.308.129-.103zm-7.157-2.57a25.692 25.692 0 001.683 5.14c.643 1.85 1.015 1.002 2.313 3.032l.758 1.067c1.002-1.285-.347-.386-2.107-4.33a23.875 23.875 0 00-2.647-4.96v.051zm32.404-8.994l.347-.308-.347.308zm14.879-1.362a4.55 4.55 0 00-5.435-1.207 33.182 33.182 0 00-6.489 5.923c2.853-.36 4.767-5.692 8.994-5.486-.218.693-.359.642-1.285 1.284-.514.335-1.156.669-1.67 1.016-6.424 4.24-4.972 5.833-7.259 8.402-1.478-.128.732.09-.656-.385-1.105-.385.309.347-.925 0 .463-1.619 1.041-1.722 1.696-2.89.784-1.427-.963-1.119.758-2.995 1.285-1.362 3.637-3.353 4.407-4.754-5.396 0-5.139 1.375-7.606 4.343-.064-1.105 0-.822.565-1.85-3.533.835-7.811 8.66-8.068 8.917-1.195 1.182-.09-1.285-3.405 4.407a29.681 29.681 0 00-2.968 5.435 6.422 6.422 0 012.441 1.786l2.069-1.85c.321 2.132-.669 2.672-2.21 3.674 1.156.72 1.066.219 2.132-.758 1.157.257.45.733 1.966-.115 5.461-3.058 3.122-2.647 5.564-4.33.231 2.055-.913 2.312-1.953 3.739 1.747-.142 1.066-.63 2.762-.887l-.617 1.516c1.722 1.144-5.139 4.15-8.994 4.42 0 .218.951 2.326 1.067 2.493a6.137 6.137 0 012.107-.54c.76.21 1.503.476 2.223.797l-1.426.783c1.207 1.594 1.696.681 3.096.669a33.05 33.05 0 004.895 0 6.285 6.285 0 012.236-.155c2.57.219 1.992 0 6.129-1.207a23.29 23.29 0 009.739-5.05c1.131-1.092 2.377-.886 2.762-2.197l-.603.296-.116-.617-.797.231c-1.837-4.561 5.936-6.424 5.037-10.394-.835-3.688-1.49-2.75-2.493-3.225-.09-1.208-.514-1.157-.321-2.442.116-.796.501-1.284.617-2.287l-1.439-.938a12.5 12.5 0 00-5.576 1.67c-1.144.849-2.57 2.725-3.457 3.329-.231-2.03-.218-1.285.694-2.352l1.915-1.914c-4.652-.116-9.624 8.544-10.639 9.379-1.285 1.092 0-.205-1.85.527 1.182-4.741 6.835-8.017 8.698-9.598 1.863-1.58 2.57-1.04 4.626-1.285a4.559 4.559 0 00-.823-3.225l-.09-.115-.025.013zm-49.891 17.307c-2.21.168-.745 1.401-3.855 1.157l1.285-.694-.36-1.362c1.157.411.437.437 1.401.064-1.208-1.721-4.381-5.345-2.84-7.233.874 1.027 1.144 2.569 1.864 3.854a23.495 23.495 0 002.35 3.482c1.196-1.375.605-1.786 2.57-1.824 0-.296-2.235-5.14-2.57-5.718-.539-1.053-2.685-3.996-3.507-5.14-3.11-4.252-3.675-6.295-9.713-7.541l.41.848c-2.12.154-.282-.386-2.775-.81h-.218l-1.028-.193a6.527 6.527 0 01-4.124-1.94c-1.028 1.285-.771 2.403-.733 3.996 2.917.566 2.056-.437 4.639 2.57.59.694 3.623 2.57 4.664 3.456a30.897 30.897 0 013.585 4.112c1.284 1.657 3.006 2.724 3.109 4.869-2.775-1.593-6.54-8.891-13.093-12.167a16.222 16.222 0 01-3.02-1.427c-.77-.668-1.284-1.554-2.12-2.235-2.44-.257-4.008.732-3.648 2.955 1.721 1.092 2.133.308 3.854 2.261 1.093 1.285 2.57 1.285 2.339 3.225-1.17.077-9.842-10.458-8.596 1.452.283 2.686 1.44 1.516 1.94 5.923.411 3.598 2.403 7.902 5.975 9.932 2.133 1.208 12.309 8.545 15.83 8.596l3.327-.553a38.072 38.072 0 014.009-.218c-.604-.488-.553-.809-1.041-1.542l-1.452.398c-1.362-1.952.437-.231-2.775-1.696-3.02-1.387-9.598-3.648-10.138-4.291 1.191.079 2.373.26 3.534.54l-1.067-1.067c1.62.142 5.23 2.352 6.54 3.277 1.31.925.9 1.285 2.12.706-.45-.347.077 0-.655-.424-3.662-2.107-9.43-9.109-8.57-10.548.835.475 7.144 8.12 8.994 9.199 1.529.9 2.57 1.709 4.458 1.748-.604-1.812-1.452-.244-3.25-1.863-1.452-1.285-1.67-.797-2.917-2.493-1.246-1.696-4.291-3.559-4.651-5.602 5.987 3.739 7.632 8.84 10.536 8.185 0-1.041 0 0-.245-.861-.462-1.581-.295-.861-2.132-2.955.32-.759.938-1.105.81-2.005-.849 0-.926 1.144-1.851-.411 2.647-1.76 1.824.591 4.163 2.043-.231-1.169-.642-.642-.861-1.837l-.578-2.185.077-.013zm-13.67-21.225l.359.321-.36-.321zm-1.08-.617a9.945 9.945 0 00-5.37-1.876l5.37 1.876zm58.139-2.184l.913 2.197c.192-1.157.18-1.53-.913-2.197zm-6.424-2.814s-.103 0-.116.116c-.012.115.604.308.116-.116zm2.467-.617l-.707.141.707-.14zm0 0l1.902-.103c.488-2.171-3.264-5.05-6.849-5.345-1.426-.128-1.901.373-3.289.81a21.346 21.346 0 00-10.279 6.424c-.604.732-1.439 1.285-2.017 1.927l-4.394 7.812a12.97 12.97 0 00-.578 3.161c0 .63.077 1.285 0 1.85a10.893 10.893 0 00-.27 1.902c-.064 3.315.257.745-.475 3.263a18.079 18.079 0 00-.09 3.932H106.258c1.191.375 2.3.977 3.263 1.773 1.812-2.287 2.57.064 2.274.925-.449 1.375-.411-.128-.861 1.285 1.645-.09 1.285-.771 2.776-3.032 1.811-2.66 1.786-3.855 4.42-7.182.771-.99 1.439-2.352 2.325-3.483a33.994 33.994 0 013.148-2.788c1.67-1.798-.732-.308 3.161-2.775 4.664-2.955 8.506-1.118 9.366-2.93 0-1.554-1.4-3.289-1.773-4.882 1.285.373 0 0 1.401.9l.424-.938-1.606-1.876c-4.883 1.978-3.855-.373-8.442 4.908-1.4-.334 0-.27-1.105-.334-1.015 1.066-1.619 2.57-2.929 2.865.334-1.799 1.991-2.672 2.248-4.266-1.092.309-.449.193-1.207 1.144-2.3-2.647 4.766-6.155 9.597-5.82-.385 1.04.347.064-.976.886l-.013-.013zM80.92 77.153c.103-.475-.565-.296-.424 0 .566.064.334.463.424 0zm14.134 23.706c-.116-2.172-1.555-3.161-1.157-7.144 1.388 2.043.578 2.57 1.889 5.871.72 1.774 0 .309 1.285 1.041.45 2.416 1.709 3.495 2.762 5.808.514 1.13.45 1.285 1.452 1.619.925-1.542-1.67-4.163-1.991-8.699 1.464.386 0-.167 1.053.887.823.848 0 .578 1.414.552-1.118-1.156-.501 0-1.118-1.285.771-.886.398-.642 1.477-.925l.938 1.285c.514-1.182 1.118-1.092 1.362-1.734.514-1.285-.077-.707-.938-1.594 1.015-.706 1.465-.36.72-1.708-.591-1.093-1.092-.617-.604-1.928 1.722-.41-.334-.128 1.49.36.103-3.456 3.405-8.364 5.821-11.14-.912-2.762-3.148-7.709-6.142-8.916-5.14-2.07-1.722-1.041-5.589-1.285-7.388-.566-3.7-.797-6.566-1.49-3.43-.823-3.456 4.2-3.61 6.077-.938-1.414 0-1.44-1.876-3.65-2.403 0-4.047 1.285-6.167 3.148a30.17 30.17 0 014.561 3.392c-.36 3.123 2.313 2.57 2.274 5.525-2.171-1.362-2.89-4.612-7.709-7.105a7.838 7.838 0 00-1.76 6.116 19.274 19.274 0 005.563 2.98c1.285.553 3.251 3.162 4.125 4.267 2.351 3.032 5.743 8.48 6.99 9.675h.05zm42.927-13.44c2.788.835 2.055-.797 5.139 1.786 2.377 1.979.591 2.737 4.201 2.66a4.794 4.794 0 014.652 2.852c.912 2.89-1.799 1.992.963 5.14 1.015 1.169 1.157 3.931 1.144 5.37 0 2.57-1.593 2.891-2.262 5.139-1.169 3.855 2.506 6.566 3.855 10.048 1.144 2.942-.655 3.418-.912 5.486-.129 1.028.257 1.632-.077 2.75s-.784 1.58-1.08 2.775c-.578 2.364-.796 2.763-3.25 3.855-2.454 1.092-2.018 2.055-3.932 3.636-1.285 1.092-3.739 1.953-4.124 3.173-.938 2.943.102 2.172-2.095 5.217-1.284 1.85-.681 2.878-2.287 4.741-1.284 1.465-1.58 3.405-3.122 4.343a29.374 29.374 0 01-5.833 1.683c-2.724.552-3.276 1.015-6.039 0-1.85-.655-3.263-1.966-5.319-1.889a6.941 6.941 0 01-5.833-1.811c-1.838-1.452-1.863-2.467-3.148-3.778-1.953-2.004-1.966-.642-3.431 0-4.176 1.773-.411 2.827-8.994 5.14a23.036 23.036 0 00-5.32 2.171c-1.451.694-4.432.193-6.423.231-2.57.064-2.57-1.4-5.14-2.274-3.507-1.182-1.285-2.685-4.407-3.379-5.859-1.285-5.769-4.651-5.537-9.264-.07-1.88.12-3.761.565-5.589.231-.852.559-1.676.976-2.454.591-.848 1.285-1.028 1.696-2.017-.848-.81-2.57-.437-3.687-.81a40.797 40.797 0 01-3.752-1.747c-5.037-2.57-10.279-6.206-9.983-11.769.141-2.917-1.105-4.947 1.94-7.144s3.713.141 4.407-5.345c.552-4.356-1.17-11.86-.694-13.067.475-1.208 1.863-1.568 2.21-2.84.398-1.477-.373-2.12 1.426-3.25 1.799-1.131 2.685-.309 4.6-.771 1.388-1.426 0-2.57 2.57-3.482 2.788-.964 3.212.385 5.319.373.617-1.106-.54-2.262.732-4.6 1.272-2.339 2.467-6.823 6.489-7.285 3.135-.347 3.006 1.284 5.14-1.285 2.685-3.354 3.404-.232 10.484.32 9.379.72 11.383 8.263 12.154 8.905 1.632 1.349 7.787-6.309 14.134-6.052 3.186.129 8.724 1.645 9.174 4.96.372 2.66 1.606 1.889 2.441 4.086.835 2.197.141 4.098.475 4.96l-.205.102z" fill="#3E0B3D"/><path fill-rule="evenodd" clip-rule="evenodd" d="M101.736 73.722c-2.57.193-7.62.475-10.28-.604a18.963 18.963 0 001.62 9.302c.54 1.285 1.143 2.57 1.696 3.855.5 1.567.802 3.19.9 4.831l-4.51-10.189a21.047 21.047 0 01-1.414-5.41v-2.402a3.393 3.393 0 011.593-2.274c2.249 1.182.977 1.002 5.024 1.606 1.285.193 1.4.437 2.57.591 1.503.219 1.516-.116 2.814.668l-.013.026z" fill="#3E0B3D"/><path fill-rule="evenodd" clip-rule="evenodd" d="M101.742 73.722a8.503 8.503 0 012.993 1.131c.129.9-.205.167 0 1.028.27 1.285 0-.116.694 1.285-1.721 2.916-1.22 6-1.22 8.724 0 1.388-.322 1.709-.283 3.11h-.707c0-1.478.514-1.684.18-3.354a22.419 22.419 0 01.296-10.485l-2.57-.989.63-.462-.013.012zM77.118 151.121c-1.928-1.593-.784-3.43 1.181-6.308.643-.938.836-1.465 1.825-1.825.475.81.257 0 .103 1.285 1.4-.912.437-.475 1.028-.283-1.542 2.339-2.017 5.011-4.137 7.17v-.039zM90.352 139.186c.45-2.261 6.668-5.486 9.315-5.512-.334 1.529-7.324 5.499-9.315 5.512zM118.219 145.147c1.838-.758.63 0 .707 4.06 0 1.439.154 2.917 0 4.33l-1.979.411c.193-1.451 1.015-3.43.861-5.023-.167-1.799-.745-2.249-.411-5.602 1.002.796.54.398.758 1.824h.064zM92.103 87.704c-1.131-.192-.604-.308-1.85-.462 0-.694.655-.193-.142-2.082-.796-1.888-2.21-6.964-2.043-8.608 1.62 1.863 1.285 3.186 2.043 5.396.501 1.478 1.94 4.33 1.992 5.756zM98.934 141.744c-1.683 1.182-3.25.617-5.422 2.402-.758.63-2.235 3.649-4.471 2.57.745-1.554.938-.193 2.39-1.657 2.647-2.698-.771-.99 4.445-3.508a3.5 3.5 0 013.058.154v.039zM99.444 137.762a4.612 4.612 0 01-2.698 1.285c-3.186.861-5.525 4.368-8.107 4.934.578-2.056 9.11-7.607 10.805-6.168v-.051zM89.167 139.558c-2.184.784-3.457 2.891-5.384 5.024a14.53 14.53 0 011.285-3.983 13.82 13.82 0 013.07-2.904l1.042 1.863h-.013zM117.405 118.678c.591-1.221-.077-.335 1.876-.887.771-.218 1.542-.514 2.325-.745 1.825-.527 2.57-1.285 4.574-1.157-.424 1.953-2.248 1.555-3.854 2.12-1.606.566-2.981 1.619-4.972.669h.051zM71.766 120.837c-1.504.758-4.266-.116-5.91-.809-1.645-.694-1.17-.27-1.286-1.285 1.49.244 6.206 1.156 7.157 2.133l.038-.039zM78.48 109.853c-2.08-.296-2.068-1.285-3.353-2.3-1.285-1.015-2.75-1.67-3.045-2.891 1.645.27 6.026 3.482 6.424 5.14l-.025.051zM80.665 122.419c-1.105.771-1.131.733-2.647.437a16.42 16.42 0 01-3.135-.771 4.293 4.293 0 012.89-.886c2.57 0 2.712.848 2.892 1.22zM88.978 126.968l1.748-1.464.488-.412c.912-.603.142-.295 1.13-.462 0 0-.911 3.854-3.365 2.338zM85.707 150.441c0-.977 1.375-3.701 2.39-2.827.77.668-.283.964-.874 1.478a9.41 9.41 0 01-1.516 1.349zM129.124 116.172c-1.413-.065-.719.218-1.722-.412.296-1.94 3.444-2.184 1.722.412zM112.518 106.537c-1.131-.81-1.439-1.529-.81-2.57 1.452.514 1.748 1.503.81 2.57zM111.182 99.227h-.887c-.732-.912-.732-.912 0-1.773 1.491 0 1.851.578.938 1.722l-.051.051zM122.468 102.053a1.635 1.635 0 01-.527-1.476 1.654 1.654 0 01.951-1.247 3.124 3.124 0 01-.424 2.723zM92.52 131.18c-.205 1.028-.372 1.131-1.618 1.144-.116-1.285.668-1.992 1.619-1.144zM128.978 95.166l-2.146-.436c.809-.746.578-.81 1.619-.99l.527 1.426zM109.575 103.698c-.553-.848-.553-.771 0-1.619.591.218.822-.065.976.706.154.771-.732.835-.938.913h-.038zM90.25 123.64a3.044 3.044 0 01-3.135-.103 4.142 4.142 0 013.135.103zM92.5 125.771a2.272 2.272 0 011.953-1.76 2.286 2.286 0 01-1.953 1.76zM92.611 91.248c-.347-.398-.68-.758-1.04-1.195l1.284-.514c.064 1.285.257.887-.27 1.709h.026zM76.728 134.585c-.912.45-.514.334-1.773.206 1.503-1.902 1.478-.476 1.773-.206zM111.886 95.875c-.527-.99-.694-.553.321-1.285l.899.938-1.284.36.064-.013zM107.801 78.682l-1.401-.488.399-1.003c.258.168.485.382.668.63.321.475.257.308.334.86zM112.943 94.331c-1.105-.424-1.285 0-.295-1.285.822.643.848.334.295 1.285zM119.299 105.602c-.655-.964-.527-1.002.218-1.902.167 1.169.334 1.015-.218 1.902zM123.525 120.839c-.771.989-.373.822-1.285.192.476-.552.874-.668 1.285-.192zM120.947 103.096c-.617-.912-.642-.668.077-1.554.463.873.411.796-.077 1.554zM123.744 99.254c.18-1.092 0-.912.912-1.144-.205 1.144-.077.913-.912 1.144z" fill="#3E0B3D"/><path fill-rule="evenodd" clip-rule="evenodd" d="M111.886 95.874l-.295 1.234-.81-.759 1.105-.475zM92.942 92.698c-1.08-.192-.72.116-.963-.835.655.142.938 0 .963.835zM106.879 104.261c-.18-1.169-.296-.758.218-1.58.245.514.18.835-.218 1.58zM92.098 85.262c.86.835.758.668.668 1.85l-.668-1.85zM104.256 91.13c-.912-.244-.45.553-.668-.873.976.617.681 0 .668.873zM84.177 108.349c-.938-.578-.938-.334-.476-1.285l.476 1.285zM123.574 136.113c0 .372-.732.693-.54 0 .193-.694.527-.566.54 0zM104.862 139.56c0 .36-.746.681-.553 0 .193-.681.527-.578.553 0zM77.187 136.436c.514.437.219.604-.231.115-.45-.488-.296-.578.231-.115zM88.463 107.438c-.334.308-1.131-.398-.411-.167 0 0 .886-.257.41.167zM75.346 137.374c-.335.296-1.131-.411-.412-.167 0 0 .874-.257.412.167zM103.12 141.112c-.347.296-1.144-.398-.424-.167 0 0 .886-.257.424.167zM111.094 106.151c-.335.309-1.131-.398-.412-.167 0 0 .887-.257.412.167zM138.824 122.085c-.334.295-1.131-.412-.411-.168 0 0 .886-.256.411.168zM104.121 97.75c0 .719-.436 0-.218 0 0 0 .206-.81.218 0zM109.252 131.437c0 .732-.437 0-.218 0 0 0 .205-.797.218 0zM128.471 133.311l.334.077-.206.231-.128-.308zM84.18 108.35l.334.077-.206.231-.128-.308zM104.335 91.814s-.103-.128-.103-.09c0 .039 0 0 0 0s.604-.295.142.129l-.039-.039zM124.228 120.514s-.103-.128-.103-.09c0 .039 0 0 0 0s.617-.282.154.129l-.051-.039zM83.051 105.858s-.115-.129-.115-.09c0 .038 0 0 0 0s.616-.296.154.128l-.039-.038zM92.11 85.26l-.385-.566.385.565z" fill="#3E0B3D"/><path d="M215.137 1c-34.01 32.687-45.291 46.14-53.963 64.461-.386.86-7.645 13.35-15.29 28.267l4.227-6.155c19.62-19.53 69.254-32.61 65.026-86.573zm0 0c-20.223 39.29-47.167 66.8-67.467 89.246L215.137 1zm-78.466 15.727c-1.027 15.534-4.432 35.462 3.855 48.31 7.259 11.307 5.936 15.74 2.84 26.982l2.351 1.529c8.3-14.352 13.966-31.222 9.431-46.55-3.302-11.153-13.003-20.88-18.477-30.271zm0 0c2.377 10.201 23.924 46.37 8.429 76.204l-8.429-76.204zm-23.14 31.8c5.268 10.985 6.72 16.703 18.425 24.412 3.893 2.544 8.326 9.7 9.469 15.315l2.287 3.958c6.425-20.391-3.199-37.75-30.181-43.685zm0 0c12.926 9.469 38.43 18.502 29.667 43.48l-29.667-43.48zm39.021 36.734c25.44-9.457 31.839-21.547 66.813-24.76-22.742 26.122-53.849 19.492-66.813 24.76zm65.797-23.565c-3.764.771-17.615 7.71-23.936 9.534-10.061 2.852-21.714 7.414-32.25 9.983l56.186-19.517z" stroke="#3E0B3D" stroke-width=".75" stroke-miterlimit="22.93"/></g></svg>