<?xml version="1.0" encoding="utf-8"?><svg width="87" height="80" fill="none" xmlns="http://www.w3.org/2000/svg" viewBox="0 0 87 80"><path d="M49.593 72.876c-.62-2.036-2.755-5.041.275-6.98m-.187 3.63c.55 1.632.22 1.819-.088 3.35-2.408-2.788-2.039-5.445.338-7.075l-.25 3.724z" stroke="#3E0B3D" stroke-width=".57" stroke-miterlimit="22.93"/><path d="M39.57 63.205c.46.214 2.48.576 3.286.886 1.29.494 2.843.892 4.159 1.452m2.793.006c-2.01.977-3.793 1.729-3.897 1.784-2.372 1.243-4.815 1.718-11.075 2.058 3.977-5.714 10.375-3.005 13.997-3.519l.975-.323zm-.504.236c-3.925.76-9.213 1.062-14.468 3.6l14.468-3.6zm.605.033c-1.28.988-1.718 1.388-1.85 3.194-.149 2.012-2.085 3.843-3.432 5.388.168-1.422-.085-3.214.45-4.65.743-1.99 2.839-3.406 4.874-4.262l-.041.33zm.091-.206c-4.056 1.89-4.811 7.517-5.373 8.783L50 65.612zm-1.616.31c-3.44-1.013-5.076-.247-9.03-2.676 4.474-.953 7.237 2.196 9.03 2.676z" stroke="#3E0B3D" stroke-width=".75" stroke-miterlimit="22.93"/><path fill-rule="evenodd" clip-rule="evenodd" d="M63.305 69.089c.138-.256.295-.502.468-.736.21-.222.45-.51.328-.807l-1.16-.233c-.157.406.124.206-.068.527-.6-.16-.07-.626-.694-.593.033.135.457.65.592.876.161.33.34.653.534.966zm-1.275-1.52a1.296 1.296 0 00-.532-.728c.089.296.276.553.532.727zm2.176-.69a9.68 9.68 0 00-.973-.093c.188.12.722.26.973.093zm-3.192-.376l.14.069-.14-.069zm1.14-.068c.124.216.231.104.501.167.339.08.116.126.55.082a1.865 1.865 0 00-1.065-.25h.014zm0 0c-.149-.184-.02-.094-.226-.116l.226.116zm-5.508-1.266l-.077.121.077-.12zm0 0l.074-.12-.074.12zm4.255-.134l.077.069-.077-.07zm-.077-.066l.077.066-.077-.066zm-11.64 2.402c0 .112-.013.238-.021.381.007.396.067.79.179 1.17.162.502.55.408.978.633.148-.18-.02-.046.198-.12.096.175.198.483.297.686.865.304.722.381 1.036.508.416.167.35-.014.644.035.295.05.245.195.667.063l2.28-.916c.523-.305 1.044-1.263 1.2-1.774.122-.392.494-1.995.26-2.398-.025.324.102.326-.438.727 0-.275.146-.453.173-.73-.526.403-.291.876-1.142 1.334.03-.253.352-.513.404-.793-.341.057-.446.241-.81.25 0-.465.827-.55 1.119-.852-.097-.493-.132.108-.248-.518a.066.066 0 000-.036l-.826.631-.339-.197.391-.222a1.162 1.162 0 00-.317-.596c-.25.101-.231.014-.446.14-.369.214.08-.033-.151.337l-.226-.23a4.75 4.75 0 01-.826.294c-1.215.433-1.482.859-1.824.903-.123.013-.275.054-.432.08.066-.294.625-.336.884-.643a1.252 1.252 0 00-.975.395c-.259-.274-.485-.274-.928-.274-.55.658-.688.867-.746 1.427l-.025.313.01-.008zm9.436-2.267c.243-.058.182-.06.361-.226-.093-.057-.237-.22-.372-.107-.325.275.13.025 0 .332h.011zm-2.977-.401l.075-.066-.075.066zm5.401 5.865c.691 0 1.837.05 1.928-1.015.027-.294-.234-.79-.367-1.08-.178-.383-.12-.639-.586-.905.099.332.363.648.176.944-.063-.044-1.066-1.504-1.217-1.715-.325-.447 0-.379-.595-.76-.262-.17-.639-.55-.923-.585l.38.354c-.184.124-.25.069-.438.041-.107.585-.016.187.766 1.268.322.448.708 1.035.499 1.576-.163-.16-.513-1.046-.89-1.647-.196-.31-.248-.192-.55-.395l-.21-.802.355-.12-.446-.245-.297.22c-.254-.162-.083-.072-.245-.275-.18.275-.078.173.085.34a.801.801 0 01.223.352c.138.288.22.599.242.917-.597-.741-.209-.525-.515-.991l-.016.719-.466-.86c-.113-.29-.325-.611-.187-.913l-.391-.132c.124-.071.072-.142.658.022l.276.48c.341-.43-.166-.472-.276-.666-.016-.03.017 0-.05-.11a2.682 2.682 0 00-.115-.143c-.449.447-.856 0-.917.807.25.033-.198.041.077 0 .14-.027-.066-.02.096-.02.367.327 1.143 1.634.827 2.015-.201-.274-.067-.244-.193-.455-.052.516.085 1.045-.21 1.47-.195-.274.232-1.226-.019-1.668-.09.118-.14 1.356-.137 1.59 0 .644.055.9.55 1.35.777.705.535.485 1.32.59.388.05.647.494 1.47.532.193-.32.097-.804.135-1.2.383.275.154.77.163 1.129l.03-.014zm-5.335-5.931l.075-.069-.075.069zm4.082-1.068l.151.066-.151-.066zm0 0l-.14-.068.14.068zm3.11-.274c-.372.097-.75.165-1.133.203-.531.019-.881-.099-1.377-.052.384.21.826.289 1.259.222.443-.066.98-.014 1.24-.373h.01zm.228-.066s-.022 0-.028.022c-.005.022.13.066.028-.022zm-8.907-.275c-.08-.068-.231.085-.085.033 0 0 .19.055.085-.033zm2.203-.384l-.181.428c.31.03.399.074.608-.063a.494.494 0 00-.427-.365zm-.589-.406a.378.378 0 00-.173.522c.034.06.083.11.143.145a.548.548 0 00.03-.667zm-2.479.255c-.08-.066-.231.088-.082.036 0 0 .187.055.082-.036zm6.572 1.2c.344.274 1.134.356 1.22.796-.306-.127-.675-.289-.992-.388-.41-.129-.782-.39-1.143-.214.16.327.165.053.75.431.178.118.514.387.702.533.135 0 .096-.14.484.038 1.24.568.672.316 2.127.415-.119.727-1.562-.025-2.121-.143l.526.346.02.186a3.267 3.267 0 01-1.293-.752 1.38 1.38 0 00-.707-.318c-.485-.115-.196-.321-.774-.33.245.41 2 1.62 2.478 1.733-.148-.19-.195-.118-.184-.275.26.038.507.132.727.275.485.23 2.082.716 2.754.63.625-.076.925-.471 1.482-.757a.937.937 0 00.55-.508c.204-.587-.14-.178.342-.751-.187-.563-.165-.3.058-.862.173-.44.19-.52 0-.967h-.085a.437.437 0 01-.122-.027c-.209-.066.119-.036-.275-.082-.854-.102-1.245.549-1.732.667.06-.785 1.236-1.128 1.927-.807v-.31l-.696-.349c-.098.08-.202.153-.311.217-.656.274-.659.708-1.011.587.047.288.138.1-.03.31-.414-.057-.053-.233-.323-.134-.333.123.127.107-.275.335-.394-.11.256-.365-.691 0 .022.247.068-.121.096.274-1.341.478-.176.179-1.606.385a5.353 5.353 0 01-1.032.027c-.375-.022-.496-.173-.843-.2l.003-.011zm-2.71-.879c.214-.274-.061-.785-.452-.593.118.245.055.055.237.275.082.104.14.228.215.316v.002zm-.91-.798c-.06.098-.131-.017-.019.2.135-.165.152-.039.02-.2zm-9.363.318c-.493.071-.424-.239-.986.022.116 1.663 2.046 2.8 3.184 2.956.531.074 1.424.274 1.928.23l.063-.236a5.057 5.057 0 001.928-.521c.166-.013.329-.05.484-.11.336-.145.14-.118.22-.23.141-.203.601-.234.827-.368-.119-.214.025-.052-.292-.157.184-.274.116-.107.05-.274a1.542 1.542 0 01-.1-.393l-.314.149c-.246.259-.536.473-.856.634l-.151-.179c.275-.167.443-.05.641-.406-.812-.088-1.129.187-1.716-.025-1.222-.439-1.776-.91-2.779-1.6-.71-.488-.586-.43-1.118-1.043-.958-.08-2.021.824-1.98 1.15.328.228.826-.052.959.41l.008-.009zm12.77-.774s-.022 0-.024.025c-.003.024.13.066.025-.025zm.458 0a4.83 4.83 0 00-.705.31c-.28.057-.556.132-.827.225.342.23.391.033.827-.093a.992.992 0 00.702-.442h.003zm.454 0l.075-.066-.075.066zm.075-.066l.074-.066-.075.066zm-2.515-.2s-.022 0-.025.024c-.003.025.13.066.025-.024zm7.687.134c.192-.123.195-.071.088-.26l-.088.26zm-8.301-.411c-.063.098-.135-.017-.022.2.135-.165.154-.038.022-.2zm-2.738.274l-.305-.464c-.32.236.099.44.305.464zm2.203-.516s-.022 0-.027.022c-.005.022.132.066.027-.022zm-2.602-.667l.11.461c.143-.156 0-.324-.11-.461zm-.157.39c-.025-.113 0-.132-.102-.222-.102-.091.052-.118-.275-.017.14.173.162.203.366.239h.011zm.157-.39l-.039-.225c-.184 0-.071-.055-.256.115l.295.11zm1.584-.466s-.023 0-.025.024c-.003.025.13.066.024-.024zm-.16-.333s-.022 0-.028.022c-.005.022.132.066.028-.022zm-1.534-.549c.081.378.202.746.36 1.098.138.395.218.214.496.648l.163.228c.215-.275-.075-.082-.452-.925a5.097 5.097 0 00-.567-1.06v.011zm6.946-1.92l.074-.067-.075.066zm3.189-.292a.976.976 0 00-1.165-.258 7.107 7.107 0 00-1.391 1.265c.611-.076 1.022-1.215 1.928-1.172-.047.149-.077.138-.276.275-.11.071-.247.143-.358.217-1.377.906-1.065 1.246-1.556 1.795-.316-.028.157.02-.14-.082-.237-.083.066.074-.198 0 .099-.346.223-.368.363-.618.168-.305-.206-.239.163-.64.275-.29.779-.716.944-1.015-1.156 0-1.101.294-1.63.928-.014-.236 0-.176.121-.396-.757.179-1.674 1.85-1.73 1.905-.256.253-.019-.274-.73.942a6.325 6.325 0 00-.636 1.16c.203.084.382.215.524.382l.443-.395c.069.455-.143.57-.474.785.248.154.229.047.458-.162.248.055.096.156.421-.025 1.17-.653.67-.565 1.193-.925.05.44-.196.494-.42.799.375-.03.23-.134.593-.19l-.132.324c.369.245-1.102.887-1.928.945 0 .046.204.496.229.532.142-.065.295-.104.451-.115.163.045.322.102.477.17l-.306.167c.259.34.363.146.664.143.349.026.7.026 1.049 0 .157-.04.319-.05.48-.033.55.047.426 0 1.313-.258a4.999 4.999 0 002.087-1.078c.243-.234.51-.19.593-.47l-.13.063-.025-.131-.17.049c-.394-.974 1.272-1.372 1.08-2.22-.18-.788-.32-.588-.535-.69-.02-.257-.11-.246-.069-.52.025-.171.107-.275.132-.49l-.308-.2c-.421.024-.83.146-1.195.357-.245.181-.551.582-.741.71-.05-.433-.047-.274.148-.501l.41-.41c-.996-.024-2.062 1.826-2.28 2.004-.275.234 0-.044-.396.113.253-1.013 1.465-1.713 1.864-2.05.4-.338.551-.223.992-.275a.971.971 0 00-.176-.689l-.02-.025-.005.003zm-10.694 3.697c-.474.036-.16.3-.827.247l.276-.148-.077-.29c.248.087.093.093.3.013-.259-.368-.94-1.142-.609-1.545.188.22.245.549.4.823.145.262.314.511.504.744.256-.294.13-.382.55-.39 0-.063-.479-1.098-.55-1.221-.116-.225-.576-.854-.752-1.098-.667-.909-.788-1.345-2.082-1.611l.088.18c-.455.034-.06-.081-.595-.172h-.047l-.22-.041a1.4 1.4 0 01-.884-.415c-.22.275-.166.514-.157.854.625.12.44-.093.994.549.127.148.777.549 1 .738.281.27.538.564.768.879.276.353.645.581.667 1.04-.595-.34-1.402-1.9-2.807-2.6a3.479 3.479 0 01-.647-.304c-.165-.143-.275-.332-.454-.478-.524-.055-.86.157-.783.632.37.233.458.065.827.483.234.274.55.274.5.688-.25.017-2.109-2.234-1.842.31.061.574.309.325.416 1.266.088.768.515 1.688 1.28 2.122.458.258 2.64 1.825 3.394 1.836l.713-.118c.286-.031.572-.047.86-.047-.13-.104-.119-.173-.224-.33l-.31.086c-.293-.417.093-.05-.596-.363-.647-.296-2.057-.779-2.173-.916.256.017.509.055.758.115l-.229-.228c.347.03 1.121.503 1.402.7.28.198.193.275.454.151-.096-.074.017 0-.14-.09-.785-.45-2.022-1.946-1.837-2.254.179.102 1.531 1.735 1.928 1.965.328.193.55.365.956.374-.13-.387-.312-.053-.697-.398-.312-.275-.358-.17-.626-.533-.267-.362-.92-.76-.996-1.197 1.283.8 1.636 1.889 2.258 1.749 0-.222 0 0-.052-.184-.1-.338-.064-.184-.458-.631.07-.162.201-.236.174-.428-.182 0-.198.244-.397-.088.568-.376.391.126.893.436-.05-.25-.138-.137-.185-.392l-.124-.467.017-.003zm-2.93-4.534l.076.069-.077-.069zm-.232-.132a2.137 2.137 0 00-1.151-.4l1.151.4zm12.462-.466l.196.47c.041-.248.038-.328-.196-.47zm-1.377-.601s-.022 0-.025.024c-.002.025.13.066.025-.024zm.529-.132l-.151.03.15-.03zm0 0l.408-.022c.104-.464-.7-1.079-1.468-1.142-.306-.027-.408.08-.705.173a4.577 4.577 0 00-2.204 1.372c-.13.157-.308.275-.432.412l-.942 1.669c-.07.219-.11.446-.124.675 0 .135.017.275 0 .395a2.31 2.31 0 00-.058.407c-.014.708.055.159-.102.697-.037.278-.043.56-.019.84H56.755c.256.08.494.208.7.378.389-.488.551.014.488.198-.096.294-.088-.027-.185.274.353-.019.276-.164.595-.647.389-.569.383-.824.948-1.535.165-.211.308-.502.498-.743.212-.213.438-.412.675-.596.358-.384-.157-.066.677-.593 1-.631 1.824-.239 2.008-.626 0-.332-.3-.702-.38-1.043.275.08 0 0 .3.193l.091-.2-.344-.402c-1.047.423-.826-.08-1.81 1.049-.3-.072 0-.058-.236-.072-.218.228-.347.55-.628.613.071-.385.426-.571.482-.912-.234.066-.097.041-.26.245-.492-.566 1.023-1.315 2.058-1.244-.083.223.074.014-.21.19l-.002-.003zm-10.895-.667c.022-.102-.121-.063-.091 0 .121.014.072.099.09 0zm3.03 5.064c-.025-.464-.334-.675-.249-1.526.298.436.124.549.405 1.254.154.379 0 .066.276.223.096.515.366.746.592 1.24.11.242.096.275.311.346.198-.33-.358-.89-.427-1.858.314.082 0-.036.226.19.176.18 0 .123.303.117-.24-.247-.108 0-.24-.274.166-.19.086-.137.317-.198l.201.275c.11-.253.24-.234.292-.371.11-.275-.017-.15-.201-.34.218-.151.314-.077.154-.365-.127-.234-.234-.132-.13-.412.37-.088-.07-.027.32.077.022-.739.73-1.787 1.248-2.38-.196-.59-.675-1.647-1.317-1.905-1.101-.441-.369-.222-1.198-.274-1.583-.12-.793-.17-1.407-.319-.735-.175-.74.898-.774 1.299-.2-.302 0-.308-.402-.78-.515 0-.867.275-1.322.673.348.21.675.453.978.724-.077.667.495.55.487 1.18-.465-.29-.62-.985-1.652-1.517a1.672 1.672 0 00-.377 1.306c.36.276.762.491 1.192.637.275.118.697.675.884.911.504.648 1.231 1.812 1.498 2.067h.011zm9.2-2.871c.598.178.441-.17 1.102.382.51.422.127.584.9.568a1.03 1.03 0 01.998.609c.195.617-.386.425.206 1.098.218.25.248.84.246 1.147 0 .549-.342.618-.485 1.098-.25.823.537 1.402.826 2.146.245.629-.14.73-.195 1.172-.028.22.055.349-.017.588-.072.238-.168.337-.231.593-.124.504-.171.59-.697.823-.526.233-.433.439-.843.777-.275.233-.801.417-.884.677-.201.63.022.464-.449 1.115-.275.395-.146.615-.49 1.013-.276.313-.339.727-.67.927a6.32 6.32 0 01-1.25.36c-.584.118-.702.217-1.294 0-.397-.14-.7-.42-1.14-.404a1.49 1.49 0 01-1.25-.387c-.395-.31-.4-.526-.675-.806-.419-.429-.422-.138-.736 0-.895.378-.088.603-1.928 1.097a4.95 4.95 0 00-1.14.464c-.311.148-.95.041-1.377.05-.55.013-.55-.3-1.101-.486-.752-.253-.276-.574-.945-.722-1.256-.274-1.237-.994-1.187-1.979a4.347 4.347 0 01.121-1.194c.05-.182.12-.358.21-.524.126-.181.275-.22.363-.431-.182-.173-.55-.093-.79-.173a8.773 8.773 0 01-.805-.373c-1.08-.55-2.203-1.326-2.14-2.514.03-.623-.236-1.057.416-1.526.653-.47.796.03.945-1.142.118-.93-.25-2.533-.149-2.791.102-.259.4-.335.474-.607.085-.316-.08-.453.306-.694.385-.242.575-.066.986-.165.297-.305 0-.55.55-.744.598-.206.689.082 1.14.08.133-.236-.115-.483.158-.983.272-.5.528-1.457 1.39-1.556.672-.074.645.274 1.102-.275.576-.716.73-.049 2.247.069 2.01.154 2.44 1.765 2.606 1.902.35.288 1.669-1.348 3.03-1.293.682.028 1.87.352 1.966 1.06.08.568.344.403.523.873.179.469.03.875.102 1.059l-.044.022z" fill="#3E0B3D"/><path fill-rule="evenodd" clip-rule="evenodd" d="M55.786 52.907c-.55.04-1.633.101-2.203-.13a4.04 4.04 0 00.347 1.988c.116.274.245.549.364.823.107.335.172.681.192 1.032l-.966-2.176a4.484 4.484 0 01-.303-1.156v-.513a.723.723 0 01.341-.486c.482.253.21.214 1.077.343.276.041.3.093.551.126.322.047.325-.024.603.143l-.003.006z" fill="#3E0B3D"/><path fill-rule="evenodd" clip-rule="evenodd" d="M55.786 52.906c.228.04.445.121.642.242.028.192-.044.035 0 .22.058.274 0-.026.149.274-.37.623-.262 1.281-.262 1.863 0 .297-.069.365-.06.664h-.152c0-.315.11-.36.038-.716a4.774 4.774 0 01.064-2.24l-.55-.21.134-.1-.003.003zM50.51 69.44c-.413-.34-.168-.732.253-1.347.138-.2.179-.313.391-.39.102.173.055 0 .022.275.3-.195.094-.102.22-.06-.33.499-.432 1.07-.886 1.53v-.007zM53.346 66.89c.097-.483 1.43-1.172 1.997-1.177-.072.327-1.57 1.175-1.997 1.177zM59.32 68.165c.394-.162.135 0 .151.867 0 .308.034.624 0 .925l-.424.088c.042-.31.218-.733.185-1.073-.036-.384-.16-.48-.088-1.197.215.17.115.085.162.39h.014zM53.721 55.892c-.242-.041-.13-.066-.397-.099 0-.148.14-.04-.03-.444s-.474-1.488-.438-1.84c.347.399.276.681.438 1.154.108.315.416.925.427 1.23zM55.186 67.437c-.36.252-.697.132-1.162.513-.163.135-.48.78-.959.55.16-.333.202-.042.513-.355.567-.576-.166-.211.953-.75a.75.75 0 01.655.034v.008zM55.296 66.585a.99.99 0 01-.578.275c-.683.183-1.185.933-1.738 1.054.124-.44 1.953-1.625 2.316-1.318v-.01zM53.093 66.97c-.468.168-.74.618-1.154 1.073.05-.295.143-.582.275-.85.187-.24.409-.449.659-.62l.223.397h-.003zM59.146 62.51c.127-.26-.016-.072.402-.19.166-.046.33-.11.499-.159.39-.112.55-.274.98-.247-.09.417-.482.332-.826.453-.344.12-.639.346-1.066.143h.011zM49.361 62.97c-.322.163-.914-.024-1.267-.172-.352-.148-.25-.058-.275-.275.32.053 1.33.247 1.534.456l.008-.008zM50.802 60.624c-.447-.063-.444-.274-.72-.49-.275-.218-.589-.358-.652-.618.353.057 1.292.743 1.377 1.098l-.005.01zM51.27 63.31c-.237.164-.243.156-.568.093a3.529 3.529 0 01-.671-.165.922.922 0 01.62-.19c.55 0 .58.182.619.261zM53.051 64.28l.375-.313.105-.088c.195-.129.03-.063.242-.099 0 0-.196.824-.722.5zM52.35 69.294c0-.208.294-.79.512-.603.165.142-.061.206-.188.315a2.01 2.01 0 01-.325.288zM61.655 61.975c-.303-.014-.154.046-.369-.088.064-.415.739-.467.37.088zM58.097 59.916c-.242-.173-.308-.326-.173-.549.31.11.374.321.173.55zM57.81 58.355h-.19c-.156-.194-.156-.194 0-.378.32 0 .397.123.202.367l-.011.011zM60.229 58.959a.35.35 0 01.09-.582.664.664 0 01-.09.582zM53.809 65.181c-.044.22-.08.242-.347.245-.025-.275.143-.426.347-.245zM61.625 57.487l-.46-.093c.174-.16.124-.173.347-.211l.113.304zM57.466 59.31c-.118-.181-.118-.165 0-.346.127.047.176-.014.21.15.033.166-.157.18-.202.196h-.008zM53.324 63.57a.652.652 0 01-.672-.022.887.887 0 01.672.022zM53.806 64.025a.486.486 0 01.419-.376.488.488 0 01-.419.376zM53.831 56.65c-.074-.085-.146-.162-.223-.255l.275-.11c.014.275.055.19-.057.365h.005zM50.424 65.909c-.195.096-.11.071-.38.044.322-.408.317-.102.38-.044zM57.962 57.638c-.113-.212-.149-.118.069-.275l.193.2-.276.078.014-.003zM57.087 53.966l-.3-.105.085-.213a.552.552 0 01.143.134c.069.102.055.066.072.184zM58.188 57.308c-.237-.09-.275 0-.063-.275.176.137.181.072.063.275zM59.551 59.717c-.14-.206-.113-.214.047-.407.036.25.072.217-.047.407zM60.458 62.972c-.166.212-.08.176-.276.041.102-.118.187-.143.276-.041zM59.904 59.18c-.132-.194-.138-.142.016-.331.1.186.088.17-.016.332zM60.504 58.36c.039-.234 0-.195.196-.245-.044.244-.017.195-.196.244zM57.962 57.639l-.063.263-.174-.162.237-.101zM53.9 56.96c-.231-.041-.154.025-.207-.179.14.03.201 0 .207.18zM56.888 59.43c-.038-.25-.063-.162.047-.337.052.11.038.178-.047.337zM53.72 55.371c.185.178.163.143.144.395l-.143-.395zM56.326 56.627c-.195-.053-.096.118-.143-.188.21.133.146 0 .143.188zM52.022 60.304c-.201-.124-.201-.072-.102-.275l.102.275zM60.466 66.234c0 .08-.157.149-.116 0 .041-.148.113-.12.116 0zM56.456 66.97c0 .078-.16.147-.119 0 .042-.145.113-.123.119 0zM50.523 66.303c.11.094.047.13-.05.025-.096-.105-.063-.124.05-.025zM52.941 60.109c-.071.066-.242-.085-.088-.036 0 0 .19-.055.088.036zM50.13 66.504c-.072.063-.243-.089-.089-.036 0 0 .188-.055.089.035zM56.084 67.302c-.075.064-.245-.085-.091-.036 0 0 .19-.055.09.036zM57.791 59.835c-.071.066-.242-.086-.088-.036 0 0 .19-.055.088.036zM63.735 63.238c-.072.063-.243-.088-.088-.036 0 0 .19-.055.088.036zM56.299 58.04c0 .154-.094 0-.047 0 0 0 .044-.173.047 0zM57.398 65.235c0 .157-.094 0-.047 0 0 0 .044-.17.047 0zM61.515 65.636l.072.016-.044.05-.028-.066zM52.022 60.304l.072.016-.044.05-.028-.066zM56.343 56.772s-.022-.028-.022-.02c0 0 .13-.064.03.028l-.008-.008zM60.609 62.902s-.022-.028-.022-.02c0 .01 0 0 0 0s.133-.06.033.029l-.011-.009zM51.782 59.77s-.025-.027-.025-.019c0 .009 0 0 0 0s.134-.064.034.028l-.009-.008z" fill="#3E0B3D"/><path fill-rule="evenodd" clip-rule="evenodd" d="M53.72 55.372l-.082-.121.083.121z" fill="#3E0B3D"/><path d="M80.094 37.372c-7.29 6.982-9.708 9.856-11.567 13.77-.083.184-1.639 2.851-3.278 6.038l.907-1.315C70.36 51.693 81 48.9 80.094 37.372zm0 0c-4.335 8.393-10.11 14.27-14.462 19.064l14.462-19.064zm-16.82 3.36c-.22 3.318-.95 7.575.827 10.32 1.556 2.415 1.272 3.361.609 5.763l.504.327c1.779-3.066 2.993-6.67 2.021-9.944-.708-2.383-2.787-4.46-3.96-6.467zm0 0c.51 2.178 5.129 9.905 1.808 16.278L63.275 40.73zm-4.96 6.792c1.13 2.347 1.441 3.568 3.95 5.215.834.544 1.785 2.072 2.03 3.272l.49.845c1.377-4.356-.686-8.064-6.47-9.332zm0 0c2.771 2.023 8.238 3.953 6.36 9.288l-6.36-9.288zm-25.871 23.81a35.995 35.995 0 01-4.255-.74 35.386 35.386 0 01-21.94-15.83 35.169 35.169 0 01-4.284-26.656c.146-.598.303-1.193.479-1.784m48.02-22.407a35.343 35.343 0 0117.306 16.03 35.162 35.162 0 013.327 23.312M66.68 55.371c5.453-2.02 6.824-4.602 14.321-5.289-4.875 5.58-11.542 4.164-14.321 5.29zm14.103-5.033c-.806.164-3.775 1.646-5.13 2.036-2.157.61-4.655 1.584-6.913 2.133l12.043-4.17z" stroke="#3E0B3D" stroke-width=".75" stroke-miterlimit="22.93"/><path d="M7.061 20.077l.783.404-.127.241-.551-.274-1.102 2.154.551.291-.126.242-.78-.404.063-.123c.075-.168 0-.346-.212-.55a5.917 5.917 0 00-1.013-.65l-.79-.442.861-1.663 2.25 1.156.193-.37v-.012zm-2.37 1.098c.306.168.601.358.88.568.182.111.317.285.378.489l.787-1.52-2.024-1.04-.611 1.188.59.329v-.014zm3.703-4.117l-.842 1.301.443.683-.165.256-1.653-2.572.157-.244 3.03.439-.168.274-.807-.123.005-.014zm-.259-.041l-1.619-.25.892 1.373.727-1.123zm.551-3.744c.174-.244.43-.418.722-.491a.964.964 0 011.101.873 1.25 1.25 0 01-.325.807l-.481.584.685.55-.184.23-2.181-1.74.652-.824.011.011zm1.28 1.035a.976.976 0 00.254-.607.618.618 0 00-.275-.488.638.638 0 00-.55-.154.977.977 0 00-.519.39l-.462.576 1.085.868.465-.574.003-.011zm.687-3.255l.212-.198 1.578 1.68-.276-2.896.196-.18 1.903 2.027-.212.198-1.597-1.674.275 2.89-.193.184-1.906-2.028.02-.003zm5.568-4.666l1.7 2.196-.232.172-1.357-1.762.275 2.147-.11.085-2.002-.81 1.35 1.754-.224.17-1.697-2.196.193-.148 2.204.9-.306-2.36.19-.148h.016zm6.046-3.294c.225-.103.474-.144.721-.118.24.025.47.115.661.261.203.152.361.355.46.587.107.23.151.484.13.736-.02.239-.106.468-.248.661-.146.2-.343.357-.57.456a1.63 1.63 0 01-.59.145 1.136 1.136 0 01-.537-.093l.077-.239a1.155 1.155 0 00.917-.044 1.074 1.074 0 00.64-.845c.027-.19.004-.384-.067-.563l-1.31.574-.097-.22 1.308-.579a1.175 1.175 0 00-.377-.4 1.046 1.046 0 00-.499-.168 1.072 1.072 0 00-.534.094 1.154 1.154 0 00-.645.65l-.245-.096c.06-.175.16-.333.292-.461.144-.143.314-.258.502-.338h.01zm5.888-2.023l.752 2.676-.276.075-.597-2.139-.551 2.095-.135.035-1.553-1.493.597 2.127-.275.077-.75-2.673.235-.066 1.721 1.647.598-2.306.234-.055zm3.698 2.139a1.55 1.55 0 01-.77-.05 1.37 1.37 0 01-.92-1.084 1.409 1.409 0 01.057-.744c.087-.231.234-.435.427-.59.205-.162.448-.27.705-.313.256-.05.52-.034.769.047.234.078.442.219.603.406.166.192.276.427.317.678.049.25.029.508-.058.747-.084.231-.23.435-.422.59a1.52 1.52 0 01-.702.313h-.006zm-.044-.258a1.2 1.2 0 00.551-.253c.156-.126.273-.292.339-.48.069-.195.084-.404.044-.607a1.16 1.16 0 00-.253-.549 1.063 1.063 0 00-.48-.335 1.213 1.213 0 00-.614-.04 1.197 1.197 0 00-.55.252 1.098 1.098 0 00-.389 1.087c.035.202.122.391.254.549.124.152.288.268.473.334.199.067.411.08.617.042h.009zm5.74-.442l.025.905h-.276l-.016-.65-2.432.066-.085-2.767h.275l.072 2.522 1.682-.046L36.744 0h.293l.071 2.522h.441V2.51zM39.152.074l.275.022-.168 2.295L41.22.228l.276.019-.215 2.772-.276-.022.171-2.292-1.95 2.16-.275-.019.2-2.772zm4.503.53l.275.063-.515 2.245 2.253-1.847.262.058-.615 2.72-.275-.066.515-2.24-2.253 1.833-.259-.06.62-2.706h-.008z" fill="#3E0B3D"/><path d="M30.755 45.433v1.098h-.383v-.752h-2.754v-2.984h.405v2.638h1.831v-2.638h.405v2.638h.496zm3.285-1.194a.697.697 0 01.612.733.703.703 0 01-.292.604 1.48 1.48 0 01-.868.208H32.13v-2.989h1.325c.282-.015.562.054.804.198a.654.654 0 01.275.568.676.676 0 01-.132.42.826.826 0 01-.375.258h.014zm-1.517-.115h.9a.919.919 0 00.535-.13.437.437 0 00.184-.38.424.424 0 00-.184-.377.966.966 0 00-.535-.123h-.9v1.01zm.953 1.342c.201.012.402-.03.58-.124a.437.437 0 00.196-.392.456.456 0 00-.179-.395.958.958 0 00-.55-.13h-.992v1.04h.945zm5.343-1.051h-2.51a1.074 1.074 0 00.359.754c.231.191.526.289.826.275.176.002.35-.032.512-.099.156-.066.294-.166.405-.294l.229.261c-.134.16-.305.286-.499.365a1.716 1.716 0 01-.658.127 1.673 1.673 0 01-.826-.198 1.428 1.428 0 01-.551-.55 1.546 1.546 0 01-.198-.784c-.005-.273.06-.542.19-.782.12-.229.302-.42.526-.55a1.538 1.538 0 011.498 0c.22.132.4.322.518.55.128.241.193.511.187.785v.126l-.008.014zm-1.449-1.296c-.27-.008-.53.09-.727.275-.197.19-.316.446-.333.719h2.129a1.097 1.097 0 00-.336-.72 1.025 1.025 0 00-.733-.274zm4.927.033h-1.135v2.632h-.404v-2.632h-1.135v-.357h2.674v.357zm2.448.7c.307-.018.61.07.86.25a.862.862 0 01.297.705.884.884 0 01-.32.733 1.397 1.397 0 01-.911.25h-1.187v-2.995h.405v1.046h.856v.011zm1.653-1.057h.405v2.99h-.405v-2.99zm-1.757 2.687c.223.02.447-.039.63-.167a.615.615 0 00.215-.508.572.572 0 00-.212-.488 1.053 1.053 0 00-.633-.165h-.758v1.328h.758zM28.981 37.578c.041 0 .063.025.063.074 0 .05-.022.074-.063.074-.156 0-.407-.008-.752-.024a17.832 17.832 0 00-.755-.025c-.206 0-.448 0-.73.025-.28.024-.495.024-.652.024-.033 0-.05-.024-.05-.074 0-.05.017-.074.05-.074.178.011.357-.016.523-.08a.275.275 0 00.168-.274 1.833 1.833 0 00-.21-.628L25.239 33.9h-2.23l-.95 2.13a1.673 1.673 0 00-.16.664.753.753 0 00.308.653c.259.16.56.238.865.22.041 0 .06.025.06.074 0 .05-.019.074-.06.074-.149 0-.364 0-.642-.024-.278-.025-.587-.025-.826-.025-.24 0-.48 0-.777.025a7.025 7.025 0 01-.655.024c-.042 0-.06-.024-.06-.074 0-.05.018-.074.06-.074.202.008.402-.039.58-.134.19-.124.346-.29.458-.486.2-.335.378-.682.532-1.04l2.654-5.96a.131.131 0 01.113-.037c.058 0 .088 0 .097.038l3.03 6.082c.191.431.434.837.724 1.21a.825.825 0 00.622.327v.011zm-5.836-3.977h1.95l-1.024-2.067-.926 2.067zm15.638 3.977c.041 0 .06.025.06.074 0 .05-.019.074-.06.074-.157 0-.408 0-.755-.024-.347-.025-.597-.025-.752-.025-.206 0-.449 0-.73.025-.28.024-.498.024-.655.024-.033 0-.05-.024-.05-.074 0-.05.017-.074.05-.074.179.011.358-.016.526-.08a.275.275 0 00.165-.274c-.03-.22-.1-.434-.21-.628l-2.505-5.073-2.013 4.507c-.1.208-.155.434-.163.664a.761.761 0 00.308.653c.26.16.561.237.865.22.042 0 .064.025.064.074 0 .05-.022.074-.064.074-.148 0-.36 0-.642-.024-.28-.025-.583-.025-.826-.025-.242 0-.482 0-.78.025-.296.024-.478.024-.652.024-.041 0-.063-.024-.063-.074 0-.05.022-.074.063-.074.202.007.403-.04.581-.134.188-.124.344-.29.455-.486a8.36 8.36 0 00.531-1.04l2.683-5.948c.016-.025.052-.038.11-.038s.09 0 .099.038l3.03 6.082c.19.43.433.837.721 1.21a.826.826 0 00.625.327h-.016zm4.957-4.197c.841 0 1.484.166 1.928.497a1.765 1.765 0 01.68 1.52c.01.442-.108.876-.339 1.252a2.261 2.261 0 01-.953.824 3.168 3.168 0 01-1.401.296c-.207 0-.458 0-.752-.036l-1.102-.038H40.32c-.024 0-.038-.025-.038-.074 0-.05.014-.074.038-.074.208.001.415-.021.617-.066a.398.398 0 00.26-.222 1.5 1.5 0 00.074-.55v-5.68a1.58 1.58 0 00-.07-.55.357.357 0 00-.253-.216 3.475 3.475 0 00-.617-.072c-.016 0-.024-.024-.024-.074 0-.05.008-.074.025-.074h.605c.361.016.667.025.915.025s.58 0 .975-.025h.666c.025 0 .039.025.039.074 0 .05-.014.074-.039.074a3.46 3.46 0 00-.672.08.41.41 0 00-.275.228 1.412 1.412 0 00-.08.565v2.42a7.5 7.5 0 011.283-.109l-.008.006zm-.297 4.117c.603 0 1.03-.15 1.286-.45.256-.299.383-.768.383-1.408 0-.684-.14-1.179-.422-1.484-.275-.308-.724-.462-1.333-.462a6.25 6.25 0 00-.9.085v2.956a.777.777 0 00.19.58c.236.15.517.216.796.184zm8.708-4.086c.6.043 1.168.28 1.62.675a1.855 1.855 0 01.605 1.405c.003.415-.12.82-.352 1.164a2.405 2.405 0 01-.978.823c-.43.203-.9.307-1.377.302-.24 0-.515 0-.826-.035l-.408-.025h-2.082c-.025 0-.036-.025-.036-.074 0-.05 0-.074.036-.074.2.007.401-.015.595-.066a.456.456 0 00.275-.242c.067-.175.095-.362.083-.549V31.03a1.324 1.324 0 00-.083-.549.452.452 0 00-.275-.247 1.954 1.954 0 00-.587-.066c-.016 0-.024-.024-.024-.074 0-.049.008-.074.024-.074h.642c.367.017.66.025.876.025.231 0 .474 0 .73-.036l.328-.024h.437a2.849 2.849 0 011.686.425 1.374 1.374 0 01.59 1.175c-.002.388-.14.763-.392 1.06a2.529 2.529 0 01-1.102.751l-.005.017zm-1-3.165a.701.701 0 00-.537.16 1.03 1.03 0 00-.143.652v2.339h.52a1.316 1.316 0 001.102-.475c.26-.354.39-.786.37-1.224.028-.394-.09-.786-.334-1.098a1.218 1.218 0 00-.975-.381l-.003.027zm.309 7.252c1.112 0 1.669-.571 1.669-1.713a2.21 2.21 0 00-.49-1.502 1.78 1.78 0 00-1.427-.565c-.295 0-.551 0-.741.025v2.992c-.007.15.019.3.074.441.057.114.156.2.276.242.204.062.417.088.63.08h.009zm13.351.085c.042 0 .064.024.064.074 0 .05-.022.074-.064.074-.154 0-.407 0-.751-.025-.345-.025-.598-.025-.755-.025-.206 0-.448.009-.727.025-.276.017-.499.025-.656.025-.033 0-.05-.025-.05-.074 0-.05.017-.074.05-.074.179.01.357-.016.524-.08a.276.276 0 00.168-.274c-.03-.221-.1-.434-.21-.629l-1.335-2.695h-2.237l-.95 2.13a1.673 1.673 0 00-.16.664.753.753 0 00.309.653c.259.16.56.237.865.22.041 0 .06.024.06.074 0 .05-.019.074-.06.074-.149 0-.364 0-.642-.025s-.587-.025-.826-.025c-.24 0-.482 0-.78.025-.297.025-.482.025-.655.025-.041 0-.06-.025-.06-.074 0-.05.019-.074.06-.074.202.007.403-.04.581-.135.189-.124.345-.29.457-.486.2-.334.378-.682.532-1.04l2.655-5.959a.131.131 0 01.113-.038c.057 0 .09 0 .099.038l3.03 6.083c.19.43.431.837.72 1.21a.826.826 0 00.623.327l.008.01zm-5.84-3.978h1.957l-1.027-2.066-.925 2.066h-.006zM18.557 29.884v.222a1.913 1.913 0 00-.567.082.407.407 0 00-.248.275 2.142 2.142 0 00-.06.6v5.49c-.009.2.012.401.06.596a.382.382 0 00.247.274c.185.055.376.086.568.09v.22a10.813 10.813 0 00-.689-.027h-1.707c-.276 0-.49 0-.653.027v-.22c.193-.005.385-.035.57-.09a.399.399 0 00.276-.274c.051-.194.073-.395.066-.596v-6.038l.055.022-2.727 7.232h-.19L10.7 30.592a.397.397 0 00-.075-.113c-.104-.118-.11-.12-.13-.126a.527.527 0 00-.112-.085h-.05a1.89 1.89 0 00-.766-.16v-.222l.455.025c.59.022 1.176 0 1.763-.025l2.448 6.275-.21.142 2.405-6.386h.609c.506 0 1.013-.014 1.52-.036v.003zM10.7 32.387v3.861c-.007.244.015.487.066.725a.528.528 0 00.275.368c.214.09.443.14.675.145v.22a6.447 6.447 0 00-.551-.028h-1.17c-.185 0-.337 0-.455.028v-.22c.191-.009.379-.056.55-.14a.55.55 0 00.254-.356c.05-.23.072-.463.066-.698v-4.526c.036.017.22.569.25.62h.04z" fill="#3F0B3D"/></svg>