<?xml version="1.0" encoding="utf-8"?><svg width="12" height="11" fill="none" xmlns="http://www.w3.org/2000/svg" viewBox="0 0 12 11"><path d="M1.152 3.04c.152.108.61.426 1.373.955.763.529 1.348.936 1.754 1.222l.285.204a6.94 6.94 0 00.71.472c.136.08.264.141.384.181.121.04.233.06.335.06h.014c.102 0 .214-.02.335-.06.12-.04.249-.1.385-.18a7.058 7.058 0 00.71-.473c.144-.105.24-.173.284-.204.41-.286 1.455-1.011 3.134-2.176a3.18 3.18 0 00.817-.824c.219-.321.328-.658.328-1.011 0-.295-.106-.547-.318-.757a1.035 1.035 0 00-.754-.314H1.072C.728.135.463.25.278.483.093.715 0 1.005 0 1.353c0 .281.123.586.368.914.246.328.507.586.784.774z" fill="#A96D8E"/><path d="M11.33 4.217a139.086 139.086 0 00-3.334 2.31c-.255.188-.461.334-.62.439-.158.105-.37.212-.633.321-.263.11-.508.164-.736.164h-.014c-.227 0-.473-.054-.736-.164a3.825 3.825 0 01-.633-.321 15.853 15.853 0 01-.62-.439c-.602-.442-1.712-1.212-3.328-2.31A3.547 3.547 0 010 3.635V8.95c0 .295.105.547.315.757.21.21.462.315.756.315h9.858c.294 0 .546-.105.756-.315.21-.21.315-.462.315-.757V3.635a3.692 3.692 0 01-.67.582z" fill="#A96D8E"/></svg>