<?xml version="1.0" encoding="utf-8"?><svg width="29" height="50" fill="none" xmlns="http://www.w3.org/2000/svg" viewBox="0 0 29 50"><path d="M14.376 7.878a5.31 5.31 0 015.304 5.304c0 2.915-2.38 5.294-5.304 5.294-2.925 0-5.304-2.38-5.304-5.294a5.31 5.31 0 015.304-5.304zm0 18.476c7.271 0 13.172-5.9 13.172-13.172C27.548 5.912 21.647 0 14.376 0 7.106 0 1.194 5.911 1.194 13.182c0 7.26 5.911 13.172 13.182 13.172zm5.18 10.072a23.664 23.664 0 007.436-3.079 3.751 3.751 0 001.174-5.17 3.742 3.742 0 00-5.17-1.174c-5.252 3.296-11.998 3.296-17.24 0a3.752 3.752 0 00-5.18 1.174 3.745 3.745 0 001.184 5.17 23.565 23.565 0 007.436 3.08l-7.168 7.167a3.745 3.745 0 00.01 5.304A3.737 3.737 0 004.685 50a3.76 3.76 0 002.657-1.102l7.034-7.034 7.044 7.034a3.754 3.754 0 005.304 0 3.754 3.754 0 000-5.304l-7.168-7.168z" fill="#EE8208"/></svg>