<?xml version="1.0" encoding="utf-8"?><svg width="97" height="100" fill="none" xmlns="http://www.w3.org/2000/svg" viewBox="0 0 97 100"><path d="M96.585 86.293c-4.388-11.54-11.81-14.239-17.79-15.302-4.99-.893-11.21-2.746-13.412-3.955-.072-1-.109-3.029.09-6.344.122-.137.245-.254.366-.398l-.063-.057c2.95-3.947 4.358-7.654 4.993-10.16 1.904-1.339 3.905-3.95 5.081-9 .682-2.929 1.192-6.626-.914-9.274-.053-.063-.1-.124-.152-.187C76.67 13.07 64.754 3.697 57.756 1.26l-.1-.034-.096-.029C55.011.428 52.561.046 50.26.021L50.2 0l-.05.011c-.04 0-.09-.011-.13-.011-.557 0-1.078.024-1.584.063A19.334 19.334 0 0046.867 0C44.5 0 41.96.403 39.323 1.195l-.098.03-.096.033C32.127 3.696 20.215 13.068 22.1 31.616a2.866 2.866 0 00-.151.186c-2.11 2.648-1.596 6.346-.915 9.274 1.178 5.05 3.173 7.662 5.082 9.001.628 2.485 2.034 6.144 4.927 10.059v.001a.55.55 0 01.034.045c.165.225.282.438.459.662.186 3.176.152 5.156.066 6.201-2.214 1.2-8.414 3.055-13.396 3.945-5.98 1.065-13.404 3.764-17.792 15.3-.742 1.963-.48 4.09.729 5.836C5.645 98.633 29.383 100 48.5 100c19.118 0 42.856-1.367 47.357-7.875 1.209-1.746 1.47-3.873.729-5.832zM30.362 46.636s-.045.008-.128.008c-.587 0-3.073-.387-4.53-6.655-1.136-4.872.052-5.644.926-5.644.403 0 .738.165.738.165-.014-.068-.014-.124-.027-.192l.207.192 1.976 6.126s-1.326-17.199 7.956-18.521c0 0 9.853 10.148 22.096 12.347 0 0-2.651-4.851-4.861-9.26 0 0 7.07 7.936 13.258 9.26 0 0 .94-1.203 1.989-3.178-.11 1.044-.23 2.1-.448 3.225 0 0 .339-.165.742-.165.873 0 2.061.771.922 5.644-1.457 6.27-3.947 6.655-4.534 6.655-.08 0-.125-.007-.125-.007s-.314 5.878-5.734 12.216c0 .049-.008.104-.008.152-4.218 4.283-8.52 6.359-12.838 6.197-5.365-.223-9.605-3.875-11.712-6.088a1.527 1.527 0 01-.005-.115c-5.532-6.394-5.86-12.362-5.86-12.362zM48.5 80.502c-7.49 0-14.201-2.908-18.907-7.504 3.239-1.096 5.967-2.371 6.429-3.61.304-.8.415-2.288.435-3.962 2.853 2.135 6.668 4.154 11.256 4.354.252.014.503.021.756.021 4.144 0 8.181-1.533 12.07-4.496.018 1.723.13 3.264.44 4.082.463 1.24 3.19 2.52 6.435 3.611-4.706 4.602-11.422 7.504-18.913 7.504z" fill="#D5CFD6"/></svg>