<?xml version="1.0" encoding="utf-8"?><svg width="19" height="20" fill="none" xmlns="http://www.w3.org/2000/svg" viewBox="0 0 19 20"><path d="M17.573 14.1v2.5a1.667 1.667 0 01-1.816 1.667 16.492 16.492 0 01-7.192-2.558 16.25 16.25 0 01-5-5 16.491 16.491 0 01-2.558-7.225 1.667 1.667 0 011.658-1.817h2.5A1.667 1.667 0 016.832 3.1c.105.8.301 1.586.583 2.342A1.667 1.667 0 017.04 7.2L5.982 8.26a13.333 13.333 0 005 5L12.04 12.2a1.666 1.666 0 011.758-.375 10.7 10.7 0 002.342.584 1.666 1.666 0 011.433 1.691z" stroke="#3E0B3D" stroke-width="2" stroke-linecap="round" stroke-linejoin="round"/></svg>