<?xml version="1.0" encoding="utf-8"?><svg width="100" height="78" fill="none" xmlns="http://www.w3.org/2000/svg" viewBox="0 0 100 78"><path d="M49.602 64.42a19.232 19.232 0 110-38.463 19.232 19.232 0 010 38.464zm0-30.769a11.54 11.54 0 00-8.16 19.698 11.543 11.543 0 0016.319 0 11.542 11.542 0 000-16.317 11.54 11.54 0 00-8.16-3.38z" fill="#fff"/><path d="M88.462 77.37H11.538A11.538 11.538 0 010 65.832v-30.77a3.844 3.844 0 015.77-3.33 3.845 3.845 0 011.922 3.33v30.77a3.846 3.846 0 003.847 3.846h76.923a3.848 3.848 0 003.845-3.846V26.089a3.848 3.848 0 00-3.845-3.845h-19.23a3.849 3.849 0 01-3.77-3.013l-1.757-8.462a3.849 3.849 0 00-3.718-3.077h-18.41a3.848 3.848 0 00-3.743 2.962l-2.038 8.64h-.001a3.848 3.848 0 11-7.487-1.781l2.064-8.642A11.54 11.54 0 0141.578 0h18.41a11.534 11.534 0 0111.307 9.243l1.076 5.308h16.091A11.537 11.537 0 01100 26.09v39.743A11.537 11.537 0 0188.462 77.37z" fill="#fff"/><path d="M84.218 33.651H72.681a3.847 3.847 0 01-3.332-5.769 3.847 3.847 0 013.332-1.923h11.538a3.847 3.847 0 110 7.692zM16.666 22.242H3.846a3.846 3.846 0 110-7.692h12.82a3.845 3.845 0 013.33 5.769 3.845 3.845 0 01-3.33 1.923z" fill="#fff"/><path d="M10.258 28.653a3.844 3.844 0 01-3.846-3.846v-12.82a3.846 3.846 0 117.692 0v12.82a3.844 3.844 0 01-3.846 3.846z" fill="#fff"/></svg>