<?xml version="1.0" encoding="utf-8"?><svg width="19" height="19" fill="none" xmlns="http://www.w3.org/2000/svg" viewBox="0 0 19 19"><path d="M17.573 13.433v2.5a1.667 1.667 0 01-1.816 1.667 16.492 16.492 0 01-7.192-2.558 16.25 16.25 0 01-5-5 16.491 16.491 0 01-2.558-7.225A1.667 1.667 0 012.665 1h2.5a1.667 1.667 0 011.667 1.433c.105.8.301 1.586.583 2.342a1.667 1.667 0 01-.375 1.758L5.982 7.592a13.332 13.332 0 005 5l1.058-1.059a1.667 1.667 0 011.758-.375 10.7 10.7 0 002.342.584 1.667 1.667 0 011.433 1.691z" stroke="#A96D8E" stroke-width="2" stroke-linecap="round" stroke-linejoin="round"/></svg>