<?xml version="1.0" encoding="utf-8"?><svg width="19" height="19" fill="none" xmlns="http://www.w3.org/2000/svg" viewBox="0 0 19 19"><path d="M13.474 3.408l2.118 2.117-2.118-2.117zm1.362-1.865L9.109 7.27a2.118 2.118 0 00-.58 1.082L8 11l2.648-.53c.41-.082.786-.283 1.082-.58l5.727-5.726a1.854 1.854 0 00-2.621-2.621v0z" stroke="#A96D8E" stroke-width="2" stroke-linecap="round" stroke-linejoin="round"/><path d="M16 13v3a2 2 0 01-2 2H3a2 2 0 01-2-2V5a2 2 0 012-2h3" stroke="#A96D8E" stroke-width="2" stroke-linecap="round" stroke-linejoin="round"/></svg>