<?xml version="1.0" encoding="utf-8"?><svg width="18" height="18" fill="none" xmlns="http://www.w3.org/2000/svg" viewBox="0 0 18 18"><circle cx="9" cy="9" r="8.25" stroke="#A96D8E" stroke-width="1.5"/><path d="M13.83 4.255A.714.714 0 0013.263 4c-.125 0-.258.026-.395.079L3.557 7.633c-.495.189-.561.472-.557.624.004.151.087.43.591.59.003.002.006.003.01.003l1.93.553 1.045 2.987c.142.407.462.66.834.66a.987.987 0 00.668-.284l1.195-1.1 1.732 1.395h.001l.017.014.004.003a1 1 0 00.608.229c.402 0 .721-.297.814-.757l1.526-7.533c.061-.303.01-.573-.145-.762zM6.178 9.298l3.726-1.904-2.32 2.466a.322.322 0 00-.079.143l-.447 1.813-.88-2.518zm1.463 2.993a.59.59 0 01-.046.039l.415-1.681.755.608-1.124 1.034zm5.702-7.402l-1.525 7.533c-.015.072-.062.24-.183.24a.376.376 0 01-.21-.092L9.46 10.99l-.001-.001-1.168-.94 3.355-3.566a.322.322 0 00-.381-.508l-5.519 2.82-1.958-.56 9.309-3.554a.473.473 0 01.165-.036c.02 0 .055.002.068.018.017.02.04.092.012.226z" fill="#A96D8E"/></svg>