<?xml version="1.0" encoding="utf-8"?><svg width="20" height="13" fill="none" xmlns="http://www.w3.org/2000/svg" viewBox="0 0 20 13"><path d="M17.213 7.826c.663.704 1.363 1.367 1.959 2.142.262.345.511.7.702 1.1.27.569.025 1.194-.444 1.228l-2.913-.001c-.752.068-1.351-.261-1.855-.82-.404-.447-.777-.922-1.165-1.384a2.848 2.848 0 00-.525-.507c-.397-.281-.743-.195-.97.256-.231.459-.284.967-.307 1.478-.03.746-.238.943-.927.977-1.473.075-2.871-.167-4.17-.975-1.144-.712-2.032-1.718-2.805-2.856C2.29 6.247 1.136 3.81.101 1.307-.132.743.038.44.611.43 1.56.41 2.51.41 3.463.428c.387.006.642.247.792.644.514 1.375 1.143 2.683 1.933 3.896.21.323.425.646.73.873.338.252.595.168.754-.241.101-.26.145-.54.168-.817.075-.956.085-1.911-.047-2.864-.08-.595-.389-.98-.935-1.092-.278-.058-.237-.17-.102-.343C6.99.186 7.211 0 7.65 0h3.293c.518.111.633.365.704.932l.003 3.977c-.006.22.1.871.464 1.017.292.103.483-.15.658-.35.788-.91 1.351-1.986 1.854-3.1.223-.49.415-.998.6-1.506.138-.377.355-.562.745-.554l3.17.003c.093 0 .188.002.28.019.533.099.68.348.515.915-.26.89-.766 1.632-1.26 2.376-.529.796-1.094 1.564-1.618 2.364-.482.73-.443 1.098.155 1.733z" fill="#fff"/></svg>