<?xml version="1.0" encoding="utf-8"?><svg width="50" height="31" fill="none" xmlns="http://www.w3.org/2000/svg" viewBox="0 0 50 31"><path d="M43.032 19.565c1.659 1.76 3.41 3.417 4.897 5.356.657.861 1.279 1.75 1.755 2.75.674 1.42.064 2.985-1.108 3.07l-7.284-.004c-1.88.17-3.378-.653-4.638-2.05-1.009-1.117-1.943-2.306-2.912-3.46-.398-.472-.814-.916-1.311-1.268-.994-.701-1.857-.486-2.426.641-.578 1.147-.71 2.417-.767 3.696-.078 1.865-.596 2.355-2.319 2.44-3.682.19-7.177-.416-10.423-2.436-2.862-1.78-5.081-4.295-7.013-7.14C5.722 15.617 2.84 9.527.253 3.267-.33 1.858.096 1.101 1.527 1.074c2.376-.05 4.752-.047 7.131-.004.966.016 1.606.618 1.978 1.61 1.286 3.438 2.86 6.709 4.834 9.74.526.807 1.062 1.614 1.825 2.182.845.63 1.488.421 1.886-.602.252-.65.362-1.348.42-2.043.187-2.39.212-4.777-.118-7.16-.203-1.487-.973-2.45-2.337-2.73-.696-.144-.593-.426-.256-.858C17.476.464 18.026 0 19.124 0h8.232c1.296.278 1.584.911 1.762 2.33l.007 9.943c-.014.55.252 2.178 1.161 2.542.728.258 1.208-.375 1.644-.877 1.971-2.275 3.378-4.963 4.635-7.747.558-1.224 1.037-2.495 1.502-3.765.344-.943.884-1.406 1.86-1.386l7.924.008c.235 0 .472.003.7.046 1.335.247 1.7.872 1.288 2.29-.65 2.224-1.913 4.077-3.15 5.94-1.32 1.988-2.734 3.908-4.044 5.908-1.204 1.826-1.108 2.747.387 4.333z" fill="#07F"/></svg>